<?xml version="1.0" encoding="utf-8"?>
<!-- Generator: Adobe Illustrator 23.0.5, SVG Export Plug-In . SVG Version: 6.00 Build 0)  -->
<svg version="1.1" id="Layer_1" xmlns="http://www.w3.org/2000/svg" xmlns:xlink="http://www.w3.org/1999/xlink" x="0px" y="0px"
	 viewBox="0 0 584.6 491" style="enable-background:new 0 0 584.6 491;" xml:space="preserve">
<style type="text/css">
	.st0{stroke:#000000;stroke-miterlimit:10;}
	.st1{fill:#41424C;}
	.st2{fill:#7C7C7C;}
	.st3{fill:url(#SVGID_1_);}
	.st4{fill:#EF9941;}
	.st5{fill:#458B40;}
	.st6{fill:url(#SVGID_2_);}
	.st7{fill:url(#SVGID_3_);}
	.st8{fill:url(#SVGID_4_);}
	.st9{fill:url(#SVGID_5_);}
</style>
<path class="st0" d="M356.4,374c0,0,7.3-1.1,11.7-4c4.3-2.8,4.6-2.9,4.6-2.9c0.5-0.3,1,0.1,0.7,0.7c-0.3,0.7-0.8,1.4-1.3,2.1
	c-1.3,1.7-2.9,2.9-4.5,4.1c-1.7,1.1-3.5,2.2-5.4,2.9c-0.3,0.1-0.5,0.2-0.8,0.3c-3.9,1.1-4.3,0.9-4.3,0.9L356.4,374z"/>
<path class="st0" d="M182.7,374c0,0-7.3-1.1-11.7-4c-4.3-2.8-4.6-2.9-4.6-2.9c-0.5-0.3-1,0.1-0.7,0.7c0.3,0.7,0.8,1.4,1.3,2.1
	c1.3,1.7,2.9,2.9,4.5,4.1c1.7,1.1,3.5,2.2,5.4,2.9c0.3,0.1,0.5,0.2,0.8,0.3c3.9,1.1,4.3,0.9,4.3,0.9L182.7,374z"/>
<path class="st1" d="M473,428.7V182.4c0-7.1-6.1-12.9-13.7-12.9H78.7c-7.5,0-13.7,5.8-13.7,12.9v246.3c0,7.1,6.1,12.9,13.7,12.9
	h380.7C466.9,441.5,473,435.7,473,428.7z M455.1,297.9v15.3c0,1-0.9,1.8-2,1.8c-1.1,0-2-0.8-2-1.8v-15.3c0-1,0.9-1.8,2-1.8
	C454.3,296,455.1,296.8,455.1,297.9z M75.1,305.5c0-5.4,4.7-9.8,10.4-9.8c5.8,0,10.4,4.4,10.4,9.8s-4.7,9.8-10.4,9.8
	C79.8,315.3,75.1,310.9,75.1,305.5z M107,425V185.5h328V425H107z"/>
<path class="st2" d="M198.7,256.2c-11.7,1.1-20.8,9.4-21.8,19.6c-0.1,1.2,0,3.5,0.1,4.6c0.6,3.9,2.3,7.5,5.1,10.6
	c0.8,0.9,2.8,2.7,3.9,3.4c3.7,2.6,8,4.1,12.8,4.6c1.6,0.2,4.2,0.1,5.9-0.1c4.3-0.6,8.4-2.1,11.8-4.5c0.9-0.6,3.1-2.6,3.9-3.4
	c2.8-3.2,4.6-6.9,5.1-11c0.1-1.1,0.2-3.4,0-4.5c-0.7-6.4-4.7-12.3-10.8-15.8c-2.5-1.4-4.8-2.3-7.7-3c-2-0.4-2.9-0.5-5.4-0.5
	C200.3,256.1,199.1,256.2,198.7,256.2z M204.5,258.2c5.4,0.7,10.5,3.3,13.9,7c1.4,1.5,2.9,3.8,3.6,5.6c1.2,2.9,1.6,6.2,1.2,9.2
	c-0.5,3.5-2,6.7-4.4,9.5c-3.7,4.2-8.8,6.8-14.8,7.5c-1,0.1-4.7,0.1-5.7,0c-2.6-0.4-4.7-0.9-7-1.9c-2.2-1-4-2.1-5.8-3.7
	c-3.5-3.1-5.5-6.7-6.3-11.2c-0.2-1.4-0.2-4,0-5.4c0.6-3.6,2.2-6.8,4.7-9.6c3.7-4,9-6.6,14.9-7.2C200.1,258,203.3,258.1,204.5,258.2z
	"/>
<path class="st2" d="M335.3,256.2c-11.7,1.1-20.8,9.4-21.8,19.6c-0.1,1.2,0,3.5,0.1,4.6c0.6,3.9,2.3,7.5,5.1,10.6
	c0.8,0.9,2.8,2.7,3.9,3.4c3.7,2.6,8,4.1,12.8,4.6c1.6,0.2,4.2,0.1,5.9-0.1c4.3-0.6,8.4-2.1,11.8-4.5c0.9-0.6,3.1-2.6,3.9-3.4
	c2.8-3.2,4.6-6.9,5.1-11c0.1-1.1,0.2-3.4,0-4.5c-0.7-6.4-4.7-12.3-10.8-15.8c-2.5-1.4-4.8-2.3-7.7-3c-1.9-0.4-2.9-0.5-5.4-0.5
	C336.9,256.1,335.6,256.2,335.3,256.2z M341.1,258.2c5.4,0.7,10.5,3.3,13.9,7c1.4,1.5,2.9,3.8,3.6,5.6c1.2,2.9,1.6,6.2,1.2,9.2
	c-0.5,3.5-2,6.7-4.4,9.5c-3.7,4.2-8.8,6.8-14.8,7.5c-1,0.1-4.7,0.1-5.7,0c-2.6-0.4-4.7-0.9-7-1.9c-2.2-1-4-2.1-5.8-3.7
	c-3.5-3.1-5.5-6.7-6.3-11.2c-0.2-1.4-0.2-4,0-5.4c0.6-3.6,2.2-6.8,4.7-9.6c3.7-4,9-6.6,15-7.2C336.6,258,339.9,258.1,341.1,258.2z"
	/>
<circle class="st2" cx="201.1" cy="277.3" r="4.9"/>
<circle class="st2" cx="337.7" cy="277.3" r="4.9"/>
<linearGradient id="SVGID_1_" gradientUnits="userSpaceOnUse" x1="269.114" y1="200.52" x2="269.114" y2="90.453" gradientTransform="matrix(1 0 0 -1 0 423.04)">
	<stop  offset="0" style="stop-color:#EF9941"/>
	<stop  offset="1" style="stop-color:#458B40"/>
</linearGradient>
<path class="st3" d="M401.6,268.4h-10c-4.3-26-26.7-45.9-53.7-45.9c-26.6,0-48.9,18.9-54,43.9c-4.4-3.7-9.5-5.7-14.8-5.7
	c-5.3,0-10.4,2-14.8,5.7c-5.1-25-27.1-43.9-53.4-43.9c-28.9,0-52.6,22.2-54.9,50.4h-9.4c-2.5,0-4.6,2.1-4.6,4.6c0,2.5,2,4.6,4.6,4.6
	h9.4c2.3,28.2,26.1,50.4,54.9,50.4c29.5,0,53.6-23.9,54.4-53.5c3.9-5.9,8.8-9.2,13.8-9.2c5,0,9.9,3.3,13.8,9.2
	c0.8,29.6,25.2,53.5,55.1,53.5c30.1,0,54.5-24.7,54.5-55h9.1c2.5,0,4.6-2.1,4.6-4.6C406.2,270.4,404.1,268.4,401.6,268.4z
	 M200.9,323.4c-25.4,0-46-20.6-46-45.9c0-25.3,20.6-45.9,46-45.9c25.4,0,45.4,20.1,45.4,45.9C246.3,303.3,226.3,323.4,200.9,323.4z
	 M338,323.4c-25.4,0-46-20.6-46-45.9c0-25.3,20.6-45.9,46-45.9c25.4,0,45.4,20.1,45.4,45.9C383.3,303.3,363.4,323.4,338,323.4z"/>
<path class="st4" d="M199.3,358.5c2.4,0,4.5,0.4,6.3,1.2c1.8,0.8,3.2,1.9,4.2,3.4c1,1.5,1.4,3.3,1.4,5.3c0,2-0.5,3.8-1.4,5.3
	c-1,1.5-2.3,2.6-4.2,3.4c-1.8,0.8-3.9,1.2-6.3,1.2H193v8.1h-5.2v-28H199.3z M199.1,374c2.3,0,4-0.5,5.2-1.4c1.2-1,1.8-2.3,1.8-4.1
	c0-1.8-0.6-3.2-1.8-4.1s-2.9-1.4-5.2-1.4H193V374H199.1z M220.5,368.3c1.4-2.2,4-3.4,7.6-3.4v4.8c-0.4-0.1-0.8-0.1-1.2-0.1
	c-1.9,0-3.5,0.6-4.6,1.7c-1.1,1.1-1.6,2.7-1.6,4.9v10.4h-5v-21.4h4.8V368.3z M252.2,376c0,0.3,0,0.8-0.1,1.5h-16.8
	c0.3,1.6,1.1,2.8,2.3,3.8c1.3,0.9,2.8,1.4,4.6,1.4c2.3,0,4.3-0.8,5.8-2.3l2.7,3.1c-1,1.1-2.2,2-3.6,2.6c-1.5,0.6-3.1,0.9-5,0.9
	c-2.3,0-4.4-0.5-6.2-1.4c-1.8-0.9-3.2-2.2-4.2-3.9c-1-1.7-1.4-3.6-1.4-5.7c0-2.1,0.5-3.9,1.4-5.6c1-1.7,2.3-3,4-3.9
	c1.7-0.9,3.6-1.4,5.7-1.4c2.1,0,3.9,0.5,5.6,1.4c1.7,0.9,2.9,2.2,3.8,3.9C251.8,371.9,252.2,373.8,252.2,376z M241.4,368.9
	c-1.6,0-3,0.5-4.1,1.4c-1.1,0.9-1.8,2.2-2,3.8h12.1c-0.2-1.5-0.9-2.8-2-3.8C244.4,369.4,243.1,368.9,241.4,368.9z M268.9,364.9
	c2.1,0,3.9,0.5,5.6,1.4c1.7,0.9,2.9,2.2,3.9,3.8c0.9,1.7,1.4,3.6,1.4,5.7s-0.5,4.1-1.4,5.8c-0.9,1.7-2.2,2.9-3.9,3.8
	c-1.6,0.9-3.5,1.4-5.6,1.4c-2.9,0-5.2-1-6.8-2.9v10.4h-5v-29.1h4.8v2.8c0.8-1,1.8-1.8,3-2.3C266.1,365.2,267.4,364.9,268.9,364.9z
	 M268.3,382.5c1.8,0,3.3-0.6,4.5-1.8c1.2-1.2,1.8-2.8,1.8-4.8s-0.6-3.6-1.8-4.8c-1.2-1.2-2.7-1.8-4.5-1.8c-1.2,0-2.3,0.3-3.2,0.8
	c-1,0.5-1.7,1.3-2.3,2.3s-0.8,2.2-0.8,3.5s0.3,2.5,0.8,3.5s1.3,1.8,2.3,2.4C266,382.3,267.1,382.5,268.3,382.5z"/>
<path class="st5" d="M297.9,386.9c-2.8,0-5.4-0.6-7.7-1.8c-2.3-1.3-4.1-3-5.4-5.2c-1.3-2.2-1.9-4.7-1.9-7.4s0.7-5.2,2-7.4
	c1.3-2.2,3.1-3.9,5.4-5.1c2.3-1.3,4.9-1.9,7.7-1.9c2.3,0,4.4,0.4,6.3,1.2c1.9,0.8,3.5,2,4.8,3.5l-3.4,3.2c-2-2.2-4.5-3.3-7.5-3.3
	c-1.9,0-3.6,0.4-5.2,1.3c-1.5,0.8-2.7,2-3.6,3.5c-0.9,1.5-1.3,3.2-1.3,5.1s0.4,3.6,1.3,5.1c0.9,1.5,2,2.7,3.6,3.5
	c1.5,0.8,3.2,1.2,5.2,1.2c3,0,5.5-1.1,7.5-3.3l3.4,3.2c-1.3,1.5-2.9,2.7-4.8,3.5C302.3,386.5,300.2,386.9,297.9,386.9z M335,382.2
	v4.4h-21v-28h20.4v4.4h-15.2v7.3h13.5v4.3h-13.5v7.7H335z M346.5,362.9h-9.3v-4.4H361v4.4h-9.3v23.6h-5.2V362.9z"/>
<linearGradient id="SVGID_2_" gradientUnits="userSpaceOnUse" x1="440.1863" y1="283.5157" x2="410.774" y2="223.209" gradientTransform="matrix(1 0 0 -1 0 423.04)">
	<stop  offset="0" style="stop-color:#EF9941"/>
	<stop  offset="1.000000e-04" style="stop-color:#6A8E40"/>
	<stop  offset="0.7552" style="stop-color:#6A8E40"/>
	<stop  offset="0.9688" style="stop-color:#458B40"/>
</linearGradient>
<path class="st6" d="M427.9,164.8c-2.2-1.1-4.1-2.6-5.8-4.4l-45.9-52l-16,32.9c-3.9,8-0.1,18.3,11.4,30.6
	c10,10.7,23.9,20.6,39.1,28.1c15.2,7.4,31.6,12.2,46.2,13.6c16.7,1.5,27.2-1.8,31.1-9.8l16-32.8l-69.2-4.1
	C432.4,166.5,430.1,165.9,427.9,164.8L427.9,164.8z"/>
<linearGradient id="SVGID_3_" gradientUnits="userSpaceOnUse" x1="488.8671" y1="385.4847" x2="398.1241" y2="199.4339" gradientTransform="matrix(1 0 0 -1 0 423.04)">
	<stop  offset="0" style="stop-color:#EF9941"/>
	<stop  offset="1" style="stop-color:#458B40"/>
</linearGradient>
<path class="st7" d="M510.2,151.3l-80.2,6.9L364.2,57l120.2-10.4l65.8,101.2l-93-45.4l-9.1,18.6L510.2,151.3z M541.2,166.4
	l-36.3,74.4l-8.5-29.7l20.8-42.6L541.2,166.4z M414.1,203.3l41.4,11l14.1-1.1l35.6-43.7l-80.4,3.1l-39.8-40.8l-10.8,27.9
	L414.1,203.3z"/>
<linearGradient id="SVGID_4_" gradientUnits="userSpaceOnUse" x1="433.1117" y1="269.4423" x2="398.3877" y2="198.2463" gradientTransform="matrix(1 0 0 -1 0 423.04)">
	<stop  offset="2.000000e-04" style="stop-color:#8E9140"/>
	<stop  offset="0.3646" style="stop-color:#748F40"/>
	<stop  offset="1" style="stop-color:#458B40"/>
</linearGradient>
<path class="st8" d="M417,179.1c5.4-12.1,11.9-11.9,10.3-13.9L380.7,100l-28,53.5c-4.6,9.5-0.6,11.4,10.7,24.7
	c9.8,11.6,27.9,23.2,43.3,30.7c15.4,7.5,32.8,13.6,48,14.2c17.4,0.6,23.7,2.8,28.3-6.7l26-54.3l-79.2,3
	C429.2,161,416.6,166.9,417,179.1z"/>
<linearGradient id="SVGID_5_" gradientUnits="userSpaceOnUse" x1="432.8907" y1="269.5501" x2="398.1667" y2="198.3541" gradientTransform="matrix(1 0 0 -1 0 423.04)">
	<stop  offset="2.000000e-04" style="stop-color:#8E9140"/>
	<stop  offset="0.3646" style="stop-color:#748F40"/>
	<stop  offset="1" style="stop-color:#458B40"/>
</linearGradient>
<path class="st9" d="M424.4,193.3c-9.4,0.3-13.6-2.5-15.2-4.5l-46.8-35l12.9-47.3c-4.6,9.5-0.6,11.4,10.7,24.7
	c9.8,11.6,25.8,26.5,41.3,34c15.4,7.5,34.8,10.3,50,10.9c17.4,0.6,23.7,2.8,28.3-6.7l-23.7,36.9l-51.3-9.7
	C430.5,196.6,424,181.1,424.4,193.3z"/>
<path d="M375.3,366.4c-0.9-1.4-6.6-1-9.4-0.7c-1,0.2-1-0.4-0.9-0.7c0.9-1.2,3.2-2,4.3-2.2c6.8-1,9.1,0.1,9.4,0.9
	c1,1.4-0.7,6.1-1.7,8.3c-0.8,1.3-2.6,4-3.4,4.4c-0.9,0.3-0.8-0.3-0.6-0.7C375.4,371.4,375.5,367.7,375.3,366.4z"/>
<path d="M164.6,366.4c1-1.4,8-1,11.4-0.7c1.2,0.2,1.2-0.4,1-0.7c-1-1.2-3.9-2-5.2-2.2c-8.3-1-11,0.1-11.4,0.9
	c-1.2,1.4,0.9,6.1,2.1,8.3c0.9,1.3,3.1,4,4.1,4.4c1,0.3,0.9-0.3,0.8-0.7C164.5,371.4,164.3,367.7,164.6,366.4z"/>
</svg>
