<svg width="90" height="90" viewBox="0 0 90 90" fill="none" xmlns="http://www.w3.org/2000/svg">
<path d="M61.875 7.49869H28.125C25.6394 7.50132 23.2564 8.48988 21.4988 10.2475C19.7412 12.0051 18.7526 14.3881 18.75 16.8737V80.6237C18.7501 80.9738 18.8483 81.3168 19.0334 81.6139C19.2185 81.911 19.4832 82.1503 19.7974 82.3046C20.1102 82.4631 20.4618 82.529 20.8108 82.4946C21.1598 82.4602 21.4917 82.327 21.7676 82.1106L45 64.2394L68.2324 82.1106C68.56 82.3624 68.9617 82.4989 69.375 82.4987C69.6623 82.4996 69.9457 82.4331 70.2026 82.3046C70.5168 82.1503 70.7815 81.911 70.9666 81.6139C71.1517 81.3168 71.2499 80.9738 71.25 80.6237V16.8737C71.2474 14.3881 70.2588 12.0051 68.5012 10.2475C66.7436 8.48988 64.3606 7.50132 61.875 7.49869ZM67.5 76.8152L46.1426 60.387C45.815 60.1352 45.4133 59.9986 45 59.9986C44.5867 59.9986 44.185 60.1352 43.8574 60.387L22.5 76.8152V16.8737C22.5016 15.3823 23.0948 13.9526 24.1493 12.898C25.2039 11.8435 26.6337 11.2503 28.125 11.2487H61.875C63.3663 11.2503 64.7961 11.8435 65.8507 12.898C66.9052 13.9526 67.4984 15.3823 67.5 16.8737V76.8152Z" fill="#646464"/>
<path d="M54.375 33.7487H46.875V26.2487C46.875 25.7514 46.6775 25.2745 46.3258 24.9229C45.9742 24.5712 45.4973 24.3737 45 24.3737C44.5027 24.3737 44.0258 24.5712 43.6742 24.9229C43.3225 25.2745 43.125 25.7514 43.125 26.2487V33.7487H35.625C35.1277 33.7487 34.6508 33.9462 34.2992 34.2979C33.9475 34.6495 33.75 35.1264 33.75 35.6237C33.75 36.121 33.9475 36.5979 34.2992 36.9495C34.6508 37.3011 35.1277 37.4987 35.625 37.4987H43.125V44.9987C43.125 45.496 43.3225 45.9729 43.6742 46.3245C44.0258 46.6761 44.5027 46.8737 45 46.8737C45.4973 46.8737 45.9742 46.6761 46.3258 46.3245C46.6775 45.9729 46.875 45.496 46.875 44.9987V37.4987H54.375C54.8723 37.4987 55.3492 37.3011 55.7008 36.9495C56.0525 36.5979 56.25 36.121 56.25 35.6237C56.25 35.1264 56.0525 34.6495 55.7008 34.2979C55.3492 33.9462 54.8723 33.7487 54.375 33.7487Z" fill="#646464"/>
</svg>
