<svg width="57" height="57" viewBox="0 0 57 57" fill="none" xmlns="http://www.w3.org/2000/svg">
<path fill-rule="evenodd" clip-rule="evenodd" d="M28.2755 43.3354C26.2392 43.3354 24.2627 42.9382 22.4022 42.1507C20.605 41.3913 18.9943 40.305 17.6086 38.9198C16.2229 37.5346 15.1361 35.9209 14.3765 34.128C13.5887 32.2682 13.1912 30.2924 13.1912 28.2569C13.1912 26.2214 13.5886 24.2456 14.3765 22.3858C15.1361 20.5893 16.2229 18.9792 17.6086 17.594C18.9943 16.2088 20.6086 15.1225 22.4022 14.3631C24.2627 13.5756 26.2392 13.1783 28.2755 13.1783C30.3118 13.1783 32.2884 13.5756 34.1488 14.3631C35.946 15.1225 37.5603 16.2088 38.9425 17.594C40.3246 18.9792 41.4149 20.5929 42.1746 22.3858C42.9624 24.2456 43.3598 26.2214 43.3598 28.2569C43.3598 30.2924 42.9624 32.2682 42.1746 34.128C41.4149 35.9245 40.3282 37.5381 38.9425 38.9198C37.5568 40.3014 35.9425 41.3913 34.1488 42.1507C32.2884 42.9347 30.3118 43.3354 28.2755 43.3354ZM28.2755 14.8624C26.4678 14.8624 24.7129 15.2175 23.0599 15.9136C21.4631 16.5886 20.0317 17.5554 18.8008 18.7823C17.5699 20.0128 16.6027 21.4437 15.931 23.0398C15.2311 24.6886 14.8794 26.4429 14.8794 28.2534C14.8794 30.064 15.2346 31.8147 15.931 33.4671C16.6062 35.0632 17.5734 36.4941 18.8008 37.7245C20.0317 38.955 21.4632 39.9218 23.0599 40.5933C24.7093 41.2929 26.4643 41.6444 28.2755 41.6444C30.0868 41.6444 31.8382 41.2894 33.4912 40.5933C35.0879 39.9183 36.5193 38.9515 37.7502 37.7245C38.9811 36.4975 39.9483 35.0632 40.6201 33.4671C41.32 31.8183 41.6716 30.064 41.6716 28.2534C41.6716 26.4429 41.3164 24.6921 40.6201 23.0398C39.9448 21.4436 38.9777 20.0128 37.7502 18.7823C36.5228 17.5519 35.0879 16.5851 33.4912 15.9136C31.8382 15.2175 30.0832 14.8624 28.2755 14.8624Z" fill="#646464" stroke="#646464" stroke-width="2"/>
<path fill-rule="evenodd" clip-rule="evenodd" d="M28.276 7.4762C27.8083 7.4762 27.432 7.10004 27.432 6.63244V2.09375C27.432 1.62616 27.8083 1.25 28.276 1.25C28.7438 1.25 29.1201 1.62616 29.1201 2.09375V6.63244C29.1201 7.10004 28.7438 7.4762 28.276 7.4762Z" fill="#646464" stroke="#646464" stroke-width="2"/>
<path fill-rule="evenodd" clip-rule="evenodd" d="M17.3737 10.4258C17.0818 10.4258 16.8004 10.2746 16.6457 10.0074L14.3561 6.08752C14.1205 5.68674 14.2577 5.16994 14.6586 4.93438C15.0595 4.69882 15.5765 4.83592 15.8122 5.23671L18.1017 9.15666C18.3374 9.55744 18.2002 10.0742 17.7993 10.3098C17.6621 10.3906 17.5179 10.4258 17.3737 10.4258L17.3737 10.4258Z" fill="#646464" stroke="#646464" stroke-width="2"/>
<path fill-rule="evenodd" clip-rule="evenodd" d="M9.43939 18.4695C9.2987 18.4695 9.15804 18.4343 9.02437 18.3605L5.06778 16.1281C4.66331 15.8996 4.51913 15.3828 4.74772 14.9785C4.97631 14.5742 5.49331 14.4301 5.89777 14.6586L9.85436 16.891C10.2588 17.1195 10.403 17.6363 10.1744 18.0406C10.0232 18.3148 9.73481 18.4695 9.43939 18.4695Z" fill="#646464" stroke="#646464" stroke-width="2"/>
<path fill-rule="evenodd" clip-rule="evenodd" d="M2.10626 29.4735C1.64555 29.4735 1.2692 29.1043 1.26218 28.6403C1.25516 28.1727 1.62793 27.7895 2.0957 27.786L6.63609 27.7227C7.10033 27.7157 7.48718 28.0883 7.49071 28.5559C7.49424 29.0235 7.12496 29.4067 6.65719 29.4102L2.11676 29.477C2.11681 29.4735 2.10974 29.4735 2.10625 29.4735H2.10626Z" fill="#646464" stroke="#646464" stroke-width="2"/>
<path fill-rule="evenodd" clip-rule="evenodd" d="M5.86554 42.6114C5.58067 42.6114 5.29933 42.4673 5.14106 42.2036C4.90192 41.8063 5.02853 41.286 5.42947 41.047L9.31922 38.702C9.71662 38.463 10.2371 38.5895 10.4763 38.9903C10.7154 39.3876 10.5888 39.9079 10.1879 40.1469L6.29813 42.4919C6.1645 42.5727 6.01325 42.6114 5.86554 42.6114H5.86554Z" fill="#646464" stroke="#646464" stroke-width="2"/>
<path fill-rule="evenodd" clip-rule="evenodd" d="M15.7341 52.0614C15.5969 52.0614 15.4598 52.0297 15.3296 51.9594C14.9217 51.7344 14.7704 51.2247 14.992 50.8133L17.169 46.8266C17.3941 46.4188 17.9041 46.2676 18.3155 46.4891C18.7235 46.7141 18.8747 47.2239 18.6532 47.6352L16.4761 51.6219C16.3249 51.9032 16.033 52.0614 15.7341 52.0614H15.7341Z" fill="#646464" stroke="#646464" stroke-width="2"/>
<path fill-rule="evenodd" clip-rule="evenodd" d="M29.0286 55.25C28.575 55.25 28.1986 54.8879 28.1846 54.4309L28.0545 49.8922C28.0404 49.4281 28.4096 49.0379 28.8739 49.0238C28.8809 49.0238 28.8914 49.0238 28.8985 49.0238C29.3522 49.0238 29.7285 49.386 29.7426 49.843L29.8727 54.3817C29.8868 54.8457 29.5175 55.236 29.0533 55.25C29.0427 55.25 29.0357 55.25 29.0286 55.25Z" fill="#646464" stroke="#646464" stroke-width="2"/>
<path fill-rule="evenodd" clip-rule="evenodd" d="M42.1151 51.3054C41.8338 51.3054 41.5595 51.1648 41.3977 50.9082L38.9956 47.055C38.7494 46.6612 38.869 46.1374 39.2664 45.8913C39.6603 45.6452 40.1843 45.7647 40.4305 46.162L42.8326 50.0152C43.0788 50.4089 42.9592 50.9327 42.5618 51.1788C42.4211 51.2632 42.2664 51.3054 42.1151 51.3054Z" fill="#646464" stroke="#646464" stroke-width="2"/>
<path fill-rule="evenodd" clip-rule="evenodd" d="M51.4245 41.3035C51.2909 41.3035 51.1572 41.2719 51.0306 41.2051L47.0143 39.0887C46.6028 38.8707 46.4445 38.3609 46.6626 37.9496C46.8806 37.5383 47.3906 37.3801 47.8021 37.598L51.8184 39.7144C52.2299 39.9324 52.3882 40.4422 52.1701 40.8535C52.0224 41.1383 51.727 41.3035 51.4245 41.3035Z" fill="#646464" stroke="#646464" stroke-width="2"/>
<path fill-rule="evenodd" clip-rule="evenodd" d="M49.8837 28.1692C49.4335 28.1692 49.0607 27.8142 49.0396 27.3607C49.0185 26.8966 49.3808 26.5029 49.845 26.4818L54.3819 26.2849C54.8462 26.2638 55.2401 26.6259 55.2612 27.09C55.2823 27.5541 54.92 27.9478 54.4558 27.9689L49.9189 28.1658C49.9083 28.1692 49.8977 28.1692 49.8837 28.1692Z" fill="#646464" stroke="#646464" stroke-width="2"/>
<path fill-rule="evenodd" clip-rule="evenodd" d="M46.4692 17.4042C46.1913 17.4042 45.9205 17.2671 45.7587 17.0175C45.5055 16.6273 45.6216 16.1035 46.0119 15.8504L49.8314 13.3965C50.2253 13.1433 50.7458 13.2593 50.999 13.6496C51.2522 14.0398 51.1362 14.5636 50.7458 14.8168L46.9263 17.2706C46.7857 17.362 46.6274 17.4042 46.4692 17.4042Z" fill="#646464" stroke="#646464" stroke-width="2"/>
<path fill-rule="evenodd" clip-rule="evenodd" d="M38.0881 9.83164C37.958 9.83164 37.8279 9.80353 37.7048 9.74024C37.2897 9.52931 37.1245 9.01953 37.3355 8.60472L39.3964 4.55825C39.6074 4.14339 40.1174 3.97817 40.5324 4.1891C40.9474 4.40004 41.1127 4.90982 40.9017 5.32463L38.8407 9.37106C38.693 9.66289 38.3976 9.83164 38.0881 9.83164L38.0881 9.83164Z" fill="#646464" stroke="#646464" stroke-width="2"/>
</svg>
