<svg width="57" height="57" viewBox="0 0 57 57" fill="none" xmlns="http://www.w3.org/2000/svg">
<path fill-rule="evenodd" clip-rule="evenodd" d="M28.2946 45.3816C25.9834 45.3816 23.7391 44.9281 21.6284 44.0351C19.588 43.1738 17.7553 41.9398 16.1828 40.3684C14.6103 38.7969 13.3756 36.9652 12.5137 34.9262C11.6202 32.8168 11.1664 30.5738 11.1664 28.2641C11.1664 25.9543 11.6202 23.7114 12.5137 21.602C13.3756 19.5629 14.6103 17.7313 16.1828 16.1598C17.7553 14.5883 19.588 13.3543 21.6284 12.493C23.7391 11.6001 25.9834 11.1465 28.2946 11.1465C30.6058 11.1465 32.8501 11.6001 34.9608 12.493C37.0012 13.3543 38.8339 14.5883 40.4064 16.1598C41.9788 17.7313 43.2136 19.5629 44.0754 21.602C44.969 23.7114 45.4227 25.9543 45.4227 28.2641C45.4227 30.5738 44.969 32.8168 44.0754 34.9262C43.2136 36.9652 41.9788 38.7969 40.4064 40.3684C38.8339 41.9398 37.0012 43.1738 34.9608 44.0351C32.8501 44.9281 30.6093 45.3816 28.2946 45.3816ZM28.2946 12.8305C26.2086 12.8305 24.1893 13.2383 22.2862 14.0434C20.4463 14.8203 18.7965 15.9348 17.3788 17.3515C15.9611 18.7684 14.846 20.4207 14.0686 22.2558C13.263 24.1578 12.8549 26.1793 12.8549 28.2605C12.8549 30.3418 13.263 32.3633 14.0686 34.2652C14.846 36.1039 15.9612 37.7527 17.3788 39.1695C18.7965 40.5864 20.4499 41.7008 22.2862 42.4777C24.1893 43.2828 26.212 43.6906 28.2946 43.6906C30.3772 43.6906 32.3999 43.2828 34.303 42.4777C36.1429 41.7008 37.7927 40.5863 39.2104 39.1695C40.6281 37.7527 41.7432 36.1004 42.5206 34.2652C43.3262 32.3633 43.7343 30.3418 43.7343 28.2605C43.7343 26.1793 43.3262 24.1578 42.5206 22.2558C41.7432 20.4171 40.628 18.7684 39.2104 17.3515C37.7927 15.9347 36.1393 14.8203 34.303 14.0434C32.4034 13.2383 30.3806 12.8305 28.2946 12.8305Z" fill="#646464" stroke="#646464" stroke-width="2"/>
<path fill-rule="evenodd" clip-rule="evenodd" d="M28.2944 5.22617C27.8265 5.22617 27.4501 4.85001 27.4501 4.38242V2.09375C27.4501 1.62616 27.8265 1.25 28.2944 1.25C28.7623 1.25 29.1387 1.62616 29.1387 2.09375V4.38242C29.1387 4.84648 28.7622 5.22617 28.2944 5.22617Z" fill="#646464" stroke="#646464" stroke-width="2"/>
<path fill-rule="evenodd" clip-rule="evenodd" d="M16.1968 8.51331C15.9083 8.51331 15.6269 8.36565 15.4686 8.09496L14.3077 6.12269C14.072 5.72191 14.2057 5.20512 14.6067 4.96955C15.0078 4.73399 15.5249 4.86761 15.7606 5.26839L16.9215 7.24066C17.1572 7.64144 17.0235 8.15824 16.6224 8.3938C16.4888 8.47813 16.341 8.5133 16.1968 8.5133L16.1968 8.51331Z" fill="#646464" stroke="#646464" stroke-width="2"/>
<path fill-rule="evenodd" clip-rule="evenodd" d="M7.42651 17.4711C7.28579 17.4711 7.1451 17.4359 7.01493 17.3656L5.01684 16.2512C4.60879 16.0227 4.46453 15.5094 4.68968 15.1016C4.91484 14.6938 5.43195 14.5496 5.84001 14.7746L7.83814 15.8891C8.24619 16.1176 8.39045 16.6309 8.16529 17.0387C8.01048 17.3164 7.72201 17.4711 7.42651 17.4711H7.42651Z" fill="#646464" stroke="#646464" stroke-width="2"/>
<path fill-rule="evenodd" clip-rule="evenodd" d="M2.11464 29.6843C1.65731 29.6843 1.28092 29.3187 1.27036 28.8582C1.25981 28.3906 1.62918 28.0074 2.09706 27.9968L4.38715 27.9476C4.8515 27.9371 5.23845 28.3062 5.249 28.7738C5.25956 29.2414 4.89019 29.6246 4.42231 29.6351L2.13221 29.6843C2.12868 29.6843 2.12166 29.6843 2.11464 29.6843H2.11464Z" fill="#646464" stroke="#646464" stroke-width="2"/>
<path fill-rule="evenodd" clip-rule="evenodd" d="M6.01554 42.8539C5.73413 42.8539 5.45621 42.7133 5.29791 42.4532C5.05165 42.0559 5.1748 41.5356 5.5723 41.293L7.52115 40.0907C7.91865 39.8446 8.4393 39.9676 8.68203 40.3649C8.92829 40.7621 8.80514 41.2825 8.40764 41.525L6.45879 42.7274C6.31806 42.8118 6.16682 42.8539 6.01554 42.8539Z" fill="#646464" stroke="#646464" stroke-width="2"/>
<path fill-rule="evenodd" clip-rule="evenodd" d="M16.0452 52.2371C15.9115 52.2371 15.7778 52.2055 15.6512 52.1387C15.2396 51.9207 15.0813 51.4109 15.2994 50.9996L16.3688 48.9781C16.5869 48.5668 17.097 48.4086 17.5086 48.6266C17.9201 48.8445 18.0784 49.3543 17.8604 49.7656L16.7909 51.7871C16.6396 52.0719 16.3477 52.2371 16.0452 52.2371Z" fill="#646464" stroke="#646464" stroke-width="2"/>
<path fill-rule="evenodd" clip-rule="evenodd" d="M29.4512 55.25C29.0009 55.25 28.628 54.8949 28.6069 54.4449L28.5049 52.1598C28.4838 51.6957 28.8461 51.2985 29.3105 51.2809C29.7748 51.2598 30.1723 51.6219 30.19 52.086L30.292 54.3711C30.3131 54.8352 29.9507 55.2324 29.4864 55.25C29.4758 55.25 29.4653 55.25 29.4512 55.25Z" fill="#646464" stroke="#646464" stroke-width="2"/>
<path fill-rule="evenodd" clip-rule="evenodd" d="M42.5413 51.0664C42.2634 51.0664 41.9925 50.9293 41.8307 50.6832L40.5854 48.7636C40.3321 48.3734 40.4446 47.8496 40.8351 47.5965C41.2256 47.3433 41.7497 47.4558 42.003 47.8461L43.2483 49.7656C43.5016 50.1558 43.389 50.6796 42.9986 50.9328C42.8579 51.0207 42.6961 51.0664 42.5413 51.0664H42.5413Z" fill="#646464" stroke="#646464" stroke-width="2"/>
<path fill-rule="evenodd" clip-rule="evenodd" d="M51.7011 40.8324C51.5744 40.8324 51.4443 40.8043 51.3247 40.7445L49.2773 39.718C48.8622 39.5105 48.6934 39.0008 48.9009 38.5859C49.1085 38.171 49.6186 38.0023 50.0337 38.2097L52.081 39.2363C52.4962 39.4437 52.665 39.9535 52.4574 40.3684C52.3097 40.6637 52.0107 40.8324 51.7011 40.8324Z" fill="#646464" stroke="#646464" stroke-width="2"/>
<path fill-rule="evenodd" clip-rule="evenodd" d="M52.1373 27.5259C51.6976 27.5259 51.3247 27.1848 51.2965 26.7384C51.2649 26.2743 51.6167 25.87 52.0845 25.8419L54.3711 25.6907C54.8354 25.6591 55.24 26.0106 55.2681 26.4782C55.2998 26.9423 54.948 27.3466 54.4801 27.3747L52.1936 27.5259C52.176 27.5223 52.1549 27.5259 52.1373 27.5259Z" fill="#646464" stroke="#646464" stroke-width="2"/>
<path fill-rule="evenodd" clip-rule="evenodd" d="M48.0538 15.6781C47.7829 15.6781 47.5191 15.548 47.3537 15.309C47.0899 14.9223 47.1919 14.3984 47.5753 14.1383L49.4679 12.8516C49.8549 12.5879 50.3791 12.6898 50.6394 13.073C50.9032 13.4597 50.8012 13.9836 50.4177 14.2437L48.5251 15.5305C48.3845 15.6289 48.2191 15.6781 48.0538 15.6781Z" fill="#646464" stroke="#646464" stroke-width="2"/>
<path fill-rule="evenodd" clip-rule="evenodd" d="M38.527 7.5254C38.4074 7.5254 38.2843 7.50078 38.1646 7.44455C37.7425 7.24416 37.5631 6.74144 37.7636 6.31957L38.7451 4.25238C38.9456 3.83051 39.4486 3.65121 39.8708 3.8516C40.2929 4.05199 40.4723 4.55471 40.2718 4.97658L39.2903 7.04377C39.1461 7.34963 38.8436 7.5254 38.527 7.5254H38.527Z" fill="#646464" stroke="#646464" stroke-width="2"/>
</svg>
