<svg width="30" height="25" viewBox="0 0 30 25" fill="none" xmlns="http://www.w3.org/2000/svg">
<path d="M2.10352 14.0351V23.0263C2.10352 23.1474 2.22142 23.2456 2.36669 23.2456H5.52479V22.807H2.62987V14.0351H2.10352Z" fill="#333333"/>
<path d="M1.8334 13.5084L5.62786 12.1531L5.42048 11.75L1.62655 13.1049C1.23915 13.2417 0.755437 13.0838 0.587531 12.761C0.419099 12.4277 0.605427 12.0386 1.00177 11.8948L5.62839 10.2413L5.42048 9.8382L0.792808 11.4921C0.132238 11.7321 -0.177256 12.3781 0.103815 12.9342C0.392255 13.4873 1.1602 13.7461 1.8334 13.5084Z" fill="#333333"/>
<path d="M20.1587 10.2413L24.7843 11.8943C25.1822 12.0386 25.3685 12.4277 25.2006 12.7592C25.0306 13.0847 24.5453 13.2413 24.1616 13.1057L20.3666 11.7505L20.1592 12.1535L23.9547 13.5092C24.6195 13.7435 25.3917 13.4939 25.6843 12.9321C25.9643 12.3781 25.6548 11.7321 24.9932 11.4917L20.3666 9.8382L20.1587 10.2413Z" fill="#333333"/>
<path d="M6.31445 9.64911V23.0263C6.31445 23.1474 6.43236 23.2456 6.57763 23.2456C11.2621 23.2456 12.4222 23.2456 17.1046 23.2456C17.2499 23.2456 17.3678 23.1474 17.3678 23.0263V21.7105C17.3678 21.3478 17.0136 21.0526 16.5783 21.0526H9.20938C8.77409 21.0526 8.41986 21.3478 8.41986 21.7105V22.807H6.8408V9.64911H6.31445ZM8.94621 21.7105C8.94621 21.5895 9.06411 21.4912 9.20938 21.4912H16.5783C16.7236 21.4912 16.8415 21.5895 16.8415 21.7105V22.807H8.94621V21.7105Z" fill="#333333"/>
<path d="M19.4731 9.64911H18.9468V13.3772H19.4731V9.64911Z" fill="#333333"/>
<path d="M16.5781 16.2281H17.1045V15.7895H16.5781C16.1428 15.7895 15.7886 16.0847 15.7886 16.4474V17.3246C15.7886 17.6873 16.1428 17.9825 16.5781 17.9825H17.1045V17.5439H16.5781C16.4328 17.5439 16.3149 17.4456 16.3149 17.3246V16.4474C16.3149 16.3263 16.4328 16.2281 16.5781 16.2281Z" fill="#333333"/>
<path d="M15.7886 19.9562C15.7886 20.3189 16.1428 20.6141 16.5781 20.6141H17.1045V20.1755H16.5781C16.4328 20.1755 16.3149 20.0772 16.3149 19.9562V19.079C16.3149 18.9579 16.4328 18.8597 16.5781 18.8597H17.1045V18.4211H16.5781C16.1428 18.4211 15.7886 18.7163 15.7886 19.079V19.9562Z" fill="#333333"/>
<path d="M7.36719 17.3246C7.36719 17.6873 7.72142 17.9825 8.15671 17.9825H9.20941C9.64471 17.9825 9.99894 17.6873 9.99894 17.3246V16.4474C9.99894 16.0847 9.64471 15.7895 9.20941 15.7895H8.15671C7.72142 15.7895 7.36719 16.0847 7.36719 16.4474V17.3246ZM7.89354 16.4474C7.89354 16.3263 8.01144 16.2281 8.15671 16.2281H9.20941C9.35469 16.2281 9.47259 16.3263 9.47259 16.4474V17.3246C9.47259 17.4456 9.35469 17.5439 9.20941 17.5439H8.15671C8.01144 17.5439 7.89354 17.4456 7.89354 17.3246V16.4474Z" fill="#333333"/>
<path d="M7.36719 19.9562C7.36719 20.3189 7.72142 20.6141 8.15671 20.6141H9.20941C9.64471 20.6141 9.99894 20.3189 9.99894 19.9562V19.079C9.99894 18.7163 9.64471 18.4211 9.20941 18.4211H8.15671C7.72142 18.4211 7.36719 18.7163 7.36719 19.079V19.9562ZM7.89354 19.079C7.89354 18.9579 8.01144 18.8597 8.15671 18.8597H9.20941C9.35469 18.8597 9.47259 18.9579 9.47259 19.079V19.9562C9.47259 20.0772 9.35469 20.1755 9.20941 20.1755H8.15671C8.01144 20.1755 7.89354 20.0772 7.89354 19.9562V19.079Z" fill="#333333"/>
<path d="M6.04251 9.12193L12.8935 6.67544L19.7445 9.12193C20.4092 9.35965 21.1846 9.10526 21.4719 8.54605C21.7583 7.98947 21.4498 7.34474 20.7809 7.10658L13.4119 4.475C13.3293 4.44561 13.244 4.42325 13.1567 4.40877V3.07018H16.0516C16.6922 3.07018 17.0485 2.47149 16.7174 2.05965L16.3553 1.53509L16.7085 1.02281C17.058 0.585965 16.6811 0 16.0516 0H12.8935C12.7482 0 12.6303 0.0982456 12.6303 0.219298C12.6303 1.69254 12.6303 2.87675 12.6303 4.40833C12.5435 4.42325 12.4577 4.44518 12.3756 4.47456L5.00665 7.10614C4.33818 7.3443 4.02869 7.9886 4.31555 8.54561C4.60031 9.10088 5.3751 9.35921 6.04251 9.12193ZM16.2616 0.791667L15.8237 1.42544C15.7768 1.49298 15.7768 1.57675 15.8237 1.6443L16.2706 2.29035C16.3874 2.43684 16.2621 2.63158 16.0516 2.63158H13.1567V0.438597H16.0516C16.2542 0.438597 16.3948 0.623246 16.2616 0.791667ZM5.21351 7.50921L12.5824 4.87763C12.7798 4.80702 13.0061 4.80658 13.204 4.87763L20.5729 7.50921C20.9745 7.65263 21.1593 8.0386 20.9877 8.37325C20.8214 8.69781 20.3461 8.85965 19.9508 8.71886L12.9967 6.23509C12.933 6.21228 12.8577 6.21053 12.7893 6.23509L5.83513 8.71842C5.43457 8.86184 4.96928 8.70614 4.79822 8.37281C4.62715 8.0386 4.8119 7.65263 5.21351 7.50921Z" fill="#333333"/>
<path d="M10.5249 16.886V20.3948H11.0513V16.886C11.0513 16.7649 11.1692 16.6667 11.3144 16.6667H14.4725C14.6178 16.6667 14.7357 16.7649 14.7357 16.886V20.3948H15.2621V16.886C15.2621 16.5233 14.9078 16.2281 14.4725 16.2281H11.3144C10.8791 16.2281 10.5249 16.5233 10.5249 16.886Z" fill="#333333"/>
<path d="M8.15671 12.7193H9.20941C9.64471 12.7193 9.99894 12.4241 9.99894 12.0614V11.1842C9.99894 10.8215 9.64471 10.5263 9.20941 10.5263H8.15671C7.72142 10.5263 7.36719 10.8215 7.36719 11.1842V12.0614C7.36719 12.4241 7.72142 12.7193 8.15671 12.7193ZM7.89354 11.1842C7.89354 11.0631 8.01144 10.9649 8.15671 10.9649H9.20941C9.35469 10.9649 9.47259 11.0631 9.47259 11.1842V12.0614C9.47259 12.1824 9.35469 12.2807 9.20941 12.2807H8.15671C8.01144 12.2807 7.89354 12.1824 7.89354 12.0614V11.1842Z" fill="#333333"/>
<path d="M7.36719 14.693C7.36719 15.0557 7.72142 15.3509 8.15671 15.3509H9.20941C9.64471 15.3509 9.99894 15.0557 9.99894 14.693V13.8158C9.99894 13.4531 9.64471 13.1579 9.20941 13.1579H8.15671C7.72142 13.1579 7.36719 13.4531 7.36719 13.8158V14.693ZM7.89354 13.8158C7.89354 13.6947 8.01144 13.5965 8.15671 13.5965H9.20941C9.35469 13.5965 9.47259 13.6947 9.47259 13.8158V14.693C9.47259 14.814 9.35469 14.9123 9.20941 14.9123H8.15671C8.01144 14.9123 7.89354 14.814 7.89354 14.693V13.8158Z" fill="#333333"/>
<path d="M3.94578 16.2281H4.99848C5.43377 16.2281 5.788 15.9329 5.788 15.5702V14.693C5.788 14.3303 5.43377 14.0351 4.99848 14.0351H3.94578C3.51048 14.0351 3.15625 14.3303 3.15625 14.693V15.5702C3.15625 15.9329 3.51048 16.2281 3.94578 16.2281ZM3.6826 14.693C3.6826 14.5719 3.8005 14.4737 3.94578 14.4737H4.99848C5.14375 14.4737 5.26165 14.5719 5.26165 14.693V15.5702C5.26165 15.6912 5.14375 15.7895 4.99848 15.7895H3.94578C3.8005 15.7895 3.6826 15.6912 3.6826 15.5702V14.693Z" fill="#333333"/>
<path d="M3.15625 18.2018C3.15625 18.5645 3.51048 18.8597 3.94578 18.8597H4.99848C5.43377 18.8597 5.788 18.5645 5.788 18.2018V17.3246C5.788 16.9619 5.43377 16.6667 4.99848 16.6667H3.94578C3.51048 16.6667 3.15625 16.9619 3.15625 17.3246V18.2018ZM3.6826 17.3246C3.6826 17.2035 3.8005 17.1053 3.94578 17.1053H4.99848C5.14375 17.1053 5.26165 17.2035 5.26165 17.3246V18.2018C5.26165 18.3228 5.14375 18.4211 4.99848 18.4211H3.94578C3.8005 18.4211 3.6826 18.3228 3.6826 18.2018V17.3246Z" fill="#333333"/>
<path d="M3.15625 20.8333C3.15625 21.196 3.51048 21.4912 3.94578 21.4912H4.99848C5.43377 21.4912 5.788 21.196 5.788 20.8333V19.9561C5.788 19.5934 5.43377 19.2982 4.99848 19.2982H3.94578C3.51048 19.2982 3.15625 19.5934 3.15625 19.9561V20.8333ZM3.6826 19.9561C3.6826 19.8351 3.8005 19.7368 3.94578 19.7368H4.99848C5.14375 19.7368 5.26165 19.8351 5.26165 19.9561V20.8333C5.26165 20.9544 5.14375 21.0526 4.99848 21.0526H3.94578C3.8005 21.0526 3.6826 20.9544 3.6826 20.8333V19.9561Z" fill="#333333"/>
<path d="M11.5776 14.693C11.5776 15.0557 11.9319 15.3509 12.3672 15.3509H13.4199C13.8552 15.3509 14.2094 15.0557 14.2094 14.693V13.8158C14.2094 13.4531 13.8552 13.1579 13.4199 13.1579H12.3672C11.9319 13.1579 11.5776 13.4531 11.5776 13.8158V14.693ZM12.104 13.8158C12.104 13.6947 12.2219 13.5965 12.3672 13.5965H13.4199C13.5651 13.5965 13.683 13.6947 13.683 13.8158V14.693C13.683 14.814 13.5651 14.9123 13.4199 14.9123H12.3672C12.2219 14.9123 12.104 14.814 12.104 14.693V13.8158Z" fill="#333333"/>
<path d="M11.5776 12.0614C11.5776 12.4241 11.9319 12.7193 12.3672 12.7193H13.4199C13.8552 12.7193 14.2094 12.4241 14.2094 12.0614V11.1842C14.2094 10.8215 13.8552 10.5263 13.4199 10.5263H12.3672C11.9319 10.5263 11.5776 10.8215 11.5776 11.1842V12.0614ZM12.104 11.1842C12.104 11.0631 12.2219 10.9649 12.3672 10.9649H13.4199C13.5651 10.9649 13.683 11.0631 13.683 11.1842V12.0614C13.683 12.1824 13.5651 12.2807 13.4199 12.2807H12.3672C12.2219 12.2807 12.104 12.1824 12.104 12.0614V11.1842Z" fill="#333333"/>
<path d="M17.6308 12.7193C18.0661 12.7193 18.4203 12.4241 18.4203 12.0614V11.1842C18.4203 10.8215 18.0661 10.5263 17.6308 10.5263H16.5781C16.1428 10.5263 15.7886 10.8215 15.7886 11.1842V12.0614C15.7886 12.4241 16.1428 12.7193 16.5781 12.7193H17.6308ZM16.3149 12.0614V11.1842C16.3149 11.0631 16.4328 10.9649 16.5781 10.9649H17.6308C17.7761 10.9649 17.894 11.0631 17.894 11.1842V12.0614C17.894 12.1824 17.7761 12.2807 17.6308 12.2807H16.5781C16.4328 12.2807 16.3149 12.1824 16.3149 12.0614Z" fill="#333333"/>
<path d="M17.894 16.0088C17.894 17.9132 17.894 19.3676 17.894 21.2719C17.894 23.3276 19.901 25 22.368 25C24.835 25 26.842 23.3276 26.842 21.2719C26.842 19.3676 26.842 17.9132 26.842 16.0088H26.3157V18.4211H18.4204V16.0088H17.894ZM26.3157 18.8597V21.2719C26.3157 23.086 24.545 24.5614 22.368 24.5614C20.191 24.5614 18.4204 23.086 18.4204 21.2719V18.8597H26.3157Z" fill="#333333"/>
<path d="M14.7358 14.693C14.7358 15.0557 15.0901 15.3509 15.5254 15.3509H28.421V19.3206C27.8209 19.4224 27.3683 19.8654 27.3683 20.3947V21.7105C27.3683 22.0733 27.7225 22.3684 28.1578 22.3684H29.2105C29.6458 22.3684 30 22.0733 30 21.7105V20.3947C30 19.8654 29.5473 19.4224 28.9473 19.3206V15.3509H29.2105C29.6458 15.3509 30 15.0557 30 14.693C30 14.3303 29.6458 14.0351 29.2105 14.0351H15.5254C15.0901 14.0351 14.7358 14.3303 14.7358 14.693ZM29.4737 20.3947V21.7105C29.4737 21.8316 29.3558 21.9298 29.2105 21.9298H28.1578C28.0125 21.9298 27.8946 21.8316 27.8946 21.7105V20.3947C27.8946 20.032 28.2488 19.7368 28.6841 19.7368C29.1194 19.7368 29.4737 20.032 29.4737 20.3947ZM29.4737 14.693C29.4737 14.814 29.3558 14.9123 29.2105 14.9123H15.5254C15.3801 14.9123 15.2622 14.814 15.2622 14.693C15.2622 14.5719 15.3801 14.4737 15.5254 14.4737H29.2105C29.3558 14.4737 29.4737 14.5719 29.4737 14.693Z" fill="#333333"/>
<path d="M12.8935 9.6491C13.6188 9.6491 14.2094 9.15699 14.2094 8.55261C14.2094 7.94822 13.6188 7.45612 12.8935 7.45612C12.1682 7.45612 11.5776 7.94822 11.5776 8.55261C11.5776 9.15699 12.1682 9.6491 12.8935 9.6491ZM12.8935 7.89471C13.3288 7.89471 13.683 8.18989 13.683 8.55261C13.683 8.91533 13.3288 9.2105 12.8935 9.2105C12.4582 9.2105 12.104 8.91533 12.104 8.55261C12.104 8.18989 12.4582 7.89471 12.8935 7.89471Z" fill="#333333"/>
<path d="M22.3676 23.2456C23.3835 23.2456 24.2098 22.557 24.2098 21.7105C24.2098 21.3478 23.8556 21.0526 23.4203 21.0526H21.3149C20.8796 21.0526 20.5254 21.3478 20.5254 21.7105C20.5254 22.557 21.3518 23.2456 22.3676 23.2456ZM21.3149 21.4912H23.4203C23.5656 21.4912 23.6835 21.5895 23.6835 21.7105C23.6835 22.3149 23.0929 22.807 22.3676 22.807C21.6423 22.807 21.0517 22.3149 21.0517 21.7105C21.0517 21.5895 21.1696 21.4912 21.3149 21.4912Z" fill="#333333"/>
<path d="M19.7363 20.3947C20.027 20.3947 20.2627 20.1983 20.2627 19.9561C20.2627 19.7139 20.027 19.5175 19.7363 19.5175C19.4456 19.5175 19.21 19.7139 19.21 19.9561C19.21 20.1983 19.4456 20.3947 19.7363 20.3947Z" fill="#333333"/>
<path d="M24.9995 20.3947C25.2902 20.3947 25.5258 20.1983 25.5258 19.9561C25.5258 19.7139 25.2902 19.5175 24.9995 19.5175C24.7088 19.5175 24.4731 19.7139 24.4731 19.9561C24.4731 20.1983 24.7088 20.3947 24.9995 20.3947Z" fill="#333333"/>
</svg>
