<svg width="30" height="25" viewBox="0 0 30 25" fill="none" xmlns="http://www.w3.org/2000/svg">
<path d="M28.9995 6.9944L16.672 0.410237C16.1572 0.141333 15.5756 0 14.9839 0C14.3922 0 13.8106 0.141333 13.2957 0.410237L0.968205 6.9944C0.673515 7.15343 0.429089 7.38084 0.259231 7.65402C0.0893725 7.9272 0 8.23664 0 8.55156C0 8.86648 0.0893725 9.17592 0.259231 9.4491C0.429089 9.72228 0.673515 9.94969 0.968205 10.1087L3.56647 11.5243V18.2599C3.56551 18.6062 3.66326 18.9467 3.84994 19.2471C4.03661 19.5476 4.30564 19.7975 4.63005 19.9718L13.2957 24.5807C13.8085 24.8553 14.3909 25 14.9839 25C15.5768 25 16.1592 24.8553 16.672 24.5807L25.3377 19.9718C25.6634 19.7983 25.9339 19.5488 26.1218 19.2483C26.3098 18.9477 26.4086 18.6069 26.4084 18.2599V11.5243L28.9995 10.1351C29.3028 9.97923 29.5555 9.75151 29.7314 9.47543C29.9073 9.19936 30 8.88495 30 8.56473C30 8.24451 29.9073 7.9301 29.7314 7.65402C29.5555 7.37795 29.3028 7.15022 28.9995 6.9944ZM24.9808 18.2599C24.9813 18.3759 24.9485 18.49 24.8859 18.5906C24.8232 18.6912 24.7328 18.7747 24.6239 18.8327L15.9582 23.4417C15.6611 23.5969 15.3254 23.6785 14.9839 23.6785C14.6424 23.6785 14.3067 23.5969 14.0095 23.4417L5.351 18.8327C5.24207 18.7747 5.15169 18.6912 5.08902 18.5906C5.02634 18.49 4.9936 18.3759 4.99409 18.2599V12.2617L13.2957 16.6929C13.8085 16.9675 14.3909 17.1122 14.9839 17.1122C15.5768 17.1122 16.1592 16.9675 16.672 16.6929L22.1255 13.7827V17.1143C22.1255 17.2889 22.2007 17.4564 22.3346 17.5798C22.4685 17.7033 22.65 17.7727 22.8393 17.7727C23.0287 17.7727 23.2102 17.7033 23.3441 17.5798C23.478 17.4564 23.5532 17.2889 23.5532 17.1143V13.0255L24.9808 12.2617V18.2599ZM28.2857 8.96966L22.9607 11.814L15.3301 7.97544C15.2476 7.93373 15.1571 7.90745 15.0636 7.89812C14.9701 7.88878 14.8755 7.89657 14.7853 7.92105C14.6951 7.94552 14.6111 7.98619 14.5379 8.04072C14.4648 8.09525 14.4041 8.16257 14.3593 8.23881C14.3141 8.31485 14.2856 8.39838 14.2754 8.48461C14.2653 8.57084 14.2738 8.65806 14.3003 8.74127C14.3268 8.82447 14.3709 8.90202 14.4301 8.96947C14.4892 9.03691 14.5622 9.09291 14.6448 9.13426L21.5117 12.5909L15.9582 15.5538C15.6611 15.709 15.3254 15.7906 14.9839 15.7906C14.6424 15.7906 14.3067 15.709 14.0095 15.5538L1.68202 8.96966C1.60365 8.9264 1.53878 8.86515 1.49374 8.79187C1.4487 8.71859 1.42502 8.6358 1.42502 8.55156C1.42502 8.46732 1.4487 8.38453 1.49374 8.31125C1.53878 8.23797 1.60365 8.17672 1.68202 8.13346L14.0095 1.5493C14.306 1.39218 14.6419 1.3095 14.9839 1.3095C15.3258 1.3095 15.6617 1.39218 15.9582 1.5493L28.2857 8.13346C28.3659 8.1754 28.4326 8.23618 28.4789 8.30963C28.5253 8.38308 28.5498 8.46656 28.5498 8.55156C28.5498 8.63656 28.5253 8.72004 28.4789 8.79349C28.4326 8.86694 28.3659 8.92772 28.2857 8.96966Z" fill="#585757"/>
</svg>
