<svg width="25" height="28" viewBox="0 0 25 28" fill="none" xmlns="http://www.w3.org/2000/svg">
<path d="M17.7893 27.6301H3.26136C2.3964 27.6301 1.56686 27.2582 0.955232 26.5962C0.343607 25.9343 0 25.0365 0 24.1004L0 8.42861C0 7.49248 0.343607 6.59469 0.955232 5.93274C1.56686 5.2708 2.3964 4.89893 3.26136 4.89893H10.4957C10.7316 4.89893 10.9578 5.00035 11.1246 5.18088C11.2914 5.36141 11.3851 5.60626 11.3851 5.86157C11.3851 6.11687 11.2914 6.36173 11.1246 6.54226C10.9578 6.72279 10.7316 6.82421 10.4957 6.82421H3.26136C2.8682 6.82421 2.49113 6.99324 2.21312 7.29412C1.93511 7.59501 1.77893 8.00309 1.77893 8.42861V24.1004C1.78203 24.5249 1.93921 24.931 2.21655 25.2312C2.49389 25.5313 2.86916 25.7014 3.26136 25.7048H17.7893C18.1815 25.7014 18.5567 25.5313 18.8341 25.2312C19.1114 24.931 19.2686 24.5249 19.2717 24.1004V16.2581C19.2717 16.0028 19.3654 15.7579 19.5322 15.5774C19.699 15.3969 19.9253 15.2954 20.1612 15.2954C20.3971 15.2954 20.6233 15.3969 20.7901 15.5774C20.9569 15.7579 21.0506 16.0028 21.0506 16.2581V24.1004C21.0475 25.0355 20.7029 25.9313 20.0919 26.5925C19.481 27.2537 18.6533 27.6267 17.7893 27.6301Z" fill="#585757"/>
<path d="M8.30161 20.2626C8.10506 20.2681 7.90947 20.2312 7.72623 20.154C7.54298 20.0769 7.37574 19.9611 7.23425 19.8134C7.07823 19.6481 6.95878 19.4468 6.88484 19.2246C6.81091 19.0023 6.7844 18.7648 6.80731 18.5298L7.11565 15.1029C7.16278 14.5789 7.37657 14.0889 7.72049 13.7167L19.2361 1.2152C19.6271 0.795089 20.1557 0.559326 20.7067 0.559326C21.2576 0.559326 21.7863 0.795089 22.1772 1.2152L24.395 3.62822C24.7824 4.04919 25 4.61917 25 5.21336C25 5.80754 24.7824 6.37752 24.395 6.7985L12.8438 19.3C12.4998 19.6722 12.0471 19.9035 11.563 19.9545L8.40834 20.2626H8.30161ZM8.88272 15.2825L8.63367 18.3116L11.4325 18.0293C11.5035 18.0239 11.5705 17.9922 11.6223 17.9394L23.1379 5.43797C23.1662 5.40917 23.1888 5.37437 23.2043 5.33574C23.2197 5.29711 23.2277 5.25546 23.2277 5.21336C23.2277 5.17126 23.2197 5.12961 23.2043 5.09098C23.1888 5.05235 23.1662 5.01755 23.1379 4.98874L20.9201 2.57573C20.766 2.42171 20.6474 2.40887 20.4932 2.57573L8.94202 15.0772C8.89551 15.1348 8.86652 15.2065 8.859 15.2825H8.88272Z" fill="#585757"/>
<path d="M21.0504 10.033C20.8156 10.0274 20.5913 9.92665 20.4219 9.75059L16.5201 5.52781C16.3556 5.34355 16.2637 5.09735 16.2637 4.84113C16.2637 4.58492 16.3556 4.33872 16.5201 4.15445C16.6029 4.06325 16.7016 3.99082 16.8106 3.94137C16.9195 3.89192 17.0364 3.86646 17.1546 3.86646C17.2727 3.86646 17.3897 3.89192 17.4986 3.94137C17.6075 3.99082 17.7063 4.06325 17.7891 4.15445L21.6908 8.37722C21.8553 8.56149 21.9473 8.80769 21.9473 9.0639C21.9473 9.32012 21.8553 9.56632 21.6908 9.75059C21.5185 9.92965 21.2894 10.0307 21.0504 10.033Z" fill="#585757"/>
</svg>
