<svg width="20" height="20" viewBox="0 0 20 20" fill="none" xmlns="http://www.w3.org/2000/svg">
<path d="M4.43315 12.0859L3.73687 14.6838L1.19172 14.7374C0.422064 13.304 0.01314 11.7048 0.000311452 10.0779C-0.0125171 8.45103 0.371136 6.84552 1.11809 5.40021L3.38328 5.81562L4.3768 8.06629C3.93058 9.37179 3.9505 10.7916 4.43315 12.084V12.0859Z" fill="white"/>
<path d="M19.8241 8.13171C20.1631 9.91455 20.0104 11.756 19.3825 13.4587C18.7547 15.1614 17.6753 16.6611 16.26 17.7971L13.4067 17.6516L13.0031 15.131C14.1813 14.4403 15.0866 13.366 15.5673 12.0877H10.2207V8.13171H19.825H19.8241Z" fill="white"/>
<path d="M16.2597 17.797C15.1158 18.7158 13.7836 19.3715 12.3577 19.7177C10.9319 20.0639 9.44735 20.092 8.00942 19.8001C6.5715 19.5081 5.21545 18.9033 4.03748 18.0285C2.85952 17.1537 1.88851 16.0304 1.19336 14.7383L4.43388 12.0858C4.73809 12.8968 5.21578 13.6315 5.83356 14.2387C6.45133 14.8458 7.19427 15.3106 8.01042 15.6006C8.82657 15.8906 9.69622 15.9989 10.5586 15.9178C11.4209 15.8366 12.2551 15.5681 13.0029 15.131L16.2597 17.797Z" fill="white"/>
<path d="M16.3819 2.30235L13.1432 4.9548C12.3844 4.48211 11.5288 4.18662 10.64 4.09032C9.75124 3.99402 8.85218 4.09938 8.00975 4.39857C7.16732 4.69776 6.4032 5.18307 5.77424 5.81839C5.14529 6.45372 4.6677 7.22269 4.377 8.0681L1.12012 5.40112C1.80702 4.07457 2.78243 2.9188 3.97466 2.01874C5.16688 1.11867 6.54563 0.49718 8.00958 0.199938C9.47354 -0.0973026 10.9855 -0.062741 12.4343 0.301083C13.8832 0.664908 15.2321 1.34875 16.3819 2.30235Z" fill="white"/>
</svg>
