<svg width="45" height="49" viewBox="0 0 45 49" fill="none" xmlns="http://www.w3.org/2000/svg">
<path d="M7.5 11.4333C7.0858 11.4333 6.75 11.799 6.75 12.25C6.75 12.701 7.0858 13.0667 7.5 13.0667H22.5C22.9142 13.0667 23.25 12.701 23.25 12.25C23.25 11.799 22.9142 11.4333 22.5 11.4333H7.5Z" stroke="#646464" stroke-width="3" stroke-linecap="round" stroke-linejoin="round"/>
<path d="M7.5 25.3167C7.0858 25.3167 6.75 25.6823 6.75 26.1333C6.75 26.5843 7.0858 26.95 7.5 26.95H37.5C37.9142 26.95 38.25 26.5843 38.25 26.1333C38.25 25.6823 37.9142 25.3167 37.5 25.3167H7.5Z" stroke="#646464" stroke-width="3" stroke-linecap="round" stroke-linejoin="round"/>
<path d="M7.5 38.9277C7.0858 38.9277 6.75 39.2934 6.75 39.7444C6.75 40.1954 7.0858 40.5611 7.5 40.5611H30C30.4142 40.5611 30.75 40.1954 30.75 39.7444C30.75 39.2934 30.4142 38.9277 30 38.9277H7.5Z" stroke="#646464" stroke-width="3" stroke-linecap="round" stroke-linejoin="round"/>
</svg>
