<svg width="11" height="16" viewBox="0 0 11 16" fill="none" xmlns="http://www.w3.org/2000/svg">
<path d="M5.86111 14.8889L5.62062 14.6206C5.43201 14.4102 1 9.42507 1 5.93584C1 3.21431 3.18055 1 5.86111 1C8.54166 1 10.7222 3.21431 10.7222 5.93584C10.7222 9.42507 6.2902 14.4102 6.10159 14.6208L5.86111 14.8889ZM5.86111 1.65368C3.53812 1.65368 1.64812 3.57452 1.64812 5.93563C1.64812 8.73306 4.93423 12.8097 5.86111 13.9036C6.78798 12.8093 10.0741 8.73105 10.0741 5.93563C10.0741 3.57452 8.18409 1.65368 5.86111 1.65368ZM5.86111 8.08202C7.17361 8.08202 8.23763 7.00882 8.23763 5.68493C8.23763 4.36112 7.17361 3.28792 5.86111 3.28792C4.54861 3.28792 3.48458 4.36112 3.48458 5.68493C3.48458 7.00882 4.54861 8.08202 5.86111 8.08202Z" fill="white" stroke="white" stroke-width="0.3"/>
</svg>
