<svg width="18" height="19" viewBox="0 0 18 19" fill="none" xmlns="http://www.w3.org/2000/svg">
<path d="M16.0083 9.49999L16.8925 7.87624C16.9988 7.68088 17.0277 7.44867 16.9729 7.23068C16.918 7.01268 16.784 6.82674 16.6002 6.71374L15.0704 5.77421V3.90196C15.0704 3.67626 14.986 3.4598 14.8358 3.3002C14.6856 3.1406 14.4819 3.05094 14.2694 3.05094H12.5082L11.6247 1.42634C11.518 1.23138 11.3434 1.08891 11.1386 1.02976C11.037 1.0005 10.9309 0.992955 10.8266 1.00756C10.7222 1.02217 10.6216 1.05864 10.5307 1.11486L9.00087 2.05439L7.47108 1.11401C7.28712 1.00117 7.06851 0.970585 6.86333 1.029C6.65815 1.08741 6.48321 1.23003 6.377 1.42549L5.49277 3.05094H3.73151C3.51909 3.05094 3.31536 3.1406 3.16516 3.3002C3.01495 3.4598 2.93057 3.67626 2.93057 3.90196V5.77336L1.40078 6.71289C1.3095 6.76868 1.22949 6.84308 1.16536 6.93183C1.10122 7.02057 1.05422 7.1219 1.02706 7.23C0.99989 7.33811 0.993095 7.45085 1.00706 7.56175C1.02103 7.67265 1.05548 7.77953 1.10844 7.87624L1.99267 9.49999L1.10844 11.1237C1.00271 11.3193 0.97402 11.5513 1.02863 11.7692C1.08325 11.9872 1.21673 12.1733 1.39998 12.2871L2.92977 13.2266V15.098C2.92977 15.3237 3.01415 15.5402 3.16436 15.6998C3.31456 15.8594 3.51828 15.949 3.73071 15.949H5.49277L6.377 17.5745C6.44791 17.7033 6.54915 17.8102 6.67077 17.8849C6.79238 17.9595 6.93018 17.9991 7.07061 18C7.20997 18 7.34854 17.9609 7.47188 17.8851L9.00007 16.9456L10.5299 17.8851C10.7138 17.9978 10.9322 18.0284 11.1373 17.9701C11.3424 17.9119 11.5174 17.7696 11.6239 17.5745L12.5074 15.949H14.2686C14.4811 15.949 14.6848 15.8594 14.835 15.6998C14.9852 15.5402 15.0696 15.3237 15.0696 15.098V13.2266L16.5994 12.2871C16.6905 12.2311 16.7703 12.1566 16.8343 12.0679C16.8984 11.9791 16.9453 11.8778 16.9724 11.7698C16.9996 11.6617 17.0064 11.5491 16.9926 11.4382C16.9787 11.3274 16.9444 11.2205 16.8917 11.1237L16.0083 9.49999ZM6.99773 5.23637C7.31646 5.23648 7.62211 5.37112 7.84741 5.61068C8.07272 5.85024 8.19924 6.17508 8.19913 6.51375C8.19902 6.85242 8.0723 7.17718 7.84685 7.41657C7.62139 7.65597 7.31566 7.7904 6.99693 7.79028C6.67819 7.79017 6.37254 7.65553 6.14724 7.41597C5.92193 7.17641 5.79541 6.85157 5.79552 6.5129C5.79563 6.17423 5.92235 5.84947 6.1478 5.61008C6.37326 5.37068 6.67899 5.23625 6.99773 5.23637ZM7.23801 13.4062L5.95651 12.3858L10.7621 5.57763L12.0436 6.598L7.23801 13.4062ZM11.0024 13.7466C10.8446 13.7465 10.6883 13.7134 10.5425 13.6492C10.3967 13.585 10.2643 13.4909 10.1527 13.3723C10.0412 13.2537 9.95268 13.1129 9.89233 12.9579C9.83199 12.803 9.80095 12.6369 9.801 12.4692C9.80106 12.3015 9.83219 12.1355 9.89264 11.9806C9.95308 11.8257 10.0417 11.6849 10.1533 11.5664C10.2649 11.4478 10.3974 11.3538 10.5433 11.2897C10.6891 11.2256 10.8454 11.1926 11.0032 11.1927C11.3219 11.1928 11.6276 11.3274 11.8529 11.567C12.0782 11.8065 12.2047 12.1314 12.2046 12.4701C12.2045 12.8087 12.0778 13.1335 11.8523 13.3729C11.6269 13.6123 11.3211 13.7467 11.0024 13.7466Z" stroke="#585757" stroke-width="1.5"/>
</svg>
