<svg width="15" height="15" viewBox="0 0 15 15" fill="none" xmlns="http://www.w3.org/2000/svg">
<path d="M13.4017 14.6757H1.59832C0.71707 14.6757 0 13.8155 0 12.7582V7.88075H1.22953V12.7583C1.22953 12.9981 1.39852 13.2008 1.59844 13.2008H13.4017C13.6017 13.2008 13.7706 12.9981 13.7706 12.7583V7.88075H15V12.7583C15 13.8155 14.2829 14.6757 13.4017 14.6757ZM9.00492 7.7434V3.53993H5.99508V7.74354H4.24184L7.5 11.5783L10.7582 7.7434H9.00492ZM9.00609 3.31866H5.99391V2.35991H9.00621V3.31866H9.00609ZM9.00609 2.13864H5.99391V1.17988H9.00621V2.13864H9.00609ZM9.00609 0.958752H5.99391V0H9.00621V0.958752H9.00609Z" fill="black"/>
</svg>
