<svg width="90" height="90" viewBox="0 0 90 90" fill="none" xmlns="http://www.w3.org/2000/svg">
<path d="M65.625 11.25H60V9.375C60 8.87772 59.8025 8.40081 59.4508 8.04918C59.0992 7.69754 58.6223 7.5 58.125 7.5H31.875C31.3777 7.5 30.9008 7.69754 30.5492 8.04918C30.1975 8.40081 30 8.87772 30 9.375V11.25H24.375C21.8894 11.2526 19.5064 12.2412 17.7488 13.9988C15.9912 15.7564 15.0026 18.1394 15 20.625V73.125C15.0026 75.6106 15.9912 77.9936 17.7488 79.7512C19.5064 81.5088 21.8894 82.4974 24.375 82.5H65.625C68.1106 82.4974 70.4936 81.5088 72.2512 79.7512C74.0088 77.9936 74.9974 75.6106 75 73.125V20.625C74.9974 18.1394 74.0088 15.7564 72.2512 13.9988C70.4936 12.2412 68.1106 11.2526 65.625 11.25ZM33.75 11.25H56.25V15H33.75V11.25ZM71.25 73.125C71.2484 74.6163 70.6552 76.0461 69.6007 77.1007C68.5461 78.1552 67.1163 78.7484 65.625 78.75H24.375C22.8837 78.7484 21.4539 78.1552 20.3993 77.1007C19.3448 76.0461 18.7516 74.6163 18.75 73.125V20.625C18.7516 19.1337 19.3448 17.7039 20.3993 16.6493C21.4539 15.5948 22.8837 15.0016 24.375 15H30V16.875C30 17.3723 30.1975 17.8492 30.5492 18.2008C30.9008 18.5525 31.3777 18.75 31.875 18.75H58.125C58.6223 18.75 59.0992 18.5525 59.4508 18.2008C59.8025 17.8492 60 17.3723 60 16.875V15H65.625C67.1163 15.0016 68.5461 15.5948 69.6007 16.6493C70.6552 17.7039 71.2484 19.1337 71.25 20.625V73.125Z" fill="#646464"/>
<path d="M58.125 30H31.875C31.3777 30 30.9008 30.1975 30.5492 30.5492C30.1975 30.9008 30 31.3777 30 31.875C30 32.3723 30.1975 32.8492 30.5492 33.2008C30.9008 33.5525 31.3777 33.75 31.875 33.75H58.125C58.6223 33.75 59.0992 33.5525 59.4508 33.2008C59.8025 32.8492 60 32.3723 60 31.875C60 31.3777 59.8025 30.9008 59.4508 30.5492C59.0992 30.1975 58.6223 30 58.125 30Z" fill="#646464"/>
<path d="M58.125 41.25H31.875C31.3777 41.25 30.9008 41.4475 30.5492 41.7992C30.1975 42.1508 30 42.6277 30 43.125C30 43.6223 30.1975 44.0992 30.5492 44.4508C30.9008 44.8025 31.3777 45 31.875 45H58.125C58.6223 45 59.0992 44.8025 59.4508 44.4508C59.8025 44.0992 60 43.6223 60 43.125C60 42.6277 59.8025 42.1508 59.4508 41.7992C59.0992 41.4475 58.6223 41.25 58.125 41.25Z" fill="#646464"/>
<path d="M58.125 52.5H31.875C31.3777 52.5 30.9008 52.6975 30.5492 53.0492C30.1975 53.4008 30 53.8777 30 54.375C30 54.8723 30.1975 55.3492 30.5492 55.7008C30.9008 56.0525 31.3777 56.25 31.875 56.25H58.125C58.6223 56.25 59.0992 56.0525 59.4508 55.7008C59.8025 55.3492 60 54.8723 60 54.375C60 53.8777 59.8025 53.4008 59.4508 53.0492C59.0992 52.6975 58.6223 52.5 58.125 52.5Z" fill="#646464"/>
<path d="M46.875 63.75H31.875C31.3777 63.75 30.9008 63.9475 30.5492 64.2992C30.1975 64.6508 30 65.1277 30 65.625C30 66.1223 30.1975 66.5992 30.5492 66.9508C30.9008 67.3025 31.3777 67.5 31.875 67.5H46.875C47.3723 67.5 47.8492 67.3025 48.2008 66.9508C48.5525 66.5992 48.75 66.1223 48.75 65.625C48.75 65.1277 48.5525 64.6508 48.2008 64.2992C47.8492 63.9475 47.3723 63.75 46.875 63.75Z" fill="#646464"/>
</svg>
