<svg width="90" height="90" viewBox="0 0 90 90" fill="none" xmlns="http://www.w3.org/2000/svg">
<path d="M58.125 7.5H31.875C30.8395 7.5 30 8.33947 30 9.375V13.125C30 14.1605 30.8395 15 31.875 15H58.125C59.1605 15 60 14.1605 60 13.125V9.375C60 8.33947 59.1605 7.5 58.125 7.5Z" fill="#646464"/>
<path d="M65.625 11.25H63.75V13.125C63.7484 14.6163 63.1552 16.0461 62.1007 17.1007C61.0461 18.1552 59.6163 18.7484 58.125 18.75H31.875C30.3837 18.7484 28.9539 18.1552 27.8993 17.1007C26.8448 16.0461 26.2516 14.6163 26.25 13.125V11.25H24.375C21.8894 11.2526 19.5064 12.2412 17.7488 13.9988C15.9912 15.7564 15.0026 18.1394 15 20.625V73.125C15.0026 75.6106 15.9912 77.9936 17.7488 79.7512C19.5064 81.5088 21.8894 82.4974 24.375 82.5H65.625C68.1106 82.4974 70.4936 81.5088 72.2512 79.7512C74.0088 77.9936 74.9974 75.6106 75 73.125V20.625C74.9974 18.1394 74.0088 15.7564 72.2512 13.9988C70.4936 12.2412 68.1106 11.2526 65.625 11.25ZM46.875 67.5H31.875C31.3777 67.5 30.9008 67.3025 30.5492 66.9508C30.1975 66.5992 30 66.1223 30 65.625C30 65.1277 30.1975 64.6508 30.5492 64.2992C30.9008 63.9475 31.3777 63.75 31.875 63.75H46.875C47.3723 63.75 47.8492 63.9475 48.2008 64.2992C48.5525 64.6508 48.75 65.1277 48.75 65.625C48.75 66.1223 48.5525 66.5992 48.2008 66.9508C47.8492 67.3025 47.3723 67.5 46.875 67.5ZM58.125 56.25H31.875C31.3777 56.25 30.9008 56.0525 30.5492 55.7008C30.1975 55.3492 30 54.8723 30 54.375C30 53.8777 30.1975 53.4008 30.5492 53.0492C30.9008 52.6975 31.3777 52.5 31.875 52.5H58.125C58.6223 52.5 59.0992 52.6975 59.4508 53.0492C59.8025 53.4008 60 53.8777 60 54.375C60 54.8723 59.8025 55.3492 59.4508 55.7008C59.0992 56.0525 58.6223 56.25 58.125 56.25ZM58.125 45H31.875C31.3777 45 30.9008 44.8025 30.5492 44.4508C30.1975 44.0992 30 43.6223 30 43.125C30 42.6277 30.1975 42.1508 30.5492 41.7992C30.9008 41.4475 31.3777 41.25 31.875 41.25H58.125C58.6223 41.25 59.0992 41.4475 59.4508 41.7992C59.8025 42.1508 60 42.6277 60 43.125C60 43.6223 59.8025 44.0992 59.4508 44.4508C59.0992 44.8025 58.6223 45 58.125 45ZM58.125 33.75H31.875C31.3777 33.75 30.9008 33.5525 30.5492 33.2008C30.1975 32.8492 30 32.3723 30 31.875C30 31.3777 30.1975 30.9008 30.5492 30.5492C30.9008 30.1975 31.3777 30 31.875 30H58.125C58.6223 30 59.0992 30.1975 59.4508 30.5492C59.8025 30.9008 60 31.3777 60 31.875C60 32.3723 59.8025 32.8492 59.4508 33.2008C59.0992 33.5525 58.6223 33.75 58.125 33.75Z" fill="#646464"/>
</svg>
