<svg width="30" height="25" viewBox="0 0 30 25" fill="none" xmlns="http://www.w3.org/2000/svg">
<path d="M27.75 2.32822H18.675C18.5029 1.67116 18.043 1.08042 17.3732 0.656106C16.7034 0.231794 15.865 0 15 0C14.135 0 13.2966 0.231794 12.6268 0.656106C11.957 1.08042 11.4971 1.67116 11.325 2.32822H2.25C1.65326 2.32822 1.08097 2.51196 0.65901 2.83902C0.237053 3.16609 0 3.60967 0 4.07221V23.256C0 23.7185 0.237053 24.1621 0.65901 24.4892C1.08097 24.8163 1.65326 25 2.25 25H27.75C28.3467 25 28.919 24.8163 29.341 24.4892C29.7629 24.1621 30 23.7185 30 23.256V4.07221C30 3.60967 29.7629 3.16609 29.341 2.83902C28.919 2.51196 28.3467 2.32822 27.75 2.32822ZM15 1.16557C15.4655 1.16538 15.9196 1.2771 16.2997 1.48533C16.6799 1.69356 16.9673 1.98806 17.1225 2.32822H12.8775C13.0327 1.98806 13.3201 1.69356 13.7003 1.48533C14.0804 1.2771 14.5345 1.16538 15 1.16557ZM2.25 3.49088H27.75C27.9489 3.49088 28.1397 3.55213 28.2803 3.66115C28.421 3.77017 28.5 3.91803 28.5 4.07221V6.39752H1.5V4.07221C1.5 3.91803 1.57902 3.77017 1.71967 3.66115C1.86032 3.55213 2.05109 3.49088 2.25 3.49088ZM27.75 23.8373H2.25C2.05109 23.8373 1.86032 23.7761 1.71967 23.6671C1.57902 23.5581 1.5 23.4102 1.5 23.256V7.56017H28.5V23.256C28.5 23.4102 28.421 23.5581 28.2803 23.6671C28.1397 23.7761 27.9489 23.8373 27.75 23.8373Z" fill="#585757"/>
<path d="M24.75 8.72266H5.25C4.65326 8.72266 4.08097 8.9064 3.65901 9.23346C3.23705 9.56052 3 10.0041 3 10.4666V20.9305C3 21.3931 3.23705 21.8367 3.65901 22.1637C4.08097 22.4908 4.65326 22.6745 5.25 22.6745H24.75C25.3467 22.6745 25.919 22.4908 26.341 22.1637C26.7629 21.8367 27 21.3931 27 20.9305V10.4666C27 10.0041 26.7629 9.56052 26.341 9.23346C25.919 8.9064 25.3467 8.72266 24.75 8.72266ZM25.5 10.4666V15.1173H19.5V9.88531H24.75C24.9489 9.88531 25.1397 9.94656 25.2803 10.0556C25.421 10.1646 25.5 10.3125 25.5 10.4666ZM12 15.1173V9.88531H18V15.1173H12ZM18 16.2799V21.5119H12V16.2799H18ZM5.25 9.88531H10.5V15.1173H4.5V10.4666C4.5 10.3125 4.57902 10.1646 4.71967 10.0556C4.86032 9.94656 5.05109 9.88531 5.25 9.88531ZM4.5 20.9305V16.2799H10.5V21.5119H5.25C5.05109 21.5119 4.86032 21.4506 4.71967 21.3416C4.57902 21.2326 4.5 21.0847 4.5 20.9305ZM24.75 21.5119H19.5V16.2799H25.5V20.9305C25.5 21.0847 25.421 21.2326 25.2803 21.3416C25.1397 21.4506 24.9489 21.5119 24.75 21.5119Z" fill="#585757"/>
</svg>
