<svg width="30" height="25" viewBox="0 0 30 25" fill="none" xmlns="http://www.w3.org/2000/svg">
<path fill-rule="evenodd" clip-rule="evenodd" d="M0.581491 0H29.4185C29.7383 0 30 0.289869 30 0.644128V21.3761C30 21.7303 29.7383 22.0202 29.4185 22.0202C21.1353 22.0202 21.6613 22.0202 0.581491 22.0202C0.261681 22.0202 0 21.7303 0 21.3761V0.644128C0 0.289844 0.261658 0 0.581491 0Z" fill="#585757"/>
<path fill-rule="evenodd" clip-rule="evenodd" d="M0.775391 0.861816V21.1643C10.2585 21.1643 19.7416 21.1643 29.2248 21.1643V0.861816H0.775391Z" fill="#F9F9F9"/>
<path fill-rule="evenodd" clip-rule="evenodd" d="M3.72168 11.7162H16.7475V13.0904H3.72168V11.7162Z" fill="#585757"/>
<path fill-rule="evenodd" clip-rule="evenodd" d="M3.72168 7.59271H26.0518V8.96695H3.72168V7.59271Z" fill="#585757"/>
<path fill-rule="evenodd" clip-rule="evenodd" d="M3.72168 15.8365H16.7475V17.2107H3.72168V15.8365Z" fill="#585757"/>
<path d="M25.1584 20.0283V23.7587V25L24.3884 24.2168L22.9388 22.7423L21.4892 24.2168L20.7192 25V23.7587V20.0283L20.7275 20.0305C20.9192 20.0804 21.1185 20.0868 21.3126 20.0514C21.4086 20.0338 21.5046 20.0163 21.6004 19.9978C21.6169 19.9947 21.6334 19.9914 21.6499 19.9882C21.6608 20.0008 21.6717 20.0134 21.6827 20.0259C22.3203 20.8036 23.0949 21.1364 23.9922 20.2566C24.0602 20.1801 24.1277 20.1031 24.1952 20.026C24.2061 20.0134 24.217 20.0008 24.228 19.9882C24.2442 19.9914 24.2605 19.9946 24.2768 19.9977C24.3727 20.0163 24.4689 20.0338 24.565 20.0514C24.7592 20.0868 24.9585 20.0804 25.1501 20.0304L25.1585 20.0283H25.1584Z" fill="#585757"/>
<path d="M25.0086 20.966C24.8988 20.9947 24.7824 20.9989 24.6665 20.9777C24.4732 20.9424 24.4258 20.9333 24.3839 20.9252C24.1369 20.8774 24.0133 20.8536 24.0125 20.8539C24.0101 20.8547 23.9234 20.954 23.75 21.1524C23.6929 21.2178 23.629 21.2909 23.5511 21.3784C23.4731 21.4661 23.3807 21.5384 23.2794 21.5882C23.1742 21.6398 23.0593 21.6689 22.9395 21.6689C22.8235 21.6689 22.7087 21.6388 22.6007 21.5858L22.5998 21.5881C22.4984 21.5383 22.4059 21.4658 22.328 21.3784C22.25 21.2908 22.186 21.2176 22.1288 21.1522C21.9555 20.954 21.8689 20.8549 21.8663 20.854C21.8654 20.8537 21.7418 20.8775 21.4946 20.9253C21.453 20.9333 21.4056 20.9424 21.2123 20.9777C21.0965 20.9989 20.9801 20.9946 20.8701 20.9659C20.7575 20.9366 20.6493 20.8821 20.5526 20.8036C20.4573 20.7263 20.3784 20.6302 20.3195 20.5221C20.2601 20.413 20.2199 20.2913 20.2026 20.1639L20.1625 19.8489C20.1278 19.5772 20.1104 19.4414 20.1083 19.4383C20.1078 19.4375 19.997 19.3786 19.7736 19.2578C19.6985 19.2172 19.6146 19.1718 19.5152 19.1168C19.4112 19.0593 19.3184 18.9779 19.2416 18.8788C19.1667 18.7824 19.1091 18.67 19.0733 18.5476C19.0366 18.4226 19.0231 18.2942 19.0322 18.1693C19.0415 18.0426 19.0737 17.9173 19.1283 17.8001C19.1814 17.6861 19.2236 17.598 19.2612 17.5194C19.3714 17.2892 19.4281 17.1707 19.4281 17.1614C19.4281 17.1411 19.3594 16.9951 19.2179 16.6941C19.2018 16.6597 19.2113 16.6799 19.218 16.6941L19.2183 16.6939C19.2091 16.6739 19.1845 16.6208 19.1284 16.5004C19.0737 16.3836 19.0414 16.2593 19.0321 16.1339V16.1312C19.0229 16.0063 19.0363 15.8782 19.0732 15.7532C19.1092 15.631 19.1672 15.5181 19.2418 15.4221C19.3161 15.3264 19.409 15.2455 19.5152 15.1866C19.831 15.0117 19.7548 15.053 19.776 15.0416C19.9981 14.9214 20.1083 14.8629 20.1089 14.8621C20.1104 14.8597 20.1276 14.7231 20.162 14.4494C20.1786 14.317 20.1973 14.1682 20.2012 14.1389C20.2186 14.0096 20.2599 13.8864 20.3206 13.7763C20.3813 13.6662 20.4608 13.57 20.5543 13.4951C20.6463 13.4213 20.7535 13.368 20.8682 13.3376V13.3349C20.9775 13.3061 21.0947 13.3012 21.2123 13.3227C21.4464 13.3655 21.474 13.3708 21.4972 13.3752L21.4971 13.3757C21.7425 13.4231 21.8651 13.4468 21.8656 13.4466C21.8678 13.4458 21.9538 13.3477 22.1255 13.1518C22.1831 13.086 22.2477 13.0124 22.3303 12.9199C22.4074 12.8335 22.4993 12.7623 22.5998 12.7132C22.7009 12.6637 22.8153 12.6355 22.938 12.6346C23.0606 12.6338 23.1769 12.6634 23.2816 12.7152C23.3837 12.7656 23.4746 12.8368 23.5488 12.9198L23.5512 12.9225C23.63 13.0108 23.695 13.085 23.7531 13.1513C23.9249 13.3476 24.011 13.4459 24.0132 13.4467C24.0135 13.4468 24.1357 13.4228 24.3815 13.3753C24.404 13.371 24.4359 13.3648 24.6665 13.3227C24.7845 13.3012 24.9015 13.3061 25.0106 13.3349V13.3376C25.123 13.3674 25.2293 13.4208 25.3222 13.4952C25.4187 13.5724 25.4988 13.6685 25.5582 13.7762C25.619 13.8864 25.6602 14.0097 25.6775 14.1389C25.6812 14.1659 25.7005 14.319 25.717 14.4503C25.7514 14.7234 25.7686 14.8597 25.7702 14.8621C25.7707 14.8629 25.8811 14.9216 26.1036 15.042C26.1243 15.0532 26.0535 15.0148 26.3636 15.1866C26.4698 15.2455 26.5627 15.3264 26.637 15.4221C26.7115 15.518 26.7695 15.631 26.8056 15.7533C26.8426 15.8783 26.856 16.0062 26.8467 16.1311V16.1338C26.8374 16.2592 26.805 16.3836 26.7504 16.5004C26.6964 16.6164 26.654 16.7052 26.6162 16.7845C26.5013 17.0254 26.4437 17.146 26.4437 17.1503H26.4413C26.4413 17.1511 26.4997 17.2718 26.6163 17.5162C26.654 17.5954 26.6964 17.6842 26.7505 17.8001C26.8049 17.917 26.8373 18.0423 26.8466 18.1693C26.8557 18.2941 26.8423 18.4224 26.8055 18.5475C26.7696 18.67 26.712 18.7824 26.6372 18.8789C26.5603 18.978 26.4675 19.0593 26.3636 19.1168L26.3627 19.1146C26.2565 19.1734 26.2075 19.2006 26.1877 19.2118L26.1879 19.2121C26.2007 19.2052 26.2158 19.1969 26.1879 19.2122C25.9138 19.3626 25.7806 19.4357 25.7701 19.4518C25.766 19.4581 25.7492 19.5918 25.7167 19.8515C25.701 19.9773 25.6835 20.1175 25.6775 20.1616C25.66 20.2917 25.6186 20.4147 25.5581 20.5242C25.4978 20.6332 25.4189 20.7284 25.3262 20.8036C25.2293 20.8821 25.1212 20.9367 25.0086 20.966V20.966Z" fill="#585757"/>
</svg>
