<svg width="20" height="20" viewBox="0 0 20 20" fill="none" xmlns="http://www.w3.org/2000/svg">
<path fill-rule="evenodd" clip-rule="evenodd" d="M18.2278 0.772096C16.4685 -0.432181 14.1379 -0.195378 12.8774 1.2571C15.5163 2.09591 17.8197 3.67805 19.4776 5.79055C20.5021 4.17598 19.9858 1.98144 18.2278 0.772096Z" fill="white" fill-opacity="0.9"/>
<path fill-rule="evenodd" clip-rule="evenodd" d="M3.46379 3.01087C4.58217 2.25017 5.81656 1.65452 7.12461 1.24434C5.86277 -0.194205 3.53084 -0.427209 1.77284 0.76567C0.0148387 1.96362 -0.502772 4.13663 0.523063 5.736C1.35174 4.69242 2.34326 3.77359 3.46379 3.01087Z" fill="white" fill-opacity="0.9"/>
<path fill-rule="evenodd" clip-rule="evenodd" d="M18.5899 10.8699C18.5899 10.6192 18.5738 10.3722 18.5523 10.1278C18.1876 6.15157 14.9344 2.97816 10.8217 2.57293C10.6393 2.55267 10.4556 2.5514 10.2692 2.54507C10.1592 2.54001 10.0493 2.52734 9.93664 2.52734H9.93128C5.14673 2.52734 1.27002 6.26174 1.27002 10.8699C1.27002 10.9066 1.27538 10.9446 1.27672 10.9813C1.28899 12.0931 1.5358 13.1913 2.00274 14.212C2.46967 15.2326 3.14736 16.1551 3.99619 16.9255C3.71569 17.0631 3.48066 17.2709 3.31677 17.5262C3.15288 17.7815 3.06644 18.0744 3.06691 18.3729C3.06691 19.2707 3.82321 19.9989 4.75652 19.9989C5.64959 19.9989 6.37103 19.3315 6.43272 18.4869C7.35664 18.8807 8.3637 19.1289 9.4244 19.1884C9.59336 19.1985 9.76098 19.2137 9.93128 19.2137C10.1257 19.2137 10.3135 19.1973 10.5079 19.1859C11.5563 19.1177 12.5821 18.8661 13.5331 18.4438C13.572 19.31 14.3055 20.0001 15.2133 20.0001C16.1466 20.0001 16.9016 19.272 16.9016 18.3742C16.9016 17.7119 16.4926 17.1458 15.9053 16.8913C16.7569 16.1085 17.4334 15.1722 17.8946 14.1379C18.3558 13.1035 18.5922 11.9922 18.5899 10.8699ZM10.0117 16.7976C6.57486 16.7976 3.7803 14.118 3.7803 10.8256C3.7803 7.53313 6.57486 4.85612 10.0117 4.85612C13.4473 4.85612 16.2432 7.53313 16.2432 10.8256C16.2432 14.118 13.4473 16.7976 10.0117 16.7976Z" fill="white" fill-opacity="0.9"/>
<path d="M9.5 12L11.5 10.5L9.5 9" fill="white" fill-opacity="0.9"/>
</svg>
