<svg width="10" height="12" viewBox="0 0 10 12" fill="none" xmlns="http://www.w3.org/2000/svg">
<path d="M9.16683 1.00819H6.21849V0.201187C6.21849 0.0901875 6.13248 0 6.02623 0H3.97377C3.86752 0 3.78151 0.0901875 3.78151 0.201187V1.00819H0.833348C0.373941 1.00819 0 1.39931 0 1.88025V2.47388C0 2.58506 0.0861837 2.67506 0.192256 2.67506H0.718138L1.29939 10.8501C1.34561 11.4949 1.86558 12 2.48338 12H7.51662C8.13442 12 8.65439 11.4949 8.70044 10.8501L9.28168 2.67506H9.80774C9.914 2.67506 10 2.58488 10 2.47388V1.88025C10.0002 1.39931 9.62624 1.00819 9.16683 1.00819ZM4.1662 0.402562H5.83397V1.00819H4.1662V0.402562ZM8.31682 10.8202C8.28582 11.2562 7.93428 11.5976 7.51662 11.5976H2.48338C2.06572 11.5976 1.71436 11.2562 1.68318 10.8202L1.1039 2.67525H8.89592L8.31682 10.8202ZM9.61549 2.27269H0.384691V1.88025C0.384691 1.62131 0.586085 1.41075 0.833348 1.41075H3.97377H6.02623H9.16683C9.41427 1.41075 9.61549 1.6215 9.61549 1.88025V2.27269ZM6.8198 7.08431L7.0952 7.59975C7.23101 7.84613 7.23101 8.14313 7.09376 8.39175C6.95651 8.64038 6.71068 8.78888 6.43637 8.78888H5.33336L5.72522 9.24656L5.43871 9.51506L4.64568 8.58881L5.37242 7.59694L5.67773 7.842L5.27889 8.3865H6.43654C6.57182 8.3865 6.69313 8.31319 6.76085 8.19056C6.82858 8.06775 6.82858 7.92131 6.76103 7.79869L6.48421 7.281L6.8198 7.08431ZM2.9892 7.5975L3.63548 6.42619L3.05692 6.54375L2.98364 6.14869L4.14685 5.91206L4.4966 7.12444L4.12858 7.24069L3.95728 6.64744L3.32228 7.7985C3.25456 7.92112 3.25456 8.06756 3.32228 8.19037C3.38983 8.313 3.51114 8.38631 3.64659 8.38631H4.23823V8.78888H3.64659C3.3721 8.78888 3.12644 8.64038 2.9892 8.39156C2.85195 8.14294 2.85195 7.84613 2.9892 7.5975ZM4.49714 5.658L4.16638 5.45231L4.38516 5.06681C4.52133 4.82044 4.76698 4.67175 5.04148 4.67175C5.04148 4.67175 5.04148 4.67175 5.04166 4.67175C5.31598 4.67194 5.56181 4.82025 5.69888 5.06906L6.27439 6.11212L6.46916 5.49225L6.83449 5.61806L6.44945 6.843L5.21582 6.519L5.30953 6.12862L5.92912 6.29138L5.36579 5.27044C5.29806 5.14781 5.17694 5.0745 5.04148 5.0745C4.90602 5.0745 4.7849 5.14781 4.71717 5.27044L4.49714 5.658Z" fill="black"/>
</svg>
