<svg width="30" height="25" viewBox="0 0 30 25" fill="none" xmlns="http://www.w3.org/2000/svg">
<path d="M29.2021 4.9912L15.5179 0.0887613C15.1884 -0.0295871 14.8105 -0.0295871 14.4816 0.0887613L0.797368 4.9912C0.313158 5.16498 0 5.56138 0 6.00222V7.6217C0 7.98555 0.354211 8.28164 0.789474 8.28164H29.2105C29.6458 8.28164 30 7.98555 30 7.6217V6.00222C30 5.56138 29.6868 5.16498 29.2021 4.9912ZM29.4737 7.6217C29.4737 7.74313 29.3558 7.84168 29.2105 7.84168H0.789474C0.644211 7.84168 0.526316 7.74313 0.526316 7.6217V6.00222C0.526316 5.73781 0.714211 5.49979 1.00474 5.39552L14.6889 0.493082C14.8879 0.422249 15.1121 0.422249 15.3111 0.493082L28.9953 5.39552C29.2858 5.49979 29.4737 5.73781 29.4737 6.00222V7.6217Z" fill="#333333"/>
<path d="M1.05273 22.1403H1.57905V21.7003C1.57905 21.5789 1.69694 21.4804 1.84221 21.4804H28.158C28.3033 21.4804 28.4212 21.5789 28.4212 21.7003V22.1403H28.9475V21.7003C28.9475 21.3365 28.5933 21.0404 28.158 21.0404H1.84221C1.40694 21.0404 1.05273 21.3365 1.05273 21.7003V22.1403Z" fill="#333333"/>
<path d="M29.2105 22.8002H0.789474C0.354211 22.8002 0 23.0963 0 23.4602V24.3401C0 24.7039 0.354211 25 0.789474 25H29.2105C29.6458 25 30 24.7039 30 24.3401V23.4602C30 23.0963 29.6458 22.8002 29.2105 22.8002ZM29.4737 24.3401C29.4737 24.4615 29.3558 24.5601 29.2105 24.5601H0.789474C0.644211 24.5601 0.526316 24.4615 0.526316 24.3401V23.4602C0.526316 23.3387 0.644211 23.2402 0.789474 23.2402H29.2105C29.3558 23.2402 29.4737 23.3387 29.4737 23.4602V24.3401Z" fill="#333333"/>
<path d="M23.6845 12.4612H23.1582V18.6206H23.6845V12.4612Z" fill="#333333"/>
<path d="M25.7895 12.4612H25.2632V18.6206H25.7895V12.4612Z" fill="#333333"/>
<path d="M26.8423 10.7014H26.316V11.1414C26.316 11.2628 26.1981 11.3614 26.0528 11.3614H22.8949C22.7497 11.3614 22.6318 11.2628 22.6318 11.1414V10.7014H22.1055V11.1414C22.1055 11.5052 22.4597 11.8013 22.8949 11.8013H26.0528C26.4881 11.8013 26.8423 11.5052 26.8423 11.1414V10.7014Z" fill="#333333"/>
<path d="M26.8423 20.3805V19.9405C26.8423 19.5767 26.4881 19.2806 26.0528 19.2806H22.8949C22.4597 19.2806 22.1055 19.5767 22.1055 19.9405V20.3805H22.6318V19.9405C22.6318 19.8191 22.7497 19.7205 22.8949 19.7205H26.0528C26.1981 19.7205 26.316 19.8191 26.316 19.9405V20.3805H26.8423Z" fill="#333333"/>
<path d="M17.3681 12.4612H16.8418V18.6206H17.3681V12.4612Z" fill="#333333"/>
<path d="M19.4736 12.4612H18.9473V18.6206H19.4736V12.4612Z" fill="#333333"/>
<path d="M20.5264 10.7014H20.0001V11.1414C20.0001 11.2628 19.8822 11.3614 19.7369 11.3614H16.579C16.4338 11.3614 16.3159 11.2628 16.3159 11.1414V10.7014H15.7896V11.1414C15.7896 11.5052 16.1438 11.8013 16.579 11.8013H19.7369C20.1722 11.8013 20.5264 11.5052 20.5264 11.1414V10.7014Z" fill="#333333"/>
<path d="M20.5264 20.3805V19.9405C20.5264 19.5767 20.1722 19.2806 19.7369 19.2806H16.579C16.1438 19.2806 15.7896 19.5767 15.7896 19.9405V20.3805H16.3159V19.9405C16.3159 19.8191 16.4338 19.7205 16.579 19.7205H19.7369C19.8822 19.7205 20.0001 19.8191 20.0001 19.9405V20.3805H20.5264Z" fill="#333333"/>
<path d="M11.0527 12.4612H10.5264V18.6206H11.0527V12.4612Z" fill="#333333"/>
<path d="M13.1582 12.4612H12.6318V18.6206H13.1582V12.4612Z" fill="#333333"/>
<path d="M14.2105 10.7014H13.6842V11.1414C13.6842 11.2628 13.5663 11.3614 13.421 11.3614H10.2631C10.1178 11.3614 9.99995 11.2628 9.99995 11.1414V10.7014H9.47363V11.1414C9.47363 11.5052 9.82784 11.8013 10.2631 11.8013H13.421C13.8563 11.8013 14.2105 11.5052 14.2105 11.1414V10.7014Z" fill="#333333"/>
<path d="M14.2105 20.3805V19.9405C14.2105 19.5767 13.8563 19.2806 13.421 19.2806H10.2631C9.82784 19.2806 9.47363 19.5767 9.47363 19.9405V20.3805H9.99995V19.9405C9.99995 19.8191 10.1178 19.7205 10.2631 19.7205H13.421C13.5663 19.7205 13.6842 19.8191 13.6842 19.9405V20.3805H14.2105Z" fill="#333333"/>
<path d="M4.73677 12.4612H4.21045V18.6206H4.73677V12.4612Z" fill="#333333"/>
<path d="M6.84175 12.4612H6.31543V18.6206H6.84175V12.4612Z" fill="#333333"/>
<path d="M7.89505 10.7014H7.36873V11.1414C7.36873 11.2628 7.25083 11.3614 7.10557 11.3614H3.94768C3.80241 11.3614 3.68452 11.2628 3.68452 11.1414V10.7014H3.1582V11.1414C3.1582 11.5052 3.51241 11.8013 3.94768 11.8013H7.10557C7.54083 11.8013 7.89505 11.5052 7.89505 11.1414V10.7014Z" fill="#333333"/>
<path d="M7.89505 20.3805V19.9405C7.89505 19.5767 7.54083 19.2806 7.10557 19.2806H3.94768C3.51241 19.2806 3.1582 19.5767 3.1582 19.9405V20.3805H3.68452V19.9405C3.68452 19.8191 3.80241 19.7205 3.94768 19.7205H7.10557C7.25083 19.7205 7.36873 19.8191 7.36873 19.9405V20.3805H7.89505Z" fill="#333333"/>
<path d="M1.05273 8.94159V9.38155C1.05273 9.74539 1.40694 10.0415 1.84221 10.0415H28.158C28.5933 10.0415 28.9475 9.74539 28.9475 9.38155V8.94159H28.4212V9.38155C28.4212 9.50297 28.3033 9.60152 28.158 9.60152H1.84221C1.69694 9.60152 1.57905 9.50297 1.57905 9.38155V8.94159H1.05273Z" fill="#333333"/>
<path d="M15.0003 2.56219C13.6945 2.56219 12.6318 3.45047 12.6318 4.542C12.6318 5.63353 13.6945 6.52181 15.0003 6.52181C16.306 6.52181 17.3687 5.63353 17.3687 4.542C17.3687 3.45047 16.306 2.56219 15.0003 2.56219ZM15.0003 6.08185C13.9845 6.08185 13.1582 5.39112 13.1582 4.542C13.1582 3.69288 13.9845 3.00215 15.0003 3.00215C16.016 3.00215 16.8424 3.69288 16.8424 4.542C16.8424 5.39112 16.016 6.08185 15.0003 6.08185Z" fill="#333333"/>
</svg>
