<svg id="Layer_1" data-name="Layer 1" xmlns="http://www.w3.org/2000/svg" viewBox="0 0 454.33 390.24"><defs><style>.cls-1{fill:#ef9941;}.cls-2{fill:none;}.cls-3{fill:#ee9841;}.cls-4{fill:#458b40;}</style></defs><title>PU Logo</title><path class="cls-1" d="M365.68,390.24a.59.59,0,0,0,.51-.66h0a.54.54,0,0,0-.5-.5.59.59,0,0,0-.51.66h0A.54.54,0,0,0,365.68,390.24Z" transform="translate(-0.04 0)"/><path class="cls-1" d="M367.18,388.84a.59.59,0,0,0,.51-.66h0a.54.54,0,0,0-.5-.5.59.59,0,0,0-.51.66h0A.54.54,0,0,0,367.18,388.84Z" transform="translate(-0.04 0)"/><rect class="cls-1" x="79.31" y="192.55" width="105.8" height="7.6"/><rect class="cls-1" x="68.81" y="208.15" width="116.3" height="7.9"/><ellipse class="cls-2" cx="165.81" cy="41.65" rx="14.9" ry="15.7"/><path class="cls-1" d="M268.25,68.85H66L167.68,0Zm-179.5-7h157L167.67,8.37Z" transform="translate(-0.04 0)"/><rect class="cls-1" x="80.71" y="75.85" width="173.2" height="8.3"/><rect class="cls-1" x="193.01" y="92.75" width="17.3" height="22.1"/><rect class="cls-1" x="225.91" y="93.15" width="17.3" height="22.1"/><rect class="cls-1" x="89.01" y="92.75" width="17" height="92.2"/><rect class="cls-1" x="123.01" y="92.25" width="17" height="92.2"/><rect class="cls-1" x="158.01" y="92.75" width="17" height="92.2"/><path class="cls-1" d="M269.75,219.25H194.06c-2.48,0-4.5-2.33-4.5-5.2v-88.5c0-2.87,2-5.2,4.5-5.2h75.69c2.48,0,4.5,2.33,4.5,5.2v88.5C274.25,216.92,272.23,219.25,269.75,219.25Zm-75.69-97.9c-1.93,0-3.5,1.88-3.5,4.2v88.5c0,2.32,1.57,4.2,3.5,4.2h75.69c1.93,0,3.5-1.88,3.5-4.2v-88.5c0-2.32-1.57-4.2-3.5-4.2Z" transform="translate(-0.04 0)"/><path class="cls-1" d="M266.27,204.55H198v-71.4h68.3Zm-67.3-1h66.3v-69.4H199Z" transform="translate(-0.04 0)"/><path class="cls-1" d="M231.87,214.85a3.64,3.64,0,1,1,3.1-3.6A3.38,3.38,0,0,1,231.87,214.85Zm0-6.2a2.66,2.66,0,1,0,2.1,2.6A2.39,2.39,0,0,0,231.87,208.65Z" transform="translate(-0.04 0)"/><rect class="cls-1" x="204.81" y="141.25" width="52.7" height="1"/><rect class="cls-1" x="204.81" y="148.95" width="52.7" height="1"/><rect class="cls-1" x="204.81" y="156.65" width="52.7" height="1"/><rect class="cls-1" x="204.81" y="164.25" width="52.7" height="1"/><rect class="cls-1" x="204.81" y="171.95" width="16.2" height="1"/><rect class="cls-1" x="223.83" y="168.85" width="0.75" height="3.9"/><rect class="cls-1" x="222.61" y="168.48" width="3.3" height="0.75"/><rect class="cls-1" x="222.61" y="172.37" width="3.3" height="0.75"/><path class="cls-1" d="M230.44,200.05v-3.8h-.3v-.06l.39-1.5h.7v5.4Z" transform="translate(-0.04 0)"/><path class="cls-1" d="M233.73,200.05h-1.6a.47.47,0,0,1-.49-.43h0v-1.26h.7v1h1V198l-.9-.7v-.06l.9-.7v-1.1h-1v1h-.6v-1.2a.7.7,0,0,1,.1-.4.37.37,0,0,1,.3-.1h1.5a.37.37,0,0,1,.3.1c.1.1.1.2.1.4v1.3a.34.34,0,0,1-.1.3c0,.1-.1.1-.2.2l-.5.3.5.3c.11,0,.11.1.2.2a.34.34,0,0,1,.1.3v1.5C234.25,200,234.06,200.05,233.73,200.05Z" transform="translate(-0.04 0)"/><circle class="cls-3" cx="233.19" cy="127.25" r="1.3"/><circle class="cls-3" cx="241.29" cy="127.25" r="1.3"/><circle class="cls-3" cx="224.99" cy="127.25" r="1.3"/><path class="cls-1" d="M107.76,235.19q5.55-2.59,14.41-2.41v11.6a39.24,39.24,0,0,0-11.41,1.35,17.61,17.61,0,0,0-7.15,4.1q-5.17,5.07-5.17,15.76v25.58H85.25V233.9H98.14v9.67A24.2,24.2,0,0,1,107.76,235.19Z" transform="translate(-0.04 0)"/><path class="cls-1" d="M146.25,274.59a17.77,17.77,0,0,0,6.77,5.9,20,20,0,0,0,9.14,2.11,33.32,33.32,0,0,0,8.67-1,12.46,12.46,0,0,0,5.81-3.36,16.51,16.51,0,0,0,3.58-6.7H192a28.29,28.29,0,0,1-3.89,9.21,27,27,0,0,1-6.62,6.57q-7.84,5.43-20.66,5.43A34.22,34.22,0,0,1,145,289.07a28.2,28.2,0,0,1-15.56-25.88,30.8,30.8,0,0,1,4.15-15.9,29.54,29.54,0,0,1,11.51-11,34.35,34.35,0,0,1,16.68-4A33.2,33.2,0,0,1,177.85,236a25.57,25.57,0,0,1,10.4,10.24A29.76,29.76,0,0,1,191.87,261v5.06H143.14A18.16,18.16,0,0,0,146.25,274.59Zm15.41-32.49a17.41,17.41,0,0,0-11.94,4.23,19.14,19.14,0,0,0-6.12,11h35a18.45,18.45,0,0,0-5.17-10.7q-4.19-4.51-11.8-4.53Z" transform="translate(-0.04 0)"/><path class="cls-1" d="M226.51,291.48a17.58,17.58,0,0,1-8.37-6v28.13H204.41V234h13.46v6.79a18.12,18.12,0,0,1,8.57-6.21,35.87,35.87,0,0,1,12.81-2.12,29.77,29.77,0,0,1,15.48,3.91,26,26,0,0,1,10,10.83,37.46,37.46,0,0,1,0,31.47,26.07,26.07,0,0,1-10,10.86,29.67,29.67,0,0,1-15.62,3.94A36.7,36.7,0,0,1,226.51,291.48Zm.35-46.43a16,16,0,0,0-6.61,6.44,19.64,19.64,0,0,0-2.37,9.84v3.2a19.37,19.37,0,0,0,2.37,9.8,15.82,15.82,0,0,0,6.62,6.42,20.86,20.86,0,0,0,9.78,2.21q8.22,0,12.86-5.29t4.64-14.77q0-9.54-4.64-14.8t-12.86-5.26a20.62,20.62,0,0,0-9.78,2.21Z" transform="translate(-0.04 0)"/><path class="cls-4" d="M297.48,289.19a27.27,27.27,0,0,1-12.82-11.11q-4.55-7.5-4.53-18.78V208.52H294.3v51q0,11.14,5.66,16.59t17.1,5.4q11.34,0,17.21-5.51t5.88-16.34V208.52h14v50.82q0,11.15-4.57,18.65a27.87,27.87,0,0,1-12.93,11.2,48.68,48.68,0,0,1-19.59,3.61A47.6,47.6,0,0,1,297.48,289.19Z" transform="translate(-0.04 0)"/><path class="cls-4" d="M412.25,256.75q0-6.92-3.4-10.54t-10-3.62a16,16,0,0,0-7.92,2,14.34,14.34,0,0,0-5.56,5.58,16.46,16.46,0,0,0-2,8.27v32.81H369.73v-57.5H383.4v7.18a19.94,19.94,0,0,1,8.18-6.38,26.82,26.82,0,0,1,11.16-2.36q11.61,0,17.42,6.34t5.81,17.2v35.38H412.25Z" transform="translate(-0.04 0)"/><path class="cls-4" d="M440.76,208.52h13.61v13.9H440.76Zm.22,24.73h13.27v57.94H441Z" transform="translate(-0.04 0)"/><polygon class="cls-3" points="165.7 38.61 165.7 37.41 173.47 36.95 173.47 38.15 165.7 38.61"/><polygon class="cls-3" points="165.95 38.61 159.46 30.24 160.27 29.43 167.07 38.05 165.95 38.61"/><path class="cls-3" d="M166.55,54.08a16.22,16.22,0,0,1-16.39-16,16.39,16.39,0,0,1,32.78,0A16.22,16.22,0,0,1,166.55,54.08Zm0-28a12.21,12.21,0,0,0-12.39,12,12.4,12.4,0,0,0,24.78,0A12.21,12.21,0,0,0,166.55,26.08Z" transform="translate(-0.04 0)"/><path class="cls-1" d="M22.4,206.79c5.16,0,10.35-.31,15.49,0,23.8,1.67,36.94,20.29,28.37,43.54-2.7,7.33-8.79,11.93-16.13,14.73-9.31,3.55-19,2.78-28.67,2.83-8.38.05-8.38,0-8.42,8.15,0,4.83-.13,9.67,0,14.5.09,3.92-2.41,4.34-5.29,4.06S.28,296.32.18,290.84c-.19-10.66,0-21.33,0-32,0-3.58,2.48-3.74,5.18-3.74,10.5,0,21,.11,31.5-.21,14.28-.43,21.51-10.41,17.78-24.11-1.79-6.59-9.47-11.48-19.19-11.72s-19.68-.4-29.49,0c-5.56.22-5.72-2.92-5.9-6.84-.2-4.28,1.5-6,5.88-5.74,5.48.3,11,.07,16.5.07Z" transform="translate(-0.04 0)"/></svg>