<svg width="274" height="182" viewBox="0 0 274 182" fill="none" xmlns="http://www.w3.org/2000/svg">
<path d="M47.7114 162.705C47.7114 162.705 171.502 164.56 196.776 162.705C222.05 160.85 232.567 155.596 244.373 123.607C256.18 91.6181 196.776 102.739 166.52 36.603C145.722 -8.85896 -15.5708 75.7007 47.7114 162.705Z" fill="#EFEFEF"/>
<path d="M245.848 60.8656H47.709V74.4644H245.848V60.8656Z" stroke="white" stroke-width="8.83" stroke-miterlimit="10"/>
<path d="M149.268 5H127.13V169.428H149.268V5Z" stroke="white" stroke-width="8.83" stroke-miterlimit="10"/>
<path d="M269 110.858H26.7688V115.34H269V110.858Z" stroke="white" stroke-width="8.83" stroke-miterlimit="10"/>
<path d="M245.939 142.692H22.3422V156.137H245.939V142.692Z" stroke="white" stroke-width="8.83" stroke-miterlimit="10"/>
<path d="M51.3055 52.597H5V177H51.3055V52.597Z" stroke="white" stroke-width="8.83" stroke-miterlimit="10"/>
<path d="M140.505 80.0274C140.505 80.0274 151.574 60.0927 125.192 60.8655C98.8104 61.6384 122.426 85.7457 135.893 64.8829C149.361 44.0201 151.574 42.1661 161.353 43.7118" stroke="#FEB701" stroke-width="5.05" stroke-miterlimit="10" stroke-dasharray="15.14 15.14"/>
<path d="M211.907 45.4116H163.826C159.041 45.4116 155.161 48.6614 155.161 52.6703V137.057C155.161 141.066 159.041 144.316 163.826 144.316H211.907C216.693 144.316 220.572 141.066 220.572 137.057V52.6703C220.572 48.6614 216.693 45.4116 211.907 45.4116Z" fill="#303D8B"/>
<path d="M210.603 47.5751H165.131C161.092 47.5751 157.819 50.3174 157.819 53.7002V133.555C157.819 136.937 161.092 139.68 165.131 139.68H210.603C214.641 139.68 217.915 136.937 217.915 133.555V53.7002C217.915 50.3174 214.641 47.5751 210.603 47.5751Z" fill="#EEEDFF"/>
<path d="M191.584 46.8021H185.358C184.225 46.8021 183.305 47.5721 183.305 48.5219V49.1008C183.305 50.0506 184.225 50.8205 185.358 50.8205H191.584C192.718 50.8205 193.637 50.0506 193.637 49.1008V48.5219C193.637 47.5721 192.718 46.8021 191.584 46.8021Z" fill="#303D8B"/>
<path d="M199.879 60.8656H165.625C163.774 60.8656 162.274 62.1224 162.274 63.6728V69.8032C162.274 71.3536 163.774 72.6104 165.625 72.6104H199.879C201.73 72.6104 203.23 71.3536 203.23 69.8032V63.6728C203.23 62.1224 201.73 60.8656 199.879 60.8656Z" fill="#C7C7E3"/>
<path d="M162.34 69.9258L162.643 75.8548L166.433 72.6103L162.34 69.9258Z" fill="#C7C7E3"/>
<path d="M198.958 101.509H164.704C162.853 101.509 161.353 102.766 161.353 104.316V110.447C161.353 111.997 162.853 113.254 164.704 113.254H198.958C200.809 113.254 202.309 111.997 202.309 110.447V104.316C202.309 102.766 200.809 101.509 198.958 101.509Z" fill="#C7C7E3"/>
<path d="M161.418 110.569L161.721 116.498L165.51 113.254L161.418 110.569Z" fill="#C7C7E3"/>
<path d="M176.51 93.4732H210.764C212.615 93.4732 214.115 92.2164 214.115 90.666V84.5356C214.115 82.9852 212.615 81.7283 210.764 81.7283H176.51C174.659 81.7283 173.159 82.9852 173.159 84.5356V90.666C173.159 92.2164 174.659 93.4732 176.51 93.4732Z" fill="#B0B0D6"/>
<path d="M214.05 90.7876L213.746 96.7177L209.958 93.4722L214.05 90.7876Z" fill="#B0B0D6"/>
<path d="M210.877 126.08H165.513C163.724 126.08 162.274 127.294 162.274 128.793V129.703C162.274 131.201 163.724 132.416 165.513 132.416H210.877C212.665 132.416 214.115 131.201 214.115 129.703V128.793C214.115 127.294 212.665 126.08 210.877 126.08Z" fill="#B0B0D6"/>
<path d="M59.1897 149.73C59.1897 150.367 59.544 150.951 60.1374 151.414H60.6644C61.7848 151.414 62.7187 150.89 62.8076 150.198L63.2257 147.018C60.9624 147.14 59.1897 148.307 59.1897 149.73Z" fill="#B0B0D6"/>
<path d="M66.7975 137.187C65.5806 138.74 62.2018 140.143 58.9632 138.858C55.7246 137.572 53.7417 133.267 53.7417 133.267C53.7417 133.267 57.8003 132.753 57.8078 132.176C57.8153 131.598 55.7259 132.753 54.3676 131.337C53.0093 129.92 48.5189 124.076 49.5629 123.498C50.1563 123.174 50.7154 122.809 51.2342 122.405C51.2342 122.405 50.1363 122.486 48.5189 121.185C44.4453 117.908 45.0712 108.013 45.0712 108.013C51.0251 106.277 56.0877 115.466 56.2216 116.623C56.3556 117.78 56.2216 120.349 56.2216 120.349C56.2216 120.349 58.4412 119.385 59.1723 119.964C59.9034 120.543 63.8731 127.032 63.5601 127.934C63.2471 128.836 60.9487 130.632 63.0368 130.696C65.125 130.76 66.2754 131.211 66.7925 131.918C67.3095 132.624 68.6778 134.789 66.7975 137.187Z" fill="#FEB701"/>
<path d="M64.5515 141.26C64.5636 141.261 64.5758 141.261 64.5878 141.26C64.6655 141.249 64.713 141.199 64.6917 141.155C64.2361 140.061 53.3898 114.487 47.9855 111.678C47.9542 111.662 47.9179 111.655 47.8815 111.657C47.8452 111.659 47.8103 111.67 47.7814 111.688C47.7692 111.696 47.7595 111.706 47.7534 111.718C47.7473 111.73 47.745 111.742 47.7466 111.755C47.7482 111.768 47.7538 111.78 47.7628 111.79C47.7718 111.801 47.7838 111.809 47.7977 111.814C53.1332 114.591 64.2987 140.931 64.4113 141.197C64.4249 141.218 64.4453 141.235 64.4702 141.246C64.4951 141.257 64.5234 141.262 64.5515 141.26Z" fill="#001065"/>
<path d="M56.8224 139.821L57.8076 147.321L58.0317 149.041L58.8579 155.324L59.082 157.044L59.564 160.715C59.6541 161.401 60.5868 161.931 61.7084 161.931H67.3957C68.5161 161.931 69.4488 161.401 69.5389 160.715L69.957 157.534L70.1298 156.214L70.6593 152.18L70.8947 150.397L71.6708 144.48L71.9049 142.698L72.2805 139.834L56.8224 139.821Z" fill="#303D8B"/>
<path d="M57.8077 147.321L58.0318 149.041L58.8581 155.324L59.0821 157.044C62.2682 156.353 64.5516 154.484 64.5516 152.287C64.5516 149.806 61.6422 147.745 57.8077 147.321Z" fill="#001065"/>
<path d="M58.0316 149.041L58.8579 155.324C60.6568 154.762 61.8886 153.613 61.8886 152.283C61.8886 150.766 60.2687 149.478 58.0316 149.041Z" fill="#B0B0D6"/>
<path d="M65.7921 147.564C65.7921 149.621 67.7951 151.389 70.6594 152.178L70.8948 150.396L71.6709 144.479L71.905 142.697C68.3872 143.252 65.7921 145.222 65.7921 147.564Z" fill="#001065"/>
<path d="M68.4562 147.564C68.4562 148.74 69.4239 149.776 70.8948 150.387L71.671 144.471C69.7731 145.011 68.4562 146.193 68.4562 147.564Z" fill="#B0B0D6"/>
<path d="M63.7905 160.242C63.7947 160.839 64.0014 161.423 64.3864 161.926H67.3909C68.5113 161.926 69.444 161.396 69.5341 160.709L69.9523 157.529L70.125 156.208C66.6148 156.28 63.7905 158.057 63.7905 160.242Z" fill="#001065"/>
<path d="M69.5127 137.859C67.213 139.032 62.9016 139.468 60.6445 137.335C58.3873 135.202 59.5115 130.495 59.5115 130.495C59.5115 130.495 63.8555 131.104 64.2749 130.546C64.6943 129.988 61.8225 130.538 61.4995 128.798C61.1765 127.058 60.9424 120.169 62.3758 119.893C63.1969 119.74 64.0043 119.538 64.7919 119.291C64.7919 119.291 63.6652 119.07 63.0005 117.368C61.3443 113.082 69.0095 103.667 69.0095 103.667C76.0801 103.612 74.4952 113.895 73.7991 115.05C73.1031 116.206 71.1427 118.661 71.1427 118.661C71.1427 118.661 74.0045 118.332 74.3099 119.092C74.6154 119.851 73.878 127.222 72.9328 128.005C71.9877 128.788 68.4511 129.907 70.4516 130.539C72.4521 131.17 73.2583 131.921 73.2671 132.748C73.2759 133.576 73.0655 136.048 69.5127 137.859Z" fill="#EFA706"/>
<path d="M64.4728 141.195C64.503 141.197 64.5331 141.191 64.5588 141.178C64.5845 141.164 64.6044 141.144 64.6155 141.121C64.941 139.942 72.5424 112.212 69.2475 108.013C69.2243 107.99 69.1931 107.973 69.1583 107.966C69.1235 107.959 69.0868 107.961 69.0534 107.972C68.9808 107.993 68.9508 108.046 68.9858 108.09C72.2407 112.238 64.404 140.808 64.3239 141.09C64.3113 141.139 64.3639 141.186 64.4428 141.195H64.4728Z" fill="#001065"/>
<path d="M57.0529 142.071H72.0504C72.8123 142.071 73.4299 141.553 73.4299 140.915V140.527C73.4299 139.889 72.8123 139.371 72.0504 139.371H57.0529C56.291 139.371 55.6734 139.889 55.6734 140.527V140.915C55.6734 141.553 56.291 142.071 57.0529 142.071Z" fill="#001065"/>
<path d="M111.557 162.499L110.484 162.709C110.248 162.755 110.001 162.721 109.795 162.615C109.589 162.508 109.441 162.339 109.384 162.142L101.957 136.635L99.9056 129.586L103.795 128.833L105.285 134.601L112.25 161.585C112.302 161.783 112.258 161.99 112.128 162.162C111.998 162.333 111.793 162.454 111.557 162.499Z" fill="#FDAB71"/>
<path d="M105.286 134.602L101.959 136.639L99.9044 129.59L103.796 128.833L105.286 134.602Z" fill="#E99163"/>
<path d="M95.0121 129.59L93.5525 134.602L85.528 162.141C85.4703 162.337 85.3226 162.507 85.1166 162.613C84.9107 162.72 84.6632 162.754 84.4276 162.708L83.3547 162.498C83.1195 162.452 82.9153 162.331 82.7863 162.16C82.6572 161.989 82.6136 161.783 82.6649 161.585L89.1033 136.636L91.1176 128.83L95.0121 129.59Z" fill="#FDAB71"/>
<path d="M95.012 129.59L93.5524 134.602L89.1057 136.639L91.12 128.833L95.012 129.59Z" fill="#E99163"/>
<path d="M85.9661 127.78H108.024C109.197 127.78 110.323 128.17 111.152 128.865C111.982 129.56 112.448 130.503 112.448 131.486V133.499C112.448 133.792 112.309 134.072 112.062 134.279C111.815 134.486 111.481 134.602 111.131 134.602H82.8602C82.5109 134.602 82.1759 134.486 81.9289 134.279C81.682 134.072 81.5432 133.792 81.5432 133.499V131.486C81.5432 130.503 82.0093 129.56 82.839 128.865C83.6687 128.17 84.794 127.78 85.9673 127.78H85.9661Z" fill="#B0B0D6"/>
<path d="M91.9475 128.695L92.5284 116.302L124.189 119.687C125.68 119.847 127.045 120.468 128.015 121.428C128.986 122.388 129.492 123.619 129.434 124.876C129.404 125.537 129.218 126.187 128.888 126.789C128.558 127.39 128.089 127.931 127.509 128.38C126.929 128.829 126.249 129.179 125.508 129.408C124.767 129.637 123.979 129.741 123.189 129.714L91.9475 128.695Z" fill="#001065"/>
<path d="M90.4854 74.6049C90.5205 74.3813 89.9052 74.1292 89.1112 74.0418C88.3172 73.9545 87.6452 74.065 87.6101 74.2886C87.575 74.5122 88.1903 74.7643 88.9843 74.8516C89.7783 74.939 90.4504 74.8285 90.4854 74.6049Z" fill="#001065"/>
<path d="M89.6945 75.5643C89.8699 75.5163 89.8101 74.9597 89.5608 74.3212C89.3115 73.6826 88.9672 73.204 88.7917 73.252C88.6162 73.3001 88.6761 73.8567 88.9254 74.4952C89.1747 75.1338 89.519 75.6124 89.6945 75.5643Z" fill="#001065"/>
<path d="M112.009 161.495C111.86 161.855 111.579 162.167 111.205 162.384C110.831 162.602 110.385 162.714 109.93 162.705H96.204L96.4356 161.495L97.2105 157.456H105.886L110.762 159.114C112.036 159.547 112.387 160.632 112.009 161.495Z" fill="#FEB701"/>
<path d="M118.214 126.993L134.437 157.456H143.113L129.333 123.116C129.062 122.495 128.648 121.925 128.114 121.438C127.58 120.952 126.937 120.558 126.221 120.279C125.505 120.001 124.731 119.843 123.943 119.815C123.154 119.787 122.367 119.89 121.626 120.117L121.594 120.127C120.811 120.366 120.095 120.74 119.494 121.223C118.892 121.707 118.417 122.29 118.099 122.936C117.781 123.582 117.627 124.276 117.647 124.975C117.667 125.673 117.86 126.361 118.214 126.993Z" fill="#001065"/>
<path d="M82.4634 122.53L82.7138 117.133L114.375 120.518C115.865 120.677 117.23 121.298 118.201 122.259C119.171 123.219 119.677 124.449 119.619 125.707C119.589 126.367 119.403 127.016 119.073 127.617C118.743 128.217 118.275 128.758 117.696 129.207C117.116 129.656 116.437 130.005 115.697 130.234C114.957 130.463 114.17 130.568 113.381 130.542L90.4917 129.797C89.3949 129.762 88.3172 129.546 87.3201 129.161C86.323 128.777 85.4261 128.232 84.6806 127.557C83.9351 126.882 83.3556 126.091 82.9752 125.228C82.5948 124.366 82.4209 123.449 82.4634 122.53Z" fill="#303D8B"/>
<path d="M119.244 127.359L105.87 157.455H97.2106L107.784 124.261C108.206 122.974 109.221 121.88 110.607 121.22C111.992 120.56 113.633 120.388 115.17 120.741L115.203 120.748C116.007 120.933 116.756 121.256 117.403 121.697C118.05 122.138 118.581 122.687 118.961 123.308C119.341 123.93 119.562 124.611 119.611 125.309C119.66 126.006 119.535 126.705 119.244 127.359Z" fill="#303D8B"/>
<path d="M140.04 81.4694C139.353 80.6095 137.178 81.202 135.408 81.8479C135.658 80.9922 135.647 80.1072 135.22 79.9153C134.606 79.6405 133.361 80.902 132.726 81.8951C132.608 82.0786 131.384 83.3632 131.258 84.0364C131.191 84.3876 131.218 84.7467 131.337 85.0881C131.455 85.4295 131.662 85.7447 131.943 86.0111C132.224 86.2776 132.572 86.4887 132.962 86.6294C133.352 86.77 133.774 86.8368 134.198 86.8248C135.038 86.9054 135.887 86.7808 136.644 86.4662C138.463 85.7321 141.602 83.4219 140.04 81.4694Z" fill="#FF7977"/>
<path d="M98.8417 89.6918C99.3893 89.123 100.065 88.6502 100.831 88.3005C101.597 87.9508 102.438 87.7311 103.305 87.6538C104.173 87.5766 105.05 87.6434 105.886 87.8504C106.723 88.0574 107.503 88.4006 108.181 88.8603L123.316 99.1045C123.849 99.4653 124.292 99.9105 124.62 100.415C124.948 100.919 125.154 101.472 125.226 102.043C125.298 102.614 125.236 103.191 125.042 103.742C124.848 104.293 124.526 104.806 124.096 105.253L124.076 105.275C123.287 106.092 122.174 106.644 120.939 106.83C119.705 107.016 118.432 106.823 117.353 106.287L100.619 97.973C99.7998 97.5658 99.0945 97.0157 98.5513 96.36C98.008 95.7043 97.6395 94.9583 97.4709 94.1728C97.3023 93.3872 97.3374 92.5805 97.574 91.8073C97.8105 91.0341 98.2428 90.3126 98.8417 89.6918Z" fill="#FEB701"/>
<path d="M115.629 99.3655L132.165 82.6133L136.97 86.3224L124.902 104.522C124.509 105.106 123.97 105.612 123.322 106.006C122.674 106.4 121.933 106.673 121.148 106.806C120.364 106.938 119.554 106.928 118.775 106.776C117.995 106.623 117.264 106.332 116.631 105.922C116.051 105.546 115.565 105.079 115.201 104.546C114.837 104.014 114.602 103.426 114.509 102.817C114.416 102.208 114.467 101.59 114.659 100.998C114.851 100.406 115.181 99.851 115.629 99.3655Z" fill="#FEB701"/>
<path d="M82.5699 118.002C94.2988 118.256 105.433 124.592 109.986 118.002L107.037 88.228C99.1072 84.6028 88.2334 84.6406 82.5699 88.228V118.002Z" fill="#FEB701"/>
<path d="M98.8968 86.3308C98.7879 87.8472 98.1795 89.5911 95.9336 89.5009C91.9965 89.3415 91.045 85.8747 91.045 85.8747C91.045 85.8747 91.3668 80.9156 91.4582 80.8653H98.7716V84.1675C98.9006 84.8832 98.9426 85.608 98.8968 86.3308Z" fill="#FF7977"/>
<path d="M98.8968 86.3308C93.2371 85.3472 92.4321 82.8462 92.4321 82.8462L98.1194 80.8653H98.7716V84.1675C98.9006 84.8832 98.9426 85.608 98.8968 86.3308Z" fill="#F35757"/>
<path d="M90.3864 79.0648C90.3864 79.0648 92.0826 86.0121 98.4109 84.5901C99.1287 84.4319 99.7839 84.1175 100.31 83.6789C100.78 83.2839 101.121 82.7942 101.3 82.2569C101.937 80.3295 101.825 77.1846 101.139 73.076L90.3864 73.8425V79.0648Z" fill="#FF7977"/>
<path d="M85.0246 88.1587C85.8887 88.258 86.721 88.4991 87.4738 88.8682C88.2266 89.2372 88.8851 89.727 89.4117 90.3094C89.9383 90.8918 90.3227 91.5555 90.5428 92.2625C90.7628 92.9695 90.8143 93.7059 90.6943 94.4296L88.0329 110.579C87.8434 111.727 87.117 112.766 86.0136 113.465C84.9102 114.165 83.5201 114.469 82.1491 114.311H82.1165C80.8739 114.168 79.7345 113.654 78.9069 112.865C78.0793 112.075 77.6188 111.062 77.6098 110.011L77.4733 93.7144C77.4645 92.9154 77.6615 92.1242 78.0509 91.3947C78.4402 90.6653 79.0128 90.0147 79.7295 89.4874C80.4462 88.9601 81.2902 88.5685 82.204 88.3392C83.1178 88.1099 84.0798 88.0483 85.0246 88.1587Z" fill="#FEB701"/>
<path d="M89.9847 79.5892C90.006 79.5892 91.2454 78.4577 92.3295 79.9814C92.3295 79.9814 90.4166 79.2274 90.006 79.5892" fill="#F35757"/>
<path d="M108.382 101.83L107.686 94.7996L109.081 102.177L108.382 101.83Z" fill="#E59E00"/>
<path d="M112.009 161.495C111.86 161.855 111.579 162.166 111.205 162.384C110.831 162.601 110.385 162.714 109.93 162.705H96.204L96.4356 161.495H112.009Z" fill="#001065"/>
<path d="M149.238 161.495C149.089 161.856 148.807 162.168 148.432 162.385C148.058 162.603 147.61 162.715 147.154 162.705H133.433L133.664 161.495L134.44 157.456H143.115L147.99 159.114C149.263 159.547 149.614 160.632 149.238 161.495Z" fill="#FEB701"/>
<path d="M149.238 161.495C149.089 161.856 148.807 162.168 148.432 162.385C148.058 162.603 147.61 162.715 147.154 162.705H133.433L133.664 161.495H149.238Z" fill="#001065"/>
<path d="M92.9241 76.5658C97.9504 77.2998 102.089 76.2512 103.172 73.7166C103.271 73.4827 103.3 73.2323 103.257 72.9868C103.215 72.7413 103.102 72.5081 102.928 72.3074C102.754 72.1066 102.525 71.9442 102.259 71.8342C101.994 71.7242 101.7 71.6699 101.404 71.6759C99.0946 71.7284 95.1787 72.432 91.3643 72.9983C91.0798 73.0399 90.8035 73.114 90.543 73.2185C88.3135 74.1151 87.6875 75.8212 88.1933 78.0989C89.0483 81.485 90.3653 82.0932 91.7862 82.0837C91.6973 80.062 93.5375 78.4712 92.9241 76.5658Z" fill="#001065"/>
<path d="M91.1326 81.7975C92.0611 81.7975 92.8138 80.9853 92.8138 79.9833C92.8138 78.9814 92.0611 78.1692 91.1326 78.1692C90.204 78.1692 89.4513 78.9814 89.4513 79.9833C89.4513 80.9853 90.204 81.7975 91.1326 81.7975Z" fill="#FF7977"/>
<path d="M89.9847 79.7034C89.9622 79.7139 91.1677 78.6359 92.0741 79.846C92.0741 79.846 90.7571 79.371 89.9847 79.7034Z" fill="#F35757"/>
<path d="M113.81 117.646C114.501 116.789 113.025 115.324 111.643 114.196C112.682 114.066 113.657 113.725 113.709 113.321C113.781 112.741 111.916 112.251 110.579 112.134C110.329 112.112 108.451 111.648 107.658 111.804C107.29 111.876 106.942 112.008 106.635 112.193C106.327 112.379 106.066 112.613 105.867 112.882C105.668 113.152 105.534 113.452 105.473 113.765C105.412 114.078 105.426 114.398 105.513 114.706C105.555 114.853 105.613 114.997 105.687 115.135C105.914 115.817 106.373 116.429 107.006 116.898C108.501 118.031 112.238 119.59 113.81 117.646Z" fill="#FF7977"/>
<path d="M84.8106 105.464L109.571 111.966L107.284 117.094L82.6099 114.6C81.8159 114.515 81.0531 114.288 80.3731 113.935C79.6932 113.581 79.112 113.109 78.6691 112.551C78.2261 111.992 77.9318 111.36 77.8061 110.698C77.6804 110.036 77.7262 109.359 77.9404 108.713C78.3374 107.519 79.2841 106.506 80.5725 105.897C81.8608 105.288 83.3853 105.132 84.8106 105.464Z" fill="#FEB701"/>
<path d="M89.748 100.174L88.7064 106.488L105.434 110.882L89.4 105.909L89.748 100.174Z" fill="#CC8800"/>
<path d="M82.6099 114.603L107.284 117.097L82.6099 115.17V114.603Z" fill="#CC8800"/>
<path d="M95.673 89.4842C95.673 89.4842 98.2255 87.7791 98.8815 85.0023L100.961 86.2607C100.961 86.2607 99.5926 89.7212 97.5946 90.7562L95.673 89.4842Z" fill="#303D8B"/>
<path d="M95.2675 89.4391C95.2675 89.4391 91.8437 87.6249 91.1889 84.8481L88.8417 85.9629C88.8417 85.9629 91.3454 89.7956 93.3384 90.8285L95.2675 89.4391Z" fill="#303D8B"/>
<path d="M95.4916 89.504V94.8008" stroke="#303D8B" stroke-width="1.26" stroke-miterlimit="10"/>
<path d="M135.986 87.8074L131.224 84.4559" stroke="#303D8B" stroke-width="1.26" stroke-miterlimit="10"/>
<path d="M107.284 111.368L105.434 115.403" stroke="#303D8B" stroke-width="1.26" stroke-miterlimit="10"/>
<path d="M143.457 77.1984L137.982 76.1707C137.456 76.072 136.933 76.3492 136.816 76.79L134.108 86.9112C133.99 87.352 134.321 87.7894 134.847 87.8882L140.323 88.9159C140.849 89.0147 141.371 88.7374 141.489 88.2966L144.196 78.1754C144.314 77.7346 143.983 77.2972 143.457 77.1984Z" fill="#001065"/>
<path d="M183.566 63.7723H168.031C167.618 63.7723 167.283 64.0529 167.283 64.3989C167.283 64.745 167.618 65.0255 168.031 65.0255H183.566C183.979 65.0255 184.315 64.745 184.315 64.3989C184.315 64.0529 183.979 63.7723 183.566 63.7723Z" fill="#303D8B"/>
<path d="M194.018 67.5328H168.131C167.718 67.5328 167.383 67.8133 167.383 68.1593C167.383 68.5054 167.718 68.7859 168.131 68.7859H194.018C194.431 68.7859 194.766 68.5054 194.766 68.1593C194.766 67.8133 194.431 67.5328 194.018 67.5328Z" fill="#303D8B"/>
<path d="M183.118 104.889H167.583C167.17 104.889 166.834 105.169 166.834 105.515C166.834 105.861 167.17 106.142 167.583 106.142H183.118C183.531 106.142 183.866 105.861 183.866 105.515C183.866 105.169 183.531 104.889 183.118 104.889Z" fill="#303D8B"/>
<path d="M193.568 108.649H167.682C167.269 108.649 166.934 108.93 166.934 109.276C166.934 109.622 167.269 109.902 167.682 109.902H193.568C193.982 109.902 194.317 109.622 194.317 109.276C194.317 108.93 193.982 108.649 193.568 108.649Z" fill="#303D8B"/>
<path d="M203.469 84.8314H187.935C187.521 84.8314 187.186 85.1119 187.186 85.4579C187.186 85.804 187.521 86.0845 187.935 86.0845H203.469C203.883 86.0845 204.218 85.804 204.218 85.4579C204.218 85.1119 203.883 84.8314 203.469 84.8314Z" fill="#303D8B"/>
<path d="M203.895 88.7177H178.009C177.595 88.7177 177.26 88.9982 177.26 89.3442C177.26 89.6903 177.595 89.9708 178.009 89.9708H203.895C204.308 89.9708 204.644 89.6903 204.644 89.3442C204.644 88.9982 204.308 88.7177 203.895 88.7177Z" fill="#303D8B"/>
</svg>
