<svg width="200" height="130" viewBox="0 0 200 130" fill="none" xmlns="http://www.w3.org/2000/svg">
<path d="M181.747 127.966H31.2908C31.2908 127.966 1.9248 125.931 9.17568 103.892C15.7091 84.0367 22.8291 93.3541 9.85726 78.5337C8.43612 76.9062 6.7647 74.9837 4.82505 72.6984C-14.7523 49.6422 30.9283 25.9077 40.717 41.8437C50.5058 57.7796 28.0279 -7.99849 86.0352 0.817051C144.042 9.6326 91.4733 54.0499 162.532 52.0156C233.591 49.9813 181.747 127.966 181.747 127.966Z" fill="#FFF0E3"/>
<path opacity="0.38" d="M181.747 127.966H151.391C154.882 105.703 156.873 69.9182 132.441 74.3938C97.274 80.836 104.887 45.2343 86.0352 25.2296C67.183 5.22494 67.546 51.3374 40.717 45.9127C20.1608 41.7558 12.3769 66.6599 9.85726 78.5339C8.43612 76.9064 6.7647 74.9839 4.82505 72.6986C-14.7523 49.6422 30.9283 25.9077 40.717 41.8437C50.5058 57.7796 28.0279 -7.99849 86.0352 0.817051C144.042 9.6326 91.4733 54.0499 162.532 52.0156C233.591 49.9813 181.747 127.966 181.747 127.966Z" fill="white"/>
<path d="M160.357 113.386C160.357 113.386 164.345 109.656 160.357 95.7546C156.369 81.853 154.919 77.4453 162.532 72.3593C162.532 72.3593 173.408 80.4969 168.695 88.2953C163.982 96.0936 161.082 96.4328 162.532 102.197C163.982 107.961 162.17 113.047 160.357 114.742C158.544 116.437 160.357 113.386 160.357 113.386Z" fill="#494E6D"/>
<path d="M158.182 112.708C158.182 112.708 159.994 108.3 156.006 105.927C152.018 103.553 149.118 101.18 150.206 89.3124C150.206 89.3124 159.994 94.7375 159.269 101.519C158.543 108.3 160.356 112.03 158.906 114.403C157.456 116.776 158.182 112.708 158.182 112.708Z" fill="#9FA3BF"/>
<path d="M162.532 110.673C162.532 110.673 165.07 106.605 163.62 101.858C162.169 97.1109 169.058 92.7031 169.058 92.7031C169.058 92.7031 172.683 98.8063 169.782 101.858C166.882 104.909 164.707 105.248 163.982 110.334C163.257 115.42 162.532 110.673 162.532 110.673Z" fill="#5F6386"/>
<path d="M63.3834 124.463C63.3826 124.421 63.3875 124.379 63.3979 124.338C63.8438 124.43 64.2934 124.524 64.7466 124.619C64.7069 124.773 64.608 124.909 64.4685 124.999C64.3291 125.09 64.159 125.129 63.9906 125.11C63.8222 125.09 63.6672 125.014 63.5552 124.895C63.4433 124.775 63.3821 124.622 63.3834 124.463Z" fill="#494E6D"/>
<path d="M64.79 127.966H55.197L56.0381 124.612L64.4782 126.626L64.79 127.966Z" fill="#494E6D"/>
<path d="M47.5835 127.966H35.7029C35.7718 127.63 35.8479 127.298 35.9313 126.962C36.1258 126.193 36.363 125.433 36.6419 124.687C40.0612 125.691 43.7261 126.786 47.5835 127.966Z" fill="#494E6D"/>
<path d="M64.7901 127.966H47.8484L47.7722 122.639L56.0382 124.612L64.4783 126.626L64.7901 127.966Z" fill="#494E6D"/>
<path d="M64.7683 124.463C64.7684 124.516 64.7611 124.568 64.7466 124.619C64.7069 124.773 64.608 124.909 64.4685 124.999C64.3291 125.09 64.159 125.129 63.9906 125.11C63.8222 125.09 63.6672 125.014 63.5552 124.895C63.4433 124.775 63.3821 124.622 63.3834 124.463C63.3826 124.421 63.3875 124.379 63.3979 124.338C63.4309 124.18 63.5257 124.039 63.6636 123.943C63.8016 123.847 63.9728 123.803 64.144 123.818C64.3152 123.834 64.4739 123.909 64.5894 124.028C64.7048 124.147 64.7686 124.302 64.7683 124.463Z" fill="#001065"/>
<path d="M75.3111 63.9804C75.3111 63.9804 85.7729 68.4503 96.5262 73.7673C108.448 79.6625 120.644 86.743 117.517 93.0419C110.631 106.91 67.3775 76.9485 67.3775 76.9485C61.4254 71.328 67.9165 62.7932 75.3111 63.9804Z" fill="#FD8B66"/>
<path d="M93.4724 70.3411C91.633 76.9694 88.1138 83.5922 82.9146 90.2096L60.6931 74.2891L69.2309 60.7388L93.4724 70.3411Z" fill="#FFAA40"/>
<path d="M140.872 65.1968C140.872 65.1968 97.8653 81.9947 103.11 93.5268C109.024 106.531 145.964 71.2238 145.964 71.2238C145.964 71.2238 146.871 67.3884 140.872 65.1968Z" fill="#FD8B66"/>
<path d="M138.215 66.2819C138.215 66.2819 138.005 63.4418 139.146 61.3822C140.288 59.3227 141.308 58.0723 141.289 55.3421C141.27 52.6118 144.256 52.9875 144.166 55.3595C144.076 57.7315 143.392 61.4819 146.275 60.5709C149.158 59.6599 152.199 52.4888 155.058 56.2659C155.058 56.2659 157.199 53.388 158.331 54.4448C159.463 55.5016 157.539 58.122 157.539 58.122C157.539 58.122 161.754 58.3229 155.699 64.1253C155.699 64.1253 157.364 65.2019 156.335 66.4765C154.69 68.5151 149.517 71.2303 144.989 72.1383C137.631 73.6139 138.215 66.2819 138.215 66.2819Z" fill="#FD8B66"/>
<path d="M148.278 62.9473C154.392 58.4262 155.253 56.4305 155.287 56.3476L154.829 56.1827C154.821 56.2023 153.934 58.1789 147.973 62.5873L148.278 62.9473Z" fill="#E56542"/>
<path d="M150.256 64.8888C153.682 62.7792 157.687 58.3139 157.727 58.2691L157.35 57.9749C157.311 58.019 153.351 62.4331 149.985 64.5053L150.256 64.8888Z" fill="#E56542"/>
<path d="M151.191 67.2641C153.254 66.0201 155.815 64.3301 155.841 64.3129L155.558 63.938C155.532 63.9549 152.979 65.6396 150.926 66.8783L151.191 67.2641Z" fill="#E56542"/>
<path d="M63.3836 124.463C63.3828 124.421 63.3877 124.379 63.3981 124.338C61.0017 123.846 58.6814 123.388 56.4518 122.968L56.039 124.612L64.4791 126.626L64.7909 127.966H47.8485V128.047C47.7616 128.02 47.671 127.993 47.5839 127.966H36.044C36.0187 127.742 35.9788 127.403 35.9317 126.962C35.4282 122.361 33.8035 106.51 33.568 91.8521V91.8249L33.557 91.1739C33.5281 88.8683 33.5316 86.6001 33.5825 84.4097C33.5825 84.4097 33.5788 84.4097 33.5825 84.4062C33.6807 80.1645 33.9486 76.2382 34.4598 72.9798V72.9765C35.1269 68.6874 36.2182 65.5578 37.8931 64.3948C39.0821 63.5782 40.3534 62.8719 41.6889 62.2858C44.1615 61.1805 46.9749 60.3497 49.8969 59.8038C54.7768 58.8918 59.9649 58.7701 64.406 59.4886H64.4096C66.4113 59.8107 68.2526 60.3023 69.8513 60.9668L69.855 60.9703C69.9711 61.0177 70.0835 61.0652 70.1958 61.116H70.1994C70.2465 61.1364 70.2937 61.1567 70.3372 61.177C70.3409 61.177 70.3409 61.1805 70.3444 61.1805C70.6345 61.3127 70.9173 61.4483 71.1855 61.5939C72.1572 62.1093 73.0672 62.8789 73.9119 63.869H73.9156C75.0793 65.2253 76.1342 66.9884 77.084 69.0634C78.8061 72.8168 80.1947 77.5909 81.3186 82.8023C81.3213 82.823 81.3261 82.8435 81.3331 82.8633C81.5506 83.8941 81.7645 84.9384 81.9639 85.9996V86.0031C82.214 87.3321 82.4508 88.6771 82.6744 90.0379C83.5555 95.4697 84.2081 101.081 84.683 106.316C85.1688 111.623 85.4769 116.546 85.6691 120.506C85.8288 123.737 85.9083 126.328 85.9516 127.965H79.9876C74.6691 126.738 69.5536 125.612 64.7463 124.619C64.7066 124.773 64.6077 124.908 64.4683 124.999C64.3289 125.089 64.1588 125.129 63.9903 125.109C63.8219 125.09 63.667 125.014 63.555 124.894C63.443 124.775 63.3818 124.622 63.3831 124.463L63.3836 124.463Z" fill="#FFAA40"/>
<path d="M45.5508 73.088C45.5508 73.088 52.1781 81.8799 58.6004 91.5408C65.7208 102.252 72.439 114.116 66.3432 118.082C52.9221 126.815 31.7103 80.5492 31.7103 80.5492C29.598 72.8891 39.8034 68.5772 45.5508 73.088Z" fill="#FD8B66"/>
<path d="M54.9293 83.1583C49.3127 88.8274 42.4953 92.5569 35.0156 95.2167L28.265 79.5058C27.248 77.139 27.1924 74.5058 28.1089 72.1033C29.0254 69.7008 30.8505 67.6951 33.2397 66.4648L41.6051 62.157L54.9293 83.1583Z" fill="#FFAA40"/>
<path d="M107.695 109.562C107.695 109.562 58.0661 99.4824 56.1434 112.591C53.9754 127.373 108.864 117.767 108.864 117.767C108.864 117.767 111.955 114.935 107.695 109.562Z" fill="#FD8B66"/>
<path d="M104.601 108.981C104.601 108.981 106.075 106.375 108.339 105.231C110.604 104.087 112.281 103.58 113.867 101.181C115.453 98.7821 117.993 100.831 116.517 102.854C115.04 104.876 112.206 107.763 115.407 108.627C118.608 109.491 125.63 104.97 126.056 109.921C126.056 109.921 129.725 108.637 130.151 110.213C130.577 111.79 127.26 112.974 127.26 112.974C127.26 112.974 131.039 115.578 122.033 117.165C122.033 117.165 122.941 119.066 121.241 119.589C118.521 120.424 112.145 119.82 107.425 118.006C99.7548 115.058 104.601 108.981 104.601 108.981Z" fill="#FD8B66"/>
<path d="M115.842 111.844C124.148 111.411 126.118 110.161 126.198 110.108L125.915 109.733C125.896 109.745 123.913 110.963 115.814 111.386L115.842 111.844Z" fill="#E56542"/>
<path d="M117.051 114.689C121.417 114.689 127.264 113.211 127.324 113.196L127.195 112.753C127.133 112.768 120.879 114.349 116.547 114.223L116.532 114.682C116.702 114.687 116.876 114.689 117.051 114.689Z" fill="#E56542"/>
<path d="M121.993 117.395H122.034L122.033 116.936C122 116.938 118.65 116.938 116.022 116.839L116.002 117.298C118.483 117.392 121.605 117.395 121.993 117.395Z" fill="#E56542"/>
<path d="M82.548 89.2576L83.5243 89.1603C83.512 89.052 82.2335 78.2343 77.2267 68.9965L76.3513 69.412C81.2741 78.4953 82.5356 89.1511 82.548 89.2576Z" fill="#E08716"/>
<path d="M58.9071 71.4128C59.7459 71.4105 60.5825 71.332 61.4051 71.1785C68.5821 69.8623 70.15 61.385 70.2129 61.0254L69.2443 60.8761C69.2294 60.9581 67.72 69.0847 61.2163 70.2774C55.1968 71.3818 50.1694 68.1755 46.2731 60.7485L45.3918 61.153C48.9688 67.972 53.5075 71.4128 58.9071 71.4128Z" fill="#E08716"/>
<path d="M33.7176 92.1206C34.3217 91.8523 48.5539 85.4935 52.6818 80.5711L51.9088 80.0043C47.9233 84.7568 33.4424 91.2256 33.2966 91.291L33.7176 92.1206Z" fill="#E08716"/>
<path d="M82.4744 84.4665C86.0102 80.1426 90.1131 69.5545 90.2851 69.1059L89.3615 68.7944C89.3193 68.9031 85.1378 79.6975 81.6946 83.9087L82.4744 84.4665Z" fill="#E08716"/>
<path d="M66.7213 106.809L71.1676 106.317L71.0525 105.405L67.3207 105.818L65.1074 101.234L64.2126 101.612L66.7213 106.809Z" fill="#E56542"/>
<path d="M58.3009 67.4205C63.8238 67.4205 66.342 61.3867 64.8579 59.9987C64.4139 59.5601 64.0605 59.0483 63.8157 58.4893H63.8117C63.4376 57.6511 63.1853 56.7697 63.0614 55.8688L63.0574 55.865L52.8467 47.3472C53.3982 52.7704 50.9165 56.578 50.0163 59.2896C49.1202 62.0011 52.0196 67.4205 58.3009 67.4205Z" fill="#FB855F"/>
<path d="M54.6387 53.7602C57.5667 58.9976 63.6405 58.4779 63.8112 58.4893C63.4372 57.6511 63.1849 56.7697 63.061 55.8688L63.057 55.865C62.7815 55.7171 51.8946 48.8511 54.6387 53.7602Z" fill="#E56542"/>
<path d="M42.7476 37.6028C42.7476 37.6028 43.1865 42.553 50.8824 47.6525C58.951 52.9991 49.7667 36.5668 49.7667 36.5668L42.7476 37.6028Z" fill="#8E3332"/>
<path d="M63.7553 34.629C63.7553 34.629 64.8448 38.8947 66.2574 43.6824C68.2765 50.5263 68.4488 56.0603 60.9944 56.0603C48.4742 56.0603 49.3079 36.6301 49.3079 36.6301L63.7553 34.629Z" fill="#FB855F"/>
<path d="M48.1191 41.827C46.1471 42.5816 47.5158 47.2732 51.8119 47.7335C55.125 48.0885 51.1562 40.6651 48.1191 41.827Z" fill="#FB855F"/>
<path d="M57.3264 44.1427C57.8097 44.1427 58.2014 43.7763 58.2014 43.3244C58.2014 42.8724 57.8097 42.506 57.3264 42.506C56.8432 42.506 56.4514 42.8724 56.4514 43.3244C56.4514 43.7763 56.8432 44.1427 57.3264 44.1427Z" fill="#8E3332"/>
<path d="M63.5076 42.7368C63.9908 42.7368 64.3826 42.3704 64.3826 41.9184C64.3826 41.4665 63.9908 41.1001 63.5076 41.1001C63.0243 41.1001 62.6326 41.4665 62.6326 41.9184C62.6326 42.3704 63.0243 42.7368 63.5076 42.7368Z" fill="#8E3332"/>
<path d="M62.306 48.7548C62.5238 48.7619 62.7393 48.7124 62.9288 48.6118C63.1182 48.5111 63.2741 48.3633 63.3791 48.1848C63.5777 47.7999 63.4693 47.2635 62.7797 46.9319C62.6099 46.8525 62.4701 46.7265 62.379 46.5708C62.2879 46.4151 62.2498 46.237 62.2699 46.0605L61.285 45.9319C61.2773 45.9824 61.1068 47.174 62.3253 47.7593C62.3566 47.774 62.3866 47.7907 62.4153 47.8095C62.3054 47.8364 62.1888 47.8246 62.0875 47.7763L61.6782 48.6241C61.8752 48.7089 62.0892 48.7535 62.306 48.7548Z" fill="#8E3332"/>
<path d="M64.4977 50.3504L60.272 50.9491C60.272 50.9491 60.9762 53.5241 62.897 53.2246C64.8179 52.9252 64.4977 50.3504 64.4977 50.3504Z" fill="white"/>
<path d="M54.8137 41.9782C54.9866 41.6002 55.263 41.2715 55.6149 41.0252C55.9669 40.7789 56.382 40.6237 56.8185 40.5752L56.7676 39.6466C56.1481 39.7036 55.5562 39.9144 55.0532 40.2573C54.5502 40.6002 54.1544 41.0626 53.9067 41.5967L54.8137 41.9782Z" fill="#8E3332"/>
<path d="M61.6479 39.6915C62.7749 38.9438 64.3456 39.2819 64.3611 39.2855L64.5912 38.381C64.5092 38.3622 62.5622 37.9446 61.0725 38.9331L61.6479 39.6915Z" fill="#8E3332"/>
<path d="M60.4323 43.1524C60.3165 42.3239 59.8843 41.5624 59.2154 41.0084C58.5464 40.4545 57.6859 40.1454 56.7924 40.1382H56.7742C55.821 40.1392 54.9053 40.4855 54.2192 41.1044C53.5331 41.7233 53.1299 42.5666 53.0944 43.4575V43.4609C53.0908 43.5016 53.0908 43.5422 53.0908 43.5863C53.0908 44.5004 53.4791 45.3771 54.1702 46.0234C54.8613 46.6698 55.7987 47.0329 56.7761 47.0329C57.7535 47.0329 58.6908 46.6698 59.3819 46.0234C60.073 45.3771 60.4613 44.5004 60.4613 43.5863C60.4608 43.4413 60.4511 43.2964 60.4323 43.1524ZM56.7742 46.5703C56.1763 46.5704 55.5904 46.4132 55.0835 46.1166C54.5766 45.82 54.1692 45.3959 53.9078 44.893C53.6465 44.39 53.5417 43.8284 53.6056 43.2724C53.6695 42.7164 53.8993 42.1884 54.2689 41.7488C54.5458 41.4144 54.8962 41.1397 55.2965 40.9431C55.6969 40.7466 56.1377 40.6328 56.5892 40.6095C56.596 40.6067 56.6035 40.6055 56.611 40.6061C56.6653 40.6028 56.7197 40.6028 56.7741 40.6028C57.1947 40.6003 57.6117 40.6757 58.0011 40.8246C58.3905 40.9734 58.7445 41.1928 59.0429 41.4701C59.3412 41.7474 59.578 42.0772 59.7396 42.4404C59.9012 42.8036 59.9843 43.1931 59.9843 43.5865C59.9843 43.9799 59.9012 44.3694 59.7396 44.7326C59.578 45.0959 59.3412 45.4256 59.0429 45.7029C58.7445 45.9802 58.3905 46.1996 58.0011 46.3485C57.6117 46.4973 57.1947 46.5727 56.7741 46.5703H56.7742Z" fill="#8E3332"/>
<path d="M64.7936 38.5209C64.7502 38.5175 64.703 38.5175 64.6595 38.5175C64.6244 38.5169 64.5894 38.5181 64.5544 38.5209C63.6684 38.5433 62.821 38.8649 62.1688 39.4262L62.1653 39.4295C61.7903 39.7524 61.4911 40.1445 61.2864 40.5811C61.0817 41.0176 60.9761 41.4891 60.9761 41.9658C60.9751 42.1486 60.9909 42.3313 61.0233 42.5117C61.0478 42.6657 61.0853 42.8176 61.1356 42.966C61.3323 43.5719 61.7036 44.1154 62.2088 44.5369C62.714 44.9584 63.3336 45.2415 63.9996 45.3553C64.6656 45.469 65.3523 45.409 65.9842 45.1818C66.6161 44.9545 67.1689 44.5688 67.5818 44.0671C67.9947 43.5653 68.2519 42.9669 68.325 42.3374C68.3981 41.7079 68.2844 41.0718 67.9964 40.4988C67.7083 39.9258 67.257 39.4381 66.692 39.0893C66.127 38.7404 65.4702 38.5438 64.7936 38.5212V38.5209ZM66.4686 44.4172C65.9906 44.7264 65.4313 44.9074 64.8511 44.9406C64.271 44.9737 63.6923 44.8577 63.1776 44.6052C62.6629 44.3526 62.232 43.9731 61.9315 43.5079C61.6309 43.0426 61.4723 42.5093 61.4728 41.9658C61.4754 41.3768 61.6626 40.8014 62.0112 40.3109C62.3598 39.8204 62.8545 39.4362 63.4341 39.2058H63.4451C63.7619 39.0851 64.0971 39.0119 64.4383 38.9888C64.5109 38.9854 64.5834 38.9821 64.6594 38.9821C64.7478 38.9814 64.8362 38.9859 64.924 38.9956H64.9277C65.5825 39.0462 66.2045 39.2851 66.7085 39.6794C67.2124 40.0737 67.5735 40.6042 67.7423 41.198C67.911 41.7919 67.8792 42.42 67.6512 42.9963C67.4231 43.5726 67.01 44.0688 66.4685 44.4168L66.4686 44.4172Z" fill="#8E3332"/>
<path d="M61.3566 42.422L60.1614 42.7415L60.2981 43.1888L61.4933 42.8693L61.3566 42.422Z" fill="#8E3332"/>
<path d="M64.2522 37.2698C64.2522 37.2698 56.9726 40.4938 49.3078 36.6302L42.7476 37.6028C42.7476 37.6028 44.5736 32.5709 49.1793 30.6131C53.785 28.6553 65.7176 29.2425 64.2522 37.2698Z" fill="#8E3332"/>
<path d="M40.5962 41.9686C45.4522 41.9686 49.3887 38.287 49.3887 33.7456C49.3887 29.2041 45.4522 25.5226 40.5962 25.5226C35.7402 25.5226 31.8037 29.2041 31.8037 33.7456C31.8037 38.287 35.7402 41.9686 40.5962 41.9686Z" fill="#8E3332"/>
<path d="M184.285 125.931H25.1277V130H184.285V125.931Z" fill="#5F6386"/>
<path d="M171.596 108.3L171.476 109.748L170.145 125.931H153.106L151.467 109.995L151.293 108.3H171.596Z" fill="#FFAA40"/>
<path d="M176.503 96.9082C176.552 96.9082 176.599 96.89 176.633 96.8577C176.668 96.8254 176.687 96.7816 176.687 96.7359C176.687 96.6902 176.668 96.6464 176.633 96.6141C176.599 96.5817 176.552 96.5636 176.503 96.5636C176.454 96.5636 176.407 96.5817 176.373 96.6141C176.338 96.6464 176.319 96.6902 176.319 96.7359C176.319 96.7816 176.338 96.8254 176.373 96.8577C176.407 96.89 176.454 96.9082 176.503 96.9082Z" fill="white"/>
<path d="M150.282 89.7324C150.606 91.347 151.309 92.8741 152.341 94.2031C153.407 95.5666 155.125 96.5232 155.928 98.0526C156.782 99.6774 156.367 101.572 156.587 103.308C156.805 105.019 157.878 106.287 158.911 107.653C158.979 107.743 159.139 107.657 159.071 107.566C158.512 106.826 157.901 106.099 157.436 105.302C156.955 104.477 156.767 103.59 156.714 102.658C156.628 101.151 156.84 99.5524 156.17 98.1321C155.476 96.6582 153.916 95.7628 152.855 94.5449C151.638 93.1362 150.816 91.4666 150.461 89.6866C150.439 89.5778 150.261 89.6239 150.283 89.7325L150.282 89.7324Z" fill="white"/>
<path d="M169.069 92.841C168.625 93.1971 168.171 93.5609 167.84 94.018C167.489 94.5031 167.346 95.0688 167.199 95.6303C167.031 96.274 166.883 96.9263 166.912 97.593C166.941 98.2402 167.113 98.8729 167.246 99.5057C167.411 100.292 167.524 101.097 167.21 101.865C166.954 102.493 166.481 103.005 166.056 103.538C165.269 104.527 164.675 105.626 164.582 106.871C164.574 106.981 164.758 106.981 164.767 106.871C164.867 105.51 165.602 104.378 166.464 103.319C167.238 102.369 167.706 101.491 167.563 100.271C167.405 98.9145 166.931 97.7048 167.22 96.3233C167.351 95.6938 167.49 94.9903 167.803 94.4138C168.123 93.8245 168.672 93.3859 169.2 92.9629C169.29 92.8905 169.159 92.7691 169.069 92.841H169.069Z" fill="white"/>
<path d="M162.432 72.5667C161.701 73.9802 161.344 75.5375 161.392 77.107C161.399 77.7859 161.585 78.4528 161.934 79.0481C162.335 79.6933 162.929 80.2072 163.391 80.8109C164.395 82.1222 164.754 83.744 164.845 85.3281C164.892 86.1291 164.954 87.0011 164.641 87.7622C164.279 88.6418 163.592 89.4464 162.931 90.1435C162.853 90.2262 162.983 90.3485 163.061 90.2653C164.1 89.1701 165.024 87.9658 165.054 86.4563C165.085 84.9716 164.925 83.4174 164.318 82.0331C164.06 81.4498 163.716 80.9035 163.294 80.4108C162.679 79.6872 161.978 79.0413 161.721 78.1182C161.229 76.3536 161.775 74.2591 162.591 72.6533C162.642 72.5537 162.483 72.4662 162.432 72.5664L162.432 72.5667Z" fill="white"/>
<path d="M162.932 90.0604C162.633 90.758 162.084 91.3155 161.734 91.9875C161.447 92.5414 161.267 93.1388 161.204 93.7516C161.059 95.1462 161.624 96.4107 162.231 97.6523C162.28 97.753 162.439 97.6656 162.39 97.5653C161.74 96.2355 161.165 94.8892 161.439 93.3998C161.561 92.7539 161.816 92.1362 162.189 91.5807C162.513 91.0919 162.878 90.6442 163.109 90.1061C163.153 90.0027 162.975 89.9585 162.931 90.0601L162.932 90.0604Z" fill="white"/>
<path d="M173.046 106.944L171.476 109.748L171.338 109.995H151.253L149.118 106.944H173.046Z" fill="#D38129"/>
<path opacity="0.23" d="M173.046 106.944L171.476 109.748L170.145 125.931H162.547C163.801 118.529 163.562 113.379 162.953 109.995C162.84 109.371 162.713 108.808 162.583 108.299C162.452 107.791 162.315 107.34 162.18 106.943L173.046 106.944Z" fill="white"/>
<path d="M69.7207 125.931H25.1277V130H69.7207V125.931Z" fill="#4C516B"/>
<path d="M134.122 126.101H88.9552C86.4635 126.101 84.5245 123.908 84.798 121.399L88.306 89.222C88.54 87.0752 90.3309 85.4504 92.4631 85.4504H138.994C141.556 85.4504 143.516 87.7634 143.128 90.3292L138.256 122.507C137.943 124.574 136.187 126.101 134.122 126.101Z" fill="#9FA3BF"/>
<path d="M95.8091 121.015H50.5204C50.0117 121.015 49.5994 121.401 49.5994 121.876V125.239C49.5994 125.715 50.0117 126.101 50.5204 126.101H95.8091C96.3178 126.101 96.7302 125.715 96.7302 125.239V121.876C96.7302 121.401 96.3178 121.015 95.8091 121.015Z" fill="#9FA3BF"/>
<path d="M145.804 90.3299L140.935 122.507C140.62 124.575 138.865 126.101 136.799 126.101H91.6329C89.1422 126.101 87.2025 123.907 87.4744 121.398L90.9839 89.2211C91.2196 87.0748 93.0103 85.4507 95.1423 85.4507H141.671C142.062 85.4505 142.451 85.5054 142.824 85.6135C144.793 86.1831 146.134 88.1666 145.804 90.3299Z" fill="#C7C7E3"/>
<path d="M116.67 108.639C118.772 108.639 120.477 107.045 120.477 105.079C120.477 103.113 118.772 101.519 116.67 101.519C114.568 101.519 112.863 103.113 112.863 105.079C112.863 107.045 114.568 108.639 116.67 108.639Z" fill="#9FA3BF"/>
<path opacity="0.23" d="M145.804 90.3297L140.935 122.507C140.62 124.575 138.865 126.101 136.799 126.101H119.099C119.508 125.823 119.968 125.54 120.477 125.253C134.152 117.526 140.663 94.9376 142.824 85.6133C144.793 86.1829 146.134 88.1664 145.804 90.3297Z" fill="white"/>
<path d="M47.8482 127.966V128.047C47.7612 128.02 47.6706 127.993 47.5835 127.966H47.8482Z" fill="white"/>
<path d="M159.269 9.40218V28.5122C159.269 29.62 158.798 30.6822 157.961 31.4655C157.123 32.2488 155.987 32.689 154.803 32.6895H99.5654C98.9786 32.6906 98.3972 32.5832 97.8548 32.3737C97.3124 32.1641 96.8196 31.8565 96.4046 31.4684C95.9896 31.0803 95.6606 30.6194 95.4366 30.1121C95.2125 29.6048 95.0978 29.0611 95.0989 28.5122V9.40218C95.0994 8.29444 95.5701 7.2322 96.4076 6.44891C97.2452 5.66562 98.381 5.22537 99.5654 5.22491H154.803C155.389 5.22475 155.97 5.33268 156.512 5.54255C157.054 5.75242 157.547 6.06011 157.961 6.44804C158.376 6.83597 158.705 7.29653 158.93 7.80341C159.154 8.3103 159.269 8.85357 159.269 9.40218Z" fill="#FFAA40"/>
<path d="M101.45 32.6891L100.175 44.8953L115.401 31.3328L101.45 32.6891Z" fill="#FFAA40"/>
<path d="M157.819 7.36757V26.4774C157.819 27.5851 157.348 28.6474 156.51 29.4306C155.673 30.2139 154.537 30.6542 153.353 30.6547H98.1152C97.5286 30.6548 96.9478 30.5468 96.4058 30.337C95.8638 30.1271 95.3714 29.8194 94.9566 29.4315C94.5418 29.0436 94.2128 28.583 93.9884 28.0761C93.764 27.5693 93.6485 27.026 93.6487 26.4774V7.36757C93.6492 6.25984 94.1199 5.1976 94.9575 4.41431C95.795 3.63102 96.9308 3.19077 98.1152 3.19032H153.353C153.939 3.18926 154.521 3.29658 155.063 3.50613C155.606 3.71568 156.098 4.02334 156.513 4.41144C156.928 4.79955 157.257 5.26047 157.481 5.76776C157.705 6.27504 157.82 6.81871 157.819 7.36757Z" fill="#494E6D"/>
<path d="M138.604 23.8734H101.262V25.2296H138.604V23.8734Z" fill="white"/>
<path d="M148.03 20.1437H101.262V21.4999H148.03V20.1437Z" fill="white"/>
<path d="M129.54 16.753H101.262V18.1092H129.54V16.753Z" fill="white"/>
<path d="M148.03 13.3624H101.262V14.7186H148.03V13.3624Z" fill="white"/>
<path d="M136.066 7.59839H101.262V8.95459H136.066V7.59839Z" fill="white"/>
<path d="M100 30.6547L98.7241 42.8609L113.951 29.2983L100 30.6547Z" fill="#494E6D"/>
<path d="M118.833 59.0469C118.833 59.0469 115.217 55.7161 120.312 51.8435C125.407 47.9708 128.491 48.9071 128.519 52.2635C128.547 55.6199 122.466 64.2954 118.833 59.0469Z" fill="#FFAA40"/>
<path d="M16.974 63.0146C16.4495 62.761 15.959 62.4503 15.5126 62.089C13.5222 60.5122 10.6689 56.8301 14.9796 50.2963C18.5579 44.8714 22.0093 42.62 24.6704 42.8369C26.5013 42.9827 27.9586 44.3051 28.8214 46.5633C30.9392 52.1034 26.2261 69.7418 16.974 63.0146Z" fill="#494E6D"/>
<path d="M69.1769 22.8563C72.2804 22.8563 74.7963 20.5033 74.7963 17.6008C74.7963 14.6982 72.2804 12.3453 69.1769 12.3453C66.0733 12.3453 63.5574 14.6982 63.5574 17.6008C63.5574 20.5033 66.0733 22.8563 69.1769 22.8563Z" stroke="#494E6D" stroke-width="3" stroke-miterlimit="10"/>
<path d="M183.016 77.9539C185.218 77.9539 187.004 76.2841 187.004 74.2242C187.004 72.1644 185.218 70.4946 183.016 70.4946C180.813 70.4946 179.028 72.1644 179.028 74.2242C179.028 76.2841 180.813 77.9539 183.016 77.9539Z" stroke="#FFAA40" stroke-width="3" stroke-miterlimit="10"/>
<path d="M84.4232 44.8845C84.4232 44.8845 86.6236 42.3196 89.8354 45.3319C93.0472 48.3442 92.5733 50.3978 90.1019 50.6514C87.6305 50.905 80.8105 47.5943 84.4232 44.8845Z" fill="#494E6D"/>
<path d="M29.0251 105.327C28.5501 105.771 27.6475 106.202 26.6069 106.504C23.8081 107.321 20.0049 107.236 20.7374 104.154C20.7374 104.154 20.7374 100.865 25.2582 101.336C25.6953 101.379 26.1297 101.442 26.56 101.526C29.9604 102.194 30.5985 103.858 29.0251 105.327Z" fill="#FFAA40"/>
<path opacity="0.23" d="M159.269 9.40217V28.5122C159.269 29.62 158.798 30.6822 157.96 31.4655C157.123 32.2487 155.987 32.689 154.803 32.6895H119.125C118.563 32.2791 118.381 31.8281 118.664 31.3332C118.799 31.0943 118.957 30.8674 119.136 30.6555C122.496 26.6579 131.698 30.4555 145.493 26.5868C155.843 23.681 154.926 11.7936 153.556 5.22583C153.396 4.46974 153.233 3.78474 153.081 3.19141H153.353C154.314 3.19217 155.249 3.48243 156.02 4.01922C156.792 4.556 157.357 5.31077 157.634 6.17176C158.145 6.5634 158.557 7.05635 158.84 7.61501C159.123 8.17366 159.269 8.78408 159.269 9.40217Z" fill="white"/>
<path opacity="0.23" d="M16.9739 63.0146C16.4494 62.761 15.9588 62.4503 15.5125 62.0889C25.8558 57.7658 25.5114 47.6787 24.6703 42.8369C26.5011 42.9827 27.9585 44.3051 28.8212 46.5633C30.9391 52.1034 26.2259 69.7418 16.9739 63.0146Z" fill="white"/>
<path opacity="0.23" d="M29.025 105.327C28.55 105.771 27.6473 106.202 26.6068 106.504C25.0839 105.096 25.9796 102.699 26.5596 101.526C29.9603 102.194 30.5984 103.858 29.025 105.327Z" fill="white"/>
</svg>
