<svg width="169" height="151" viewBox="0 0 169 151" fill="none" xmlns="http://www.w3.org/2000/svg">
<path d="M1.59083 95.5667C1.80425 96.216 2.0371 96.8556 2.28936 97.4857C6.21098 107.295 14.6075 114.571 23.0725 115.79C23.657 115.875 24.2465 115.93 24.8382 115.955C25.7263 115.994 26.6165 115.961 27.4976 115.855C31.7857 115.339 35.7869 114.982 39.5246 114.768C40.2283 114.727 40.9223 114.692 41.6069 114.663C78.8236 113.02 89.0237 125.958 98.4069 134.403C98.6795 134.648 98.9515 134.89 99.2229 135.127C105.744 140.82 112.24 144.063 127.578 138.4C131.851 136.823 134.976 134.75 137.197 132.356C137.445 132.091 137.68 131.822 137.903 131.55C149.62 117.308 131.97 93.0392 131.97 93.0392C134.321 84.5586 140.931 77.8626 146.797 71.0333C147.236 70.522 147.67 70.0098 148.099 69.4966C153.473 63.0613 157.86 56.3817 157.129 47.8767C157.088 47.4078 157.033 46.9334 156.959 46.4528C156.266 41.8283 154.065 36.6636 149.739 30.7244C143.564 22.2447 136.866 19.7314 129.494 19.3166C128.978 19.2877 128.458 19.2688 127.935 19.2598C123.795 19.1821 119.446 19.6674 114.858 20.0551C114.158 20.1147 113.451 20.1709 112.739 20.2238C100.557 21.122 86.7314 20.6702 70.7981 7.09706C58.7026 -3.20698 40.4174 -1.24912 26.6645 6.3305C26.2038 6.58303 25.748 6.84305 25.297 7.11056C22.2581 8.89834 19.462 10.9886 16.9637 13.3403C16.4072 13.8669 15.8713 14.4043 15.3563 14.9526C9.55469 21.1201 6.50321 28.5149 8.40063 35.7744C10.4074 43.4515 18.7937 53.4335 11.6686 60.3937C11.301 60.7527 10.9432 61.1134 10.5953 61.4759C10.0775 62.0125 9.58153 62.5524 9.10736 63.0955C7.92831 64.4391 6.84311 65.8449 5.85781 67.3052C5.4921 67.8471 5.14554 68.3905 4.81812 68.9356C2.23038 73.2327 0.780189 77.5956 0.243316 81.844C0.172813 82.3969 0.118106 82.9479 0.0791965 83.4971C-0.211616 87.5672 0.299855 91.651 1.59083 95.5667Z" fill="#DADEF2"/>
<path d="M0.078125 83.4982C6.57912 86.1962 12.14 90.3868 16.1794 95.632C16.5961 96.1721 16.9957 96.7234 17.3783 97.2858C21.1164 102.769 23.0862 109.05 23.0747 115.45C23.0747 115.564 23.0737 115.676 23.0727 115.79C23.6571 115.875 24.2467 115.93 24.8384 115.955C24.8415 115.787 24.8425 115.619 24.8425 115.45C24.854 108.96 22.9142 102.583 19.2214 96.972C18.8578 96.4173 18.4775 95.8723 18.0807 95.337C13.714 89.4292 7.52467 84.7478 0.243064 81.8451C0.17222 82.398 0.11724 82.949 0.078125 83.4982Z" fill="white"/>
<path d="M4.81812 68.9365C17.7153 71.6992 28.4955 79.2451 34.6126 89.3273C34.9364 89.8603 35.2469 90.4005 35.544 90.9479C38.526 96.442 40.0692 102.459 40.0591 108.551C40.0602 110.633 39.8816 112.711 39.525 114.769C40.2287 114.729 40.9227 114.693 41.6073 114.664C41.9371 112.639 42.1022 110.596 42.1015 108.551C42.112 102.093 40.4514 95.7178 37.2465 89.9126C36.9443 89.3652 36.6291 88.8244 36.3009 88.2903C29.9823 78.0006 19.0001 70.2686 5.85791 67.3062C5.49213 67.8482 5.14553 68.3916 4.81812 68.9365Z" fill="white"/>
<path d="M1.59058 95.5667C1.804 96.216 2.03684 96.8556 2.28911 97.4857C7.2999 98.1114 12.3905 98.0439 17.3778 97.2855C17.9966 97.1926 18.6111 97.088 19.2211 96.9717C25.0382 95.8758 30.5733 93.8329 35.5434 90.9476C36.1205 90.6131 36.6881 90.268 37.2462 89.9123C49.4019 82.186 57.3176 69.5812 57.3176 55.3443C57.3176 41.5431 49.8789 29.2758 38.3491 21.4986C37.6332 21.0144 36.9013 20.5488 36.1534 20.1017C30.3897 16.6426 23.8408 14.3354 16.9635 13.3409C16.4069 13.8676 15.8711 14.405 15.356 14.9532C23.3307 15.9038 30.8822 18.6891 37.2533 23.0299C37.9314 23.4906 38.5945 23.9677 39.2427 24.461C49.0598 31.9361 55.275 42.9994 55.275 55.3442C55.275 68.8813 47.8016 80.877 36.3004 88.2899C35.7469 88.647 35.1842 88.9927 34.6123 89.327C29.6016 92.2687 23.9843 94.3107 18.0806 95.3366C17.4515 95.4466 16.8176 95.5449 16.1791 95.6316C11.3425 96.285 6.41959 96.2631 1.59068 95.5666L1.59058 95.5667Z" fill="white"/>
<path d="M9.10693 63.0966C26.6293 60.7519 40.0587 47.3944 40.0587 31.2665C40.0599 28.979 39.7864 26.6979 39.2427 24.4614C38.9976 23.4559 38.6998 22.4684 38.3492 21.499C36.2003 15.5503 32.1407 10.281 26.664 6.33148C26.2034 6.58401 25.7476 6.84404 25.2965 7.11154C29.4229 9.99451 32.7558 13.6657 35.0449 17.8493C37.3341 22.0329 38.5199 26.6201 38.5134 31.2665C38.5134 46.1778 26.5251 58.6173 10.5949 61.477C10.0771 62.0136 9.5811 62.5534 9.10693 63.0966Z" fill="white"/>
<path d="M127.935 19.2608C129.413 33.5535 141.467 45.1443 157.129 47.8777C157.088 47.4088 157.033 46.9345 156.96 46.4538C142.258 43.7003 130.976 32.777 129.494 19.3176C128.978 19.2887 128.458 19.2698 127.935 19.2608Z" fill="white"/>
<path d="M111.239 30.6803C111.239 50.1395 126.362 66.4802 146.797 71.0343C147.236 70.523 147.67 70.0108 148.099 69.4976C128.121 65.3935 113.237 49.5723 113.237 30.6803C113.233 27.0906 113.779 23.517 114.858 20.0562C114.158 20.1157 113.451 20.1719 112.739 20.2248C111.74 23.6399 111.236 27.1531 111.239 30.6803Z" fill="white"/>
<path d="M98.4067 134.404C98.6794 134.649 98.9514 134.891 99.2227 135.128C101.429 132.641 104.194 130.584 107.343 129.084C110.492 127.585 113.959 126.677 117.524 126.417C121.09 126.157 124.678 126.55 128.063 127.572C131.449 128.594 134.558 130.223 137.197 132.357C137.444 132.092 137.68 131.823 137.903 131.55C135.153 129.343 131.919 127.659 128.401 126.601C124.883 125.544 121.157 125.137 117.453 125.404C113.75 125.672 110.148 126.609 106.871 128.157C103.595 129.705 100.714 131.831 98.4067 134.404V134.404Z" fill="white"/>
<path d="M103.669 34.7808V116.171C103.669 118.383 102.673 120.505 100.902 122.069C99.1302 123.633 96.7275 124.512 94.2221 124.513H51.5413C49.0359 124.513 46.6332 123.634 44.8617 122.069C43.0902 120.505 42.095 118.383 42.095 116.171V34.7808C42.0948 33.6853 42.339 32.6004 42.8137 31.5883C43.2883 30.5761 43.9841 29.6565 44.8613 28.8818C45.7385 28.1071 46.78 27.4926 47.9261 27.0734C49.0723 26.6542 50.3007 26.4384 51.5413 26.4385H94.2218C96.7273 26.4385 99.1302 27.3174 100.902 28.8819C102.674 30.4464 103.669 32.5683 103.669 34.7808H103.669Z" fill="#5F6386"/>
<path d="M92.2163 121.319H53.5474C51.0419 121.319 48.639 120.44 46.8673 118.876C45.0957 117.311 44.1003 115.189 44.1003 112.977V37.9745C44.1002 36.8789 44.3445 35.7941 44.8192 34.7819C45.294 33.7697 45.9898 32.8501 46.8671 32.0754C47.7443 31.3007 48.7858 30.6862 49.932 30.267C51.0783 29.8478 52.3068 29.6321 53.5474 29.6322H92.2165C94.7221 29.6322 97.125 30.5111 98.8966 32.0756C100.668 33.6401 101.664 35.762 101.664 37.9745V112.977C101.664 115.189 100.668 117.311 98.8966 118.876C97.125 120.44 94.7221 121.319 92.2165 121.319L92.2163 121.319Z" fill="#EBEDFC"/>
<path d="M62.9844 28.6168H82.6684V29.5259C82.6684 29.9495 82.5739 30.3689 82.3903 30.7602C82.2067 31.1516 81.9377 31.5072 81.5985 31.8067C81.2593 32.1062 80.8566 32.3438 80.4134 32.5059C79.9703 32.668 79.4953 32.7515 79.0156 32.7515H66.6367C65.668 32.7514 64.739 32.4115 64.0541 31.8066C63.3692 31.2017 62.9844 30.3813 62.9844 29.5259V28.6165V28.6168Z" fill="#5F6386"/>
<path d="M72.9087 31.2627C74.0745 31.2627 75.0196 30.4281 75.0196 29.3987C75.0196 28.3692 74.0745 27.5347 72.9087 27.5347C71.7429 27.5347 70.7979 28.3692 70.7979 29.3987C70.7979 30.4281 71.7429 31.2627 72.9087 31.2627Z" fill="#2A2E42"/>
<path d="M96.9231 48.7615H49.9463V61.026H96.9231V48.7615Z" fill="#F8F9FF"/>
<path d="M96.9231 65.8057H49.9463V78.0702H96.9231V65.8057Z" fill="#F8F9FF"/>
<path d="M96.9231 84.1123H49.9463V96.3768H96.9231V84.1123Z" fill="#F8F9FF"/>
<path d="M96.9231 102.419H49.9463V114.683H96.9231V102.419Z" fill="#F8F9FF"/>
<path d="M61.2541 50.2945H53.3439C52.3698 50.2945 51.5801 50.9918 51.5801 51.8521V57.9353C51.5801 58.7956 52.3698 59.4929 53.3439 59.4929H61.2541C62.2282 59.4929 63.0179 58.7956 63.0179 57.9353V51.8521C63.0179 50.9918 62.2282 50.2945 61.2541 50.2945Z" fill="#EBEDFC"/>
<path d="M57.2991 58.3206C59.4424 58.3206 61.1798 56.7864 61.1798 54.8938C61.1798 53.0012 59.4424 51.4669 57.2991 51.4669C55.1559 51.4669 53.4185 53.0012 53.4185 54.8938C53.4185 56.7864 55.1559 58.3206 57.2991 58.3206Z" fill="#FFAA40"/>
<path d="M88.2302 56.517H67.5238C67.3478 56.517 67.2051 56.643 67.2051 56.7984V56.957C67.2051 57.1124 67.3478 57.2384 67.5238 57.2384H88.2302C88.4062 57.2384 88.5489 57.1124 88.5489 56.957V56.7984C88.5489 56.643 88.4062 56.517 88.2302 56.517Z" fill="#EBEDFC"/>
<path d="M82.8178 54.0822H67.6261C67.4501 54.0822 67.3074 54.2082 67.3074 54.3636V54.5222C67.3074 54.6776 67.4501 54.8036 67.6261 54.8036H82.8178C82.9938 54.8036 83.1365 54.6776 83.1365 54.5222V54.3636C83.1365 54.2082 82.9938 54.0822 82.8178 54.0822Z" fill="#EBEDFC"/>
<path d="M88.3325 51.4669H67.6261C67.4501 51.4669 67.3074 51.5929 67.3074 51.7483V51.907C67.3074 52.0624 67.4501 52.1884 67.6261 52.1884H88.3325C88.5085 52.1884 88.6512 52.0624 88.6512 51.907V51.7483C88.6512 51.5929 88.5085 51.4669 88.3325 51.4669Z" fill="#EBEDFC"/>
<path d="M61.1522 67.3387H53.2421C52.268 67.3387 51.4783 68.036 51.4783 68.8963V74.9795C51.4783 75.8398 52.268 76.5371 53.2421 76.5371H61.1522C62.1264 76.5371 62.9161 75.8398 62.9161 74.9795V68.8963C62.9161 68.036 62.1264 67.3387 61.1522 67.3387Z" fill="#EBEDFC"/>
<path d="M57.1971 75.3647C59.3403 75.3647 61.0778 73.8304 61.0778 71.9378C61.0778 70.0452 59.3403 68.511 57.1971 68.511C55.0539 68.511 53.3164 70.0452 53.3164 71.9378C53.3164 73.8304 55.0539 75.3647 57.1971 75.3647Z" fill="#FFAA40"/>
<path d="M88.1284 73.5612H67.422C67.246 73.5612 67.1033 73.6872 67.1033 73.8426V74.0012C67.1033 74.1566 67.246 74.2826 67.422 74.2826H88.1284C88.3044 74.2826 88.4471 74.1566 88.4471 74.0012V73.8426C88.4471 73.6872 88.3044 73.5612 88.1284 73.5612Z" fill="#EBEDFC"/>
<path d="M82.7155 71.1262H67.5238C67.3478 71.1262 67.2051 71.2522 67.2051 71.4076V71.5662C67.2051 71.7217 67.3478 71.8477 67.5238 71.8477H82.7155C82.8915 71.8477 83.0342 71.7217 83.0342 71.5662V71.4076C83.0342 71.2522 82.8915 71.1262 82.7155 71.1262Z" fill="#EBEDFC"/>
<path d="M88.2302 68.511H67.5238C67.3478 68.511 67.2051 68.637 67.2051 68.7924V68.951C67.2051 69.1064 67.3478 69.2324 67.5238 69.2324H88.2302C88.4062 69.2324 88.5489 69.1064 88.5489 68.951V68.7924C88.5489 68.637 88.4062 68.511 88.2302 68.511Z" fill="#EBEDFC"/>
<path d="M61.2541 85.6453H53.3439C52.3698 85.6453 51.5801 86.3427 51.5801 87.2029V93.2862C51.5801 94.1464 52.3698 94.8438 53.3439 94.8438H61.2541C62.2282 94.8438 63.0179 94.1464 63.0179 93.2862V87.2029C63.0179 86.3427 62.2282 85.6453 61.2541 85.6453Z" fill="#EBEDFC"/>
<path d="M57.2991 93.6714C59.4424 93.6714 61.1798 92.1371 61.1798 90.2445C61.1798 88.3519 59.4424 86.8177 57.2991 86.8177C55.1559 86.8177 53.4185 88.3519 53.4185 90.2445C53.4185 92.1371 55.1559 93.6714 57.2991 93.6714Z" fill="#FFAA40"/>
<path d="M88.2302 91.8679H67.5238C67.3478 91.8679 67.2051 91.9939 67.2051 92.1493V92.3079C67.2051 92.4633 67.3478 92.5893 67.5238 92.5893H88.2302C88.4062 92.5893 88.5489 92.4633 88.5489 92.3079V92.1493C88.5489 91.9939 88.4062 91.8679 88.2302 91.8679Z" fill="#EBEDFC"/>
<path d="M82.8178 89.4329H67.6261C67.4501 89.4329 67.3074 89.5589 67.3074 89.7143V89.8729C67.3074 90.0283 67.4501 90.1543 67.6261 90.1543H82.8178C82.9938 90.1543 83.1365 90.0283 83.1365 89.8729V89.7143C83.1365 89.5589 82.9938 89.4329 82.8178 89.4329Z" fill="#EBEDFC"/>
<path d="M88.3325 86.8177H67.6261C67.4501 86.8177 67.3074 86.9437 67.3074 87.0991V87.2577C67.3074 87.4131 67.4501 87.5391 67.6261 87.5391H88.3325C88.5085 87.5391 88.6512 87.4131 88.6512 87.2577V87.0991C88.6512 86.9437 88.5085 86.8177 88.3325 86.8177Z" fill="#EBEDFC"/>
<path d="M61.2541 103.952H53.3439C52.3698 103.952 51.5801 104.649 51.5801 105.51V111.593C51.5801 112.453 52.3698 113.15 53.3439 113.15H61.2541C62.2282 113.15 63.0179 112.453 63.0179 111.593V105.51C63.0179 104.649 62.2282 103.952 61.2541 103.952Z" fill="#EBEDFC"/>
<path d="M57.2991 111.978C59.4424 111.978 61.1798 110.444 61.1798 108.551C61.1798 106.659 59.4424 105.124 57.2991 105.124C55.1559 105.124 53.4185 106.659 53.4185 108.551C53.4185 110.444 55.1559 111.978 57.2991 111.978Z" fill="#FFAA40"/>
<path d="M88.2302 110.174H67.5238C67.3478 110.174 67.2051 110.3 67.2051 110.456V110.614C67.2051 110.77 67.3478 110.896 67.5238 110.896H88.2302C88.4062 110.896 88.5489 110.77 88.5489 110.614V110.456C88.5489 110.3 88.4062 110.174 88.2302 110.174Z" fill="#EBEDFC"/>
<path d="M82.8178 107.74H67.6261C67.4501 107.74 67.3074 107.866 67.3074 108.021V108.18C67.3074 108.335 67.4501 108.461 67.6261 108.461H82.8178C82.9938 108.461 83.1365 108.335 83.1365 108.18V108.021C83.1365 107.866 82.9938 107.74 82.8178 107.74Z" fill="#EBEDFC"/>
<path d="M88.3325 105.124H67.6261C67.4501 105.124 67.3074 105.25 67.3074 105.406V105.564C67.3074 105.72 67.4501 105.846 67.6261 105.846H88.3325C88.5085 105.846 88.6512 105.72 88.6512 105.564V105.406C88.6512 105.25 88.5085 105.124 88.3325 105.124Z" fill="#EBEDFC"/>
<path opacity="0.23" d="M42.0483 34.7808V116.171C42.0488 118.383 43.0442 120.505 44.8158 122.069C46.5874 123.633 48.99 124.512 51.4954 124.513H82.734C79.0504 123.96 75.8427 122.868 73.0476 121.319C54.8714 111.24 54.2068 81.8241 54.2068 55.7952C54.2068 44.4362 59.1455 37.0002 65.2872 32.1437C66.4333 31.2381 67.6446 30.3992 68.9136 29.6321C69.5038 29.2741 70.0968 28.9357 70.6926 28.6167C72.2093 27.8035 73.7828 27.0758 75.4035 26.4379H51.4961C48.9906 26.4379 46.5877 27.3168 44.816 28.8813C43.0444 30.4458 42.0491 32.5677 42.0491 34.7802L42.0483 34.7808Z" fill="white"/>
<path d="M161.15 126.453L166.81 132.689C166.988 132.885 167.238 133.02 167.516 133.072C167.794 133.124 168.084 133.089 168.336 132.974C168.48 132.908 168.607 132.818 168.711 132.709C168.815 132.6 168.894 132.474 168.943 132.338C168.991 132.202 169.009 132.059 168.995 131.917C168.982 131.774 168.936 131.636 168.862 131.51L163.05 121.618L159.471 123.511L161.15 126.453Z" fill="#1C5276"/>
<path d="M157.419 124.889L159.122 121.957L162.731 123.591C162.925 123.679 163.072 123.832 163.139 124.016C163.206 124.199 163.188 124.399 163.088 124.571L162.138 126.207C162.038 126.379 161.865 126.509 161.657 126.568C161.449 126.627 161.223 126.611 161.029 126.523L157.42 124.888L157.419 124.889Z" fill="#FD8B66"/>
<path d="M107.168 142.486L101.354 148.611C101.171 148.804 101.07 149.046 101.067 149.297C101.064 149.548 101.159 149.792 101.337 149.988C101.541 150.213 101.838 150.357 102.162 150.388C102.486 150.419 102.811 150.336 103.066 150.156L112.909 143.183L110.106 140.455L107.168 142.486Z" fill="#1C5276"/>
<path d="M107.415 139.334L111.096 139.87L110.436 143.404C110.4 143.594 110.281 143.764 110.103 143.877C109.925 143.989 109.704 144.035 109.489 144.003L107.434 143.704C107.219 143.673 107.026 143.567 106.898 143.41C106.771 143.253 106.72 143.058 106.755 142.868L107.415 139.334L107.415 139.334Z" fill="#FD8B66"/>
<path d="M117.43 63.3409C117.43 63.3409 113.321 65.3381 109.12 67.6685C104.463 70.2521 99.733 73.2984 101.21 75.6332C104.461 80.7742 121.078 68.1079 121.078 68.1079C123.317 65.7899 120.399 62.6866 117.43 63.3409Z" fill="#FD8B66"/>
<path d="M110.251 66.2709C111.214 68.7667 112.861 71.2155 115.19 73.6173L123.711 66.9074L119.798 61.933L110.251 66.2709Z" fill="#FFAA40"/>
<path d="M89.31 64.2125C89.31 64.2125 108.223 71.9782 105.817 75.9467C103.105 80.4213 87.0122 66.1945 87.0122 66.1945C87.0122 66.1945 86.6387 64.7708 89.31 64.2125Z" fill="#FD8B66"/>
<path d="M90.4779 64.7096C90.4779 64.7096 90.5918 63.6898 90.1015 62.8996C89.6112 62.1094 89.1689 61.6168 89.1972 60.6294C89.2255 59.6419 87.9009 59.6609 87.9236 60.5229C87.9463 61.385 88.2218 62.7693 86.9522 62.3265C85.6827 61.8838 84.3892 59.169 83.0961 60.4244C83.0961 60.4244 82.1695 59.2988 81.6606 59.6369C81.1518 59.975 81.9844 60.9989 81.9844 60.9989C81.9844 60.9989 80.1175 60.9064 82.7551 63.244C82.7551 63.244 82.0101 63.5684 82.4563 64.0701C83.1701 64.8725 85.4395 66.058 87.4369 66.5641C90.6832 67.3863 90.4779 64.7096 90.4779 64.7096Z" fill="#FD8B66"/>
<path d="M86.0542 63.1189L86.1802 62.9789C83.5509 61.1337 83.1933 60.3974 83.19 60.3906L83.0024 60.4576C83.0171 60.4888 83.3834 61.2444 86.0542 63.1189Z" fill="#FD8B66"/>
<path d="M85.1632 63.7434L85.2768 63.5953C83.7997 62.7121 82.0782 60.9579 82.061 60.9404L81.9077 61.0571C81.925 61.075 83.664 62.8467 85.1632 63.7434Z" fill="#FD8B66"/>
<path d="M84.732 64.5661L84.8441 64.4173C83.9439 63.8883 82.8256 63.1782 82.8145 63.1711L82.6963 63.3161C82.7075 63.3233 83.8286 64.0353 84.732 64.5661Z" fill="#FD8B66"/>
<path d="M113.384 118.409C112.093 118.181 110.95 117.524 110.189 116.575C109.429 115.625 109.109 114.454 109.295 113.303C110.945 103.184 113.029 93.2146 115.004 85.7423L126.589 84.978C124.291 93.4814 121.388 105.827 119.465 114.792C119.338 115.384 119.08 115.947 118.705 116.45C118.33 116.953 117.846 117.385 117.28 117.721C116.714 118.058 116.079 118.292 115.41 118.41C114.742 118.528 114.053 118.528 113.384 118.409Z" fill="#30354F"/>
<path d="M115.337 109.803C114.65 109.682 113.943 109.685 113.258 109.813C112.573 109.942 111.925 110.193 111.354 110.55C110.783 110.908 110.3 111.365 109.937 111.894C109.573 112.422 109.335 113.011 109.238 113.623C107.861 122.352 105.934 133.64 105.109 139.248L113.669 140.766C114.762 134.404 117.696 122.971 119.374 115.088C119.624 113.915 119.34 112.703 118.584 111.713C117.829 110.724 116.662 110.038 115.337 109.803Z" fill="#30354F"/>
<path d="M132.896 117.282C131.583 117.369 130.282 117.009 129.26 116.275C128.238 115.542 127.572 114.49 127.401 113.337C125.902 103.2 124.74 92.7909 124.363 85.1249L135.613 84.3826C135.995 93.1181 136.765 103.261 137.649 112.352C137.707 112.952 137.63 113.556 137.423 114.129C137.215 114.703 136.88 115.234 136.438 115.693C135.996 116.151 135.455 116.528 134.848 116.8C134.24 117.073 133.576 117.237 132.896 117.282Z" fill="#30354F"/>
<path d="M127.73 110.771C127.41 111.321 127.222 111.923 127.175 112.54C127.129 113.157 127.226 113.776 127.46 114.359C127.695 114.942 128.061 115.476 128.538 115.929C129.015 116.381 129.592 116.743 130.233 116.992C139.37 120.539 150.709 124.83 156.594 127.057L160.578 120.197C153.943 117.537 142.72 112.35 134.586 108.778C133.376 108.247 131.978 108.159 130.695 108.532C129.411 108.904 128.346 109.709 127.73 110.771Z" fill="#30354F"/>
<path d="M114.994 85.7431C114.994 85.7431 113.549 65.5622 119.032 62.3141C122.175 60.452 129.006 60.4507 132.662 62.4952C136.353 64.559 135.547 84.3867 135.547 84.3867L114.994 85.7431Z" fill="#FFAA40"/>
<path d="M130.034 64.1285C130.034 64.1285 127.005 67.2917 124.027 70.7951C120.724 74.6789 117.541 79.0177 119.866 80.7315C124.984 84.5053 135.372 67.428 135.372 67.428C136.523 64.5561 132.541 62.5797 130.034 64.1285Z" fill="#FD8B66"/>
<path d="M124.517 69.1324C126.564 71.4965 129.178 73.1583 132.105 74.4324L135.493 68.6393C136.003 67.7665 136.134 66.759 135.861 65.8068C135.588 64.8546 134.93 64.0236 134.01 63.4706L130.791 61.5347L124.517 69.1324Z" fill="#FFAA40"/>
<path d="M124.179 64.3873C121.797 64.5445 120.503 62.1591 121.095 61.5522C121.272 61.361 121.406 61.1426 121.493 60.908H121.494C121.627 60.5561 121.705 60.1901 121.728 59.8197L121.729 59.818L125.839 56.0594C125.788 58.2832 126.989 59.7629 127.471 60.8414C127.951 61.9196 126.887 64.2084 124.179 64.3873Z" fill="#FD8B66"/>
<g opacity="0.14">
<path opacity="0.14" d="M125.287 58.7213C124.205 60.9371 121.567 60.8982 121.494 60.9077C121.627 60.5558 121.705 60.1898 121.728 59.8194L121.729 59.8177C121.843 59.7497 126.301 56.6444 125.287 58.7213Z" fill="#231F20"/>
</g>
<path d="M122.626 59.8382C120.324 59.9903 119.611 58.8762 119.624 57.1869C119.634 56.7102 119.682 56.2347 119.768 55.7639C119.813 55.4994 119.867 55.2268 119.93 54.9487C120.374 52.9587 120.697 51.1915 120.697 51.1915L126.996 51.5946C126.996 51.5946 128.025 59.4822 122.626 59.8382Z" fill="#FD8B66"/>
<path d="M124.344 65.7569C126.542 65.6119 128.276 64.1687 129.509 61.453L129.134 61.3199C127.791 64.2756 125.85 65.6412 123.368 65.3789C120.682 65.0951 119.808 62.0166 119.8 61.9856L119.406 62.0697C119.444 62.2064 120.357 65.4211 123.32 65.734C123.66 65.7708 124.003 65.7784 124.344 65.7569Z" fill="#E08716"/>
<path d="M132.994 72.666L133.167 72.3427C133.117 72.3218 128.121 70.227 126.213 68.2785L125.906 68.5125C127.871 70.5182 132.786 72.5793 132.994 72.666Z" fill="#E08716"/>
<path d="M120.396 96.3477L128.815 96.0865L127.276 89.7156C127.276 89.7156 124.065 89.8293 123.292 89.8804C122.518 89.9315 120.396 96.3477 120.396 96.3477Z" fill="#30354F"/>
<path d="M125.938 92.9187L126.017 92.5679L122.926 92.0299L123.564 85.478L123.161 85.4474L122.491 92.3188L125.938 92.9187Z" fill="#30354F"/>
<path d="M132.372 84.7058L132.007 84.8598L135.692 91.678L136.057 91.524L132.372 84.7058Z" fill="#30354F"/>
<path d="M117.421 85.5647L112.781 93.7164L113.142 93.877L117.783 85.7253L117.421 85.5647Z" fill="#30354F"/>
<path d="M104.887 139.39L105.361 135.74L114.496 137.909L113.829 140.976L104.887 139.39ZM105.71 136.193L105.332 139.104L113.508 140.554L114.028 138.168L105.71 136.193Z" fill="#30354F"/>
<path d="M153.085 126.055L157.37 118.677L160.854 120.114L156.692 127.281L153.085 126.055ZM157.553 119.146L153.651 125.865L156.497 126.832L160.302 120.281L157.553 119.146Z" fill="#30354F"/>
<path d="M126.848 58.2112C127.75 58.2112 128.482 57.5654 128.482 56.7688C128.482 55.9721 127.75 55.3263 126.848 55.3263C125.946 55.3263 125.215 55.9721 125.215 56.7688C125.215 57.5654 125.946 58.2112 126.848 58.2112Z" fill="#FD8B66"/>
<path d="M120.579 57.158L122.307 57.24C122.307 57.24 122.255 58.5919 121.306 58.5319C120.357 58.472 120.579 57.158 120.579 57.158Z" fill="white"/>
<path d="M123.067 54.2903C123.239 54.2903 123.379 54.1671 123.379 54.015C123.379 53.8629 123.239 53.7396 123.067 53.7396C122.894 53.7396 122.755 53.8629 122.755 54.015C122.755 54.1671 122.894 54.2903 123.067 54.2903Z" fill="#8E3332"/>
<path d="M121.096 54.0402C121.268 54.0402 121.408 53.9169 121.408 53.7648C121.408 53.6127 121.268 53.4894 121.096 53.4894C120.924 53.4894 120.784 53.6127 120.784 53.7648C120.784 53.9169 120.924 54.0402 121.096 54.0402Z" fill="#8E3332"/>
<path d="M121.581 56.2181C121.758 56.2051 121.93 56.1587 122.086 56.0822L121.892 55.7682C121.522 55.9463 121.182 55.8401 121.09 55.6985C120.978 55.528 121.261 55.357 121.351 55.309C121.64 55.1543 121.868 54.9252 122.004 54.6526C122.141 54.3799 122.18 54.0768 122.116 53.7841L121.721 53.8619L121.918 53.823L121.721 53.861C121.767 54.0811 121.736 54.3084 121.632 54.5126C121.528 54.7168 121.356 54.8882 121.14 55.0041C120.61 55.2904 120.593 55.6537 120.74 55.8777C120.882 56.0956 121.205 56.2429 121.581 56.2181Z" fill="#8E3332"/>
<path d="M123.899 53.515L124.255 53.3445C124.15 53.1675 123.993 53.0187 123.8 52.9134C123.608 52.8081 123.387 52.7501 123.16 52.7455L123.168 53.1029C123.32 53.1089 123.468 53.1501 123.596 53.2224C123.725 53.2948 123.829 53.3957 123.899 53.515Z" fill="#8E3332"/>
<path d="M121.689 52.9119L121.898 52.6058C121.331 52.3037 120.64 52.4926 120.611 52.5009L120.734 52.8418C120.739 52.84 121.281 52.6947 121.689 52.9119Z" fill="#8E3332"/>
<path d="M92.5986 59.3132L105.892 56.2575L98.4062 48.3771L95.6015 45.4248L94.7839 49.206L92.5986 59.3132Z" fill="#C7C7E3"/>
<path d="M111.465 123.294L124.751 120.24L105.815 56.0055L92.5278 59.06L111.465 123.294Z" fill="#5F6386"/>
<path d="M94.7834 49.206C95.4257 49.5533 96.1344 49.6835 96.8135 49.5275C97.4926 49.3714 98.0367 48.9547 98.4058 48.3771L95.6011 45.4248L94.7834 49.206Z" fill="#5F6386"/>
<path d="M119.427 121.464L122.298 120.804L102.988 55.3031L100.117 55.963L119.427 121.464Z" fill="#C7C7E3"/>
<path d="M113.733 122.773L116.604 122.113L97.2937 56.6122L94.4233 57.272L113.733 122.773Z" fill="#C7C7E3"/>
<path d="M114.178 124.509L123.145 122.448C124.645 122.103 125.544 120.75 125.154 119.426L124.701 117.89C124.311 116.565 122.778 115.771 121.278 116.116L112.312 118.177C110.812 118.522 109.913 119.875 110.303 121.2L110.756 122.736C111.146 124.06 112.679 124.854 114.178 124.509Z" fill="#C7C7E3"/>
<path d="M107.692 68.2654C107.692 68.2654 126.611 75.7099 123.861 80.1893C120.76 85.2406 105.191 70.5638 105.191 70.5638C105.191 70.5638 104.905 69.026 107.692 68.2654Z" fill="#FD8B66"/>
<path d="M108.859 68.7442C108.859 68.7442 109.047 67.621 108.597 66.7836C108.148 65.9462 107.727 65.4313 107.825 64.3486C107.922 63.2659 106.558 63.3608 106.522 64.3033C106.486 65.2458 106.673 66.7461 105.398 66.3323C104.122 65.9184 102.98 63.0185 101.562 64.4651C101.562 64.4651 100.687 63.2845 100.14 63.6832C99.5934 64.0819 100.379 65.1563 100.379 65.1563C100.379 65.1563 98.4645 65.1595 101.016 67.5712C101.016 67.5712 100.227 67.968 100.651 68.4924C101.33 69.331 103.583 70.502 105.602 70.9443C108.885 71.663 108.859 68.7442 108.859 68.7442Z" fill="#FD8B66"/>
<path d="M104.423 67.2391L104.552 67.101C101.998 65.2441 101.661 64.4442 101.658 64.4363L101.466 64.4933C101.478 64.5268 101.804 65.3346 104.423 67.2391Z" fill="#FD8B66"/>
<path d="M103.465 67.973L103.579 67.8256C102.123 66.9422 100.474 65.119 100.458 65.1007L100.299 65.2119C100.316 65.2305 101.983 67.0742 103.465 67.973Z" fill="#FD8B66"/>
<path d="M102.964 68.8981L103.077 68.7499C102.187 68.2211 101.087 67.5065 101.076 67.4994L100.956 67.6433C100.967 67.6504 102.071 68.3674 102.964 68.8981Z" fill="#FD8B66"/>
<path d="M24.7959 67.6222C27.1696 67.6222 29.0939 65.9229 29.0939 63.8268C29.0939 61.7306 27.1696 60.0314 24.7959 60.0314C22.4221 60.0314 20.4978 61.7306 20.4978 63.8268C20.4978 65.9229 22.4221 67.6222 24.7959 67.6222Z" stroke="#494E6D" stroke-width="2.32569" stroke-miterlimit="10"/>
<path d="M81.9442 22.1098C83.2498 22.1098 84.3082 21.1752 84.3082 20.0224C84.3082 18.8695 83.2498 17.9349 81.9442 17.9349C80.6387 17.9349 79.5803 18.8695 79.5803 20.0224C79.5803 21.1752 80.6387 22.1098 81.9442 22.1098Z" stroke="#FFAA40" stroke-width="2.32569" stroke-miterlimit="10"/>
<path d="M131.406 43.3423C131.406 43.3423 131.774 41.5307 129.084 41.3709C126.394 41.2111 125.597 42.1532 126.439 43.2217C127.28 44.2903 131.518 45.7642 131.406 43.3423Z" fill="#494E6D"/>
<path d="M31.2615 109.137C31.2615 109.137 33.2843 108.693 32.3493 106.46C31.4143 104.227 30.115 103.97 29.3549 105.085C28.5947 106.2 28.8043 110.217 31.2615 109.137Z" fill="#FFAA40"/>
<path d="M6.64264 91.3228L11.8677 92.0422C12.1032 92.0746 12.3249 92.1612 12.5105 92.2933C12.6961 92.4253 12.8391 92.5982 12.9251 92.7945C13.011 92.9909 13.037 93.2037 13.0003 93.4117C12.9636 93.6197 12.8655 93.8155 12.716 93.9794L9.39789 97.6155C9.24834 97.7795 9.05256 97.9057 8.83023 97.9816C8.60791 98.0576 8.36686 98.0805 8.13134 98.048C7.89581 98.0156 7.6741 97.929 7.48849 97.7969C7.30288 97.6649 7.15992 97.492 7.07397 97.2956L5.16681 92.9399C5.08085 92.7435 5.05493 92.5307 5.09165 92.3227C5.12838 92.1147 5.22646 91.9189 5.37603 91.755C5.5256 91.5911 5.72139 91.4649 5.94373 91.389C6.16607 91.3131 6.40711 91.2902 6.64264 91.3226V91.3228Z" stroke="#FFAA40" stroke-width="2.32569" stroke-miterlimit="10"/>
<path d="M51.9192 20.8382C51.9192 20.8382 54.5923 19.6188 52.4351 16.7582C50.278 13.8975 48.356 13.9198 47.7098 15.7097C47.0637 17.4996 48.8769 23.0803 51.9192 20.8382Z" fill="#FFAA40"/>
<path d="M125.244 132.572C125.244 132.572 127.917 131.353 125.76 128.492C123.603 125.631 121.681 125.654 121.035 127.443C120.388 129.233 122.202 134.814 125.244 132.572Z" fill="#FFAA40"/>
<path d="M32.0396 44.9655C32.0396 44.9655 32.4089 43.1539 29.7181 42.9941C27.0274 42.8344 26.2317 43.7764 27.0728 44.8449C27.914 45.9135 32.1516 47.3879 32.0396 44.9655Z" fill="#494E6D"/>
<path d="M118.978 24.3187L124.203 25.038C124.439 25.0704 124.661 25.157 124.846 25.289C125.032 25.4211 125.175 25.594 125.261 25.7903C125.347 25.9867 125.373 26.1995 125.336 26.4075C125.299 26.6155 125.201 26.8113 125.052 26.9752L121.734 30.6114C121.584 30.7753 121.388 30.9016 121.166 30.9775C120.944 31.0534 120.703 31.0763 120.467 31.0438C120.231 31.0114 120.01 30.9248 119.824 30.7928C119.639 30.6607 119.496 30.4878 119.41 30.2915L117.502 25.936C117.416 25.7396 117.39 25.5268 117.427 25.3188C117.464 25.1108 117.562 24.9151 117.711 24.7512C117.861 24.5873 118.057 24.461 118.279 24.3851C118.501 24.3092 118.742 24.2863 118.978 24.3187H118.978Z" stroke="#FFAA40" stroke-width="2.32569" stroke-miterlimit="10"/>
<path d="M22.3412 117.491C22.3412 117.491 19.8605 113.977 19.7491 111.411C19.6378 108.844 19.4873 108.323 17.6583 107.069C15.8293 105.814 14.6911 104.775 15.1971 102.533C15.7031 100.29 15.1822 99.5745 13.3532 98.3207C11.5242 97.0668 10.6023 94.9602 12.3664 93.0826C14.1304 91.205 18.2015 92.6031 19.297 94.9478C20.3925 97.2925 19.4428 99.4495 22.4332 101.46C25.4237 103.471 23.9567 105.652 23.7673 107.176C23.5778 108.7 26.2174 109.494 25.9277 110.669C25.638 111.845 23.9808 120.268 22.3412 117.491Z" fill="#FFAA40"/>
<path d="M23.5323 117.229C22.8736 116.5 22.7285 115.5 22.6079 114.601C22.489 113.71 22.4574 112.811 22.5135 111.915C22.6109 110.343 22.9005 108.726 22.0177 107.277C21.2959 106.092 20.0845 105.218 19.2984 104.073C18.307 102.628 18.7622 100.904 18.0292 99.3822C17.2137 97.6895 15.576 96.4845 13.9917 95.3605C13.8388 95.2518 13.6197 95.4431 13.7742 95.5526C15.2673 96.6116 16.811 97.7321 17.6481 99.2935C18.4521 100.793 17.9874 102.525 18.8893 103.99C19.6161 105.171 20.8279 106.044 21.6086 107.192C22.6754 108.762 22.2548 110.53 22.1886 112.258C22.1525 113.227 22.2183 114.196 22.3854 115.154C22.5261 115.966 22.7239 116.767 23.3149 117.421C23.438 117.558 23.6548 117.365 23.5325 117.229H23.5323Z" fill="#30354F"/>
<path d="M33.3482 118.836C33.3482 118.836 35.8186 111.967 34.7555 107.597C33.6923 103.228 33.6917 102.291 36.1645 99.4804C38.6374 96.6697 40.0501 94.4838 38.1037 90.8947C36.1572 87.3056 36.6866 85.9006 39.1595 83.0899C41.6323 80.2792 42.1603 76.3769 38.2701 73.8813C34.3798 71.3858 28.1958 75.2908 27.4915 79.6616C26.7871 84.0324 29.4404 87.3089 25.3778 91.8373C21.3153 96.3656 24.8521 99.4857 25.9142 101.983C26.9762 104.479 22.9123 106.823 23.974 108.695C25.0357 110.568 31.9373 124.144 33.3482 118.836Z" fill="#5F6386"/>
<path d="M31.5762 119.038C32.2049 117.846 32.182 116.537 32.0583 115.253C31.9185 113.804 31.647 112.367 31.2464 110.956C30.438 108.112 28.6119 105.22 29.1757 102.209C29.6291 99.7882 31.349 97.7564 32.2309 95.4642C32.688 94.3013 32.8339 93.0607 32.6571 91.8397C32.4487 90.3814 31.994 88.9664 32.1094 87.4829C32.3754 84.0613 34.7519 81.1779 37.0043 78.531C37.1233 78.3911 36.8563 78.2555 36.7386 78.3938C34.8124 80.6574 32.8595 83.0223 32.0952 85.8217C31.7242 87.1811 31.7203 88.5328 31.9796 89.9076C32.2549 91.3676 32.6223 92.797 32.2813 94.2757C31.7286 96.6723 30.0025 98.6869 29.1879 101.004C28.7731 102.184 28.668 103.431 28.8808 104.652C29.1276 106.112 29.717 107.503 30.24 108.899C30.8498 110.503 31.2946 112.153 31.5692 113.829C31.8302 115.466 32.1292 117.349 31.3109 118.9C31.2278 119.058 31.493 119.196 31.5766 119.037L31.5762 119.038Z" fill="#30354F"/>
</svg>
