<svg width="274" height="171" viewBox="0 0 274 171" fill="none" xmlns="http://www.w3.org/2000/svg">
<path d="M53.6617 159.784C53.6617 159.784 16.8461 143.321 19.2158 105.046C21.6874 65.1227 68.897 92.398 68.0305 67.5509C66.563 25.4821 174.496 25.314 174.928 62.2993C175.237 88.7264 233.475 68.172 220.035 123.285C206.596 178.398 103.019 161.175 103.019 161.175L53.6617 159.784Z" fill="#FFF0E3"/>
<path d="M47.4462 111.2C63.0375 111.2 75.6767 101.96 75.6767 90.5612C75.6767 79.1625 63.0375 69.9221 47.4462 69.9221C31.8549 69.9221 19.2157 79.1625 19.2157 90.5612C19.2157 101.96 31.8549 111.2 47.4462 111.2Z" stroke="white" stroke-width="12" stroke-miterlimit="10"/>
<path d="M34.9339 98.4949C50.5252 98.4949 63.1644 89.2545 63.1644 77.8558C63.1644 66.4572 50.5252 57.2167 34.9339 57.2167C19.3426 57.2167 6.70337 66.4572 6.70337 77.8558C6.70337 89.2545 19.3426 98.4949 34.9339 98.4949Z" stroke="white" stroke-width="12" stroke-miterlimit="10"/>
<path d="M138.085 93.921C162.741 93.921 182.729 79.3082 182.729 61.2824C182.729 43.2566 162.741 28.6437 138.085 28.6437C113.429 28.6437 93.4417 43.2566 93.4417 61.2824C93.4417 79.3082 113.429 93.921 138.085 93.921Z" stroke="white" stroke-width="12" stroke-miterlimit="10"/>
<path d="M138.935 82.6274C158.814 82.6274 174.928 70.1382 174.928 54.7321C174.928 39.3259 158.814 26.8368 138.935 26.8368C119.057 26.8368 102.942 39.3259 102.942 54.7321C102.942 70.1382 119.057 82.6274 138.935 82.6274Z" stroke="white" stroke-width="12" stroke-miterlimit="10"/>
<path d="M163.033 61.7906C182.912 61.7906 199.026 49.3015 199.026 33.8953C199.026 18.4892 182.912 6 163.033 6C143.155 6 127.04 18.4892 127.04 33.8953C127.04 49.3015 143.155 61.7906 163.033 61.7906Z" stroke="white" stroke-width="12" stroke-miterlimit="10"/>
<path d="M209.299 149.712C229.177 149.712 245.292 137.222 245.292 121.816C245.292 106.41 229.177 93.921 209.299 93.921C189.421 93.921 173.306 106.41 173.306 121.816C173.306 137.222 189.421 149.712 209.299 149.712Z" stroke="white" stroke-width="12" stroke-miterlimit="10"/>
<path d="M232.007 152.93C251.885 152.93 268 140.441 268 125.035C268 109.629 251.885 97.1396 232.007 97.1396C212.129 97.1396 196.014 109.629 196.014 125.035C196.014 140.441 212.129 152.93 232.007 152.93Z" stroke="white" stroke-width="12" stroke-miterlimit="10"/>
<path d="M77.9493 75.1354C75.9819 75.1354 74.564 74.489 73.3001 73.9121C72.0239 73.3301 70.8183 72.7803 68.9856 72.7803H68.9809C67.3084 72.7811 65.6048 73.2369 63.9174 74.135C63.7913 74.2022 63.6483 74.2505 63.4967 74.2772C63.345 74.304 63.1876 74.3086 63.0335 74.2909C62.8794 74.2731 62.7315 74.2334 62.5984 74.1739C62.4653 74.1144 62.3496 74.0363 62.2577 73.9441C62.1659 73.8519 62.0998 73.7473 62.0633 73.6365C62.0267 73.5256 62.0203 73.4105 62.0446 73.2978C62.0689 73.1852 62.1232 73.0771 62.2046 72.9798C62.286 72.8825 62.3928 72.7978 62.5189 72.7307C64.6206 71.612 66.7942 71.0442 68.9793 71.0428H68.9857C71.4986 71.0428 73.1242 71.7839 74.5576 72.438C75.832 73.0193 76.8393 73.4786 78.3224 73.3862C79.6396 73.3043 80.4592 72.8344 81.4072 72.2909C82.5519 71.6343 83.8495 70.8903 86.0467 70.8102C88.2421 70.7301 90.4535 71.3473 92.62 72.6437C92.7408 72.7159 92.8408 72.8049 92.9146 72.9054C92.9883 73.0059 93.0342 73.1161 93.0497 73.2295C93.0652 73.343 93.0499 73.4577 93.0048 73.5668C92.9597 73.676 92.8857 73.7777 92.7869 73.8659C92.688 73.9542 92.5664 74.0274 92.4289 74.0813C92.2914 74.1351 92.1408 74.1687 91.9855 74.18C91.8303 74.1914 91.6735 74.1802 91.5241 74.1473C91.3748 74.1143 91.2358 74.0601 91.1151 73.9879C89.4188 72.9728 87.7539 72.4885 86.1647 72.5451C84.7219 72.5975 83.9063 73.0653 82.8735 73.6575C81.7834 74.2828 80.5477 74.9915 78.5236 75.1173C78.3271 75.1295 78.1357 75.1356 77.9493 75.1354Z" fill="#FFAA40"/>
<path d="M181.994 84.5781C180.551 84.5781 179.51 84.1035 178.583 83.6803C177.646 83.2532 176.762 82.8497 175.417 82.8497H175.414C174.186 82.8503 172.936 83.1848 171.698 83.8439C171.511 83.94 171.28 83.9786 171.054 83.9512C170.829 83.9238 170.627 83.8327 170.492 83.6976C170.357 83.5624 170.301 83.3939 170.334 83.2285C170.368 83.0631 170.489 82.914 170.672 82.8133C172.214 81.9926 173.809 81.5759 175.412 81.5751H175.417C177.261 81.5751 178.453 82.119 179.506 82.5986C180.441 83.0251 181.18 83.3617 182.269 83.2943C183.235 83.2342 183.836 82.8895 184.532 82.4903C185.372 82.0085 186.324 81.4625 187.936 81.404C189.549 81.3454 191.17 81.7981 192.76 82.7493C192.851 82.8017 192.927 82.8668 192.984 82.9409C193.04 83.0151 193.076 83.0967 193.089 83.181C193.101 83.2654 193.091 83.3507 193.058 83.4321C193.025 83.5135 192.97 83.5892 192.897 83.6549C192.823 83.7205 192.732 83.7748 192.63 83.8145C192.527 83.8542 192.415 83.8785 192.299 83.886C192.184 83.8936 192.067 83.8842 191.957 83.8583C191.846 83.8325 191.744 83.7908 191.655 83.7357C190.411 82.9905 189.189 82.6352 188.023 82.6771C186.964 82.7155 186.366 83.0587 185.608 83.4933C184.808 83.9521 183.901 84.4719 182.416 84.5644C182.272 84.5737 182.131 84.5782 181.994 84.5781Z" fill="#1C5276"/>
<path d="M155.347 54.9888C153.904 54.9888 152.863 54.5142 151.936 54.0909C150.999 53.6639 150.115 53.2605 148.77 53.2605H148.767C147.539 53.2611 146.289 53.5955 145.051 54.2546C144.864 54.3503 144.633 54.3885 144.408 54.361C144.182 54.3334 143.981 54.2424 143.847 54.1074C143.712 53.9724 143.656 53.8043 143.689 53.6391C143.722 53.4739 143.843 53.3249 144.025 53.2241C145.567 52.4032 147.162 51.9867 148.765 51.9858H148.77C150.614 51.9858 151.806 52.5297 152.858 53.0094C153.794 53.4359 154.533 53.7725 155.622 53.7051C156.588 53.645 157.189 53.3002 157.885 52.9011C158.725 52.4193 159.677 51.8733 161.289 51.8147C162.902 51.7562 164.523 52.2088 166.113 53.1601C166.204 53.2125 166.28 53.2777 166.336 53.3518C166.392 53.4259 166.428 53.5074 166.44 53.5916C166.453 53.6759 166.442 53.7611 166.409 53.8423C166.376 53.9236 166.322 53.9992 166.248 54.0648C166.175 54.1303 166.084 54.1845 165.982 54.2242C165.879 54.2639 165.767 54.2883 165.652 54.2959C165.536 54.3035 165.42 54.2942 165.309 54.2685C165.199 54.2429 165.097 54.2013 165.008 54.1464C163.764 53.4012 162.542 53.046 161.376 53.0877C160.317 53.1262 159.719 53.4695 158.961 53.904C158.161 54.3628 157.254 54.8826 155.769 54.9752C155.625 54.9845 155.484 54.9888 155.347 54.9888Z" fill="#1C5276"/>
<path d="M161.555 88.726H66.8053C65.2418 88.7259 63.6937 88.9511 62.2492 89.3885C60.8048 89.8259 59.4923 90.467 58.3868 91.2753C57.2813 92.0835 56.4043 93.043 55.806 94.0991C55.2077 95.1551 54.8998 96.2869 54.8998 97.43V158.147C54.8998 158.364 54.9186 158.581 54.9561 158.796C55.0175 159.148 55.1302 159.494 55.2921 159.829C55.7232 160.723 56.4889 161.51 57.5019 162.101C58.515 162.693 59.7348 163.064 61.0224 163.174C61.2874 163.196 61.5539 163.208 61.8207 163.207H165.938C166.926 163.208 167.904 163.066 168.817 162.789C169.73 162.513 170.559 162.108 171.258 161.597C171.956 161.086 172.51 160.48 172.888 159.813C173.266 159.146 173.46 158.43 173.46 157.708V97.43C173.46 96.287 173.152 95.1551 172.554 94.0991C171.956 93.0431 171.079 92.0836 169.973 91.2753C168.868 90.4671 167.555 89.826 166.111 89.3885C164.667 88.9511 163.118 88.726 161.555 88.726ZM147.586 92.8204C148.538 92.2814 149.652 91.9163 150.836 91.7554C152.02 91.5945 153.24 91.6424 154.393 91.8952C155.547 92.148 156.601 92.5984 157.469 93.209C158.337 93.8196 158.993 94.5727 159.382 95.4058C159.772 96.2389 159.884 97.1279 159.709 97.9991C159.534 98.8702 159.078 99.6983 158.377 100.414C157.677 101.131 156.753 101.714 155.682 102.117C154.611 102.52 153.424 102.73 152.22 102.73C151.92 102.73 151.621 102.717 151.323 102.691C150.999 102.664 150.677 102.62 150.361 102.561C148.986 102.306 147.736 101.774 146.754 101.025C145.773 100.276 145.099 99.3404 144.81 98.3249C144.52 97.3094 144.627 96.2549 145.118 95.2816C145.609 94.3084 146.464 93.4555 147.586 92.8204ZM108.271 92.8653C109.613 92.0852 111.277 91.6612 112.992 91.6627C114.706 91.6641 116.369 92.091 117.708 92.8735C119.047 93.6559 119.984 94.7475 120.364 95.9697C120.744 97.1918 120.545 98.4721 119.8 99.6009C119.055 100.73 117.808 101.64 116.264 102.184C114.719 102.727 112.967 102.87 111.296 102.591C109.625 102.312 108.133 101.626 107.064 100.646C105.995 99.666 105.414 98.4498 105.414 97.1965C105.411 96.3635 105.667 95.541 106.162 94.7908C106.657 94.0406 107.378 93.3822 108.271 92.865V92.8653ZM69.4978 92.8204C70.85 92.0549 72.5168 91.6467 74.2269 91.6623C75.9369 91.678 77.5893 92.1165 78.9149 92.9064C80.2405 93.6964 81.1611 94.7913 81.5268 96.0126C81.8925 97.234 81.6816 98.5099 80.9287 99.6325C80.1757 100.755 78.925 101.658 77.3802 102.195C75.8355 102.731 74.0878 102.869 72.4218 102.587C70.7559 102.304 69.2699 101.618 68.206 100.639C67.142 99.6599 66.5628 98.4465 66.5628 97.1962C66.5602 96.3511 66.8235 95.5169 67.3325 94.7581C67.8414 93.9994 68.5823 93.3364 69.4978 92.8204Z" fill="#DADEF2"/>
<path d="M161.555 88.726H66.8053C65.2418 88.7259 63.6937 88.9511 62.2492 89.3885C60.8048 89.8259 59.4923 90.467 58.3868 91.2753C57.2813 92.0835 56.4043 93.043 55.806 94.0991C55.2077 95.1551 54.8998 96.2869 54.8998 97.43V105.045H173.46V97.43C173.46 96.2869 173.153 95.1551 172.554 94.0991C171.956 93.043 171.079 92.0835 169.973 91.2753C168.868 90.467 167.555 89.8259 166.111 89.3885C164.667 88.9511 163.118 88.7259 161.555 88.726ZM74.1321 102.73C72.635 102.73 71.1716 102.405 69.9268 101.797C68.6821 101.189 67.7119 100.325 67.139 99.3138C66.5661 98.3026 66.4163 97.19 66.7083 96.1165C67.0004 95.0431 67.7213 94.057 68.7799 93.2831C69.8385 92.5092 71.1872 91.9822 72.6555 91.7687C74.1238 91.5551 75.6458 91.6647 77.0289 92.0836C78.412 92.5024 79.5941 93.2117 80.4258 94.1217C81.2576 95.0318 81.7015 96.1017 81.7015 97.1962C81.7014 98.6638 80.9039 100.071 79.4843 101.109C78.0648 102.147 76.1396 102.73 74.1321 102.73ZM112.983 102.73C111.486 102.73 110.022 102.406 108.777 101.797C107.533 101.189 106.562 100.325 105.989 99.3139C105.416 98.3026 105.267 97.1899 105.559 96.1164C105.851 95.0429 106.572 94.0568 107.63 93.2829C108.689 92.5089 110.038 91.9818 111.506 91.7683C112.974 91.5548 114.496 91.6644 115.88 92.0833C117.263 92.5021 118.445 93.2115 119.277 94.1216C120.108 95.0317 120.552 96.1016 120.552 97.1962C120.552 98.6638 119.755 100.071 118.335 101.109C116.916 102.147 114.99 102.73 112.983 102.73ZM152.22 102.73C151.92 102.73 151.621 102.717 151.323 102.691C150.999 102.664 150.677 102.62 150.361 102.561C148.493 102.216 146.875 101.363 145.836 100.176C144.798 98.9888 144.418 97.557 144.774 96.1722C145.13 94.7875 146.194 93.5539 147.75 92.7229C149.306 91.8919 151.237 91.5259 153.15 91.6995C155.062 91.8731 156.812 92.5733 158.043 93.6574C159.274 94.7415 159.894 96.1279 159.775 97.5342C159.657 98.9405 158.809 100.261 157.405 101.226C156.002 102.192 154.147 102.729 152.22 102.73H152.22Z" fill="#C7C7E3"/>
<path d="M74.8664 83.2485H73.4754C71.2788 83.2485 69.498 84.5504 69.498 86.1564V96.0389C69.498 97.6448 71.2788 98.9467 73.4754 98.9467H74.8664C77.0631 98.9467 78.8438 97.6448 78.8438 96.0389V86.1564C78.8438 84.5504 77.0631 83.2485 74.8664 83.2485Z" fill="#5F6386"/>
<path d="M113.64 82.9661H112.249C110.052 82.9661 108.272 84.268 108.272 85.874V95.7565C108.272 97.3624 110.052 98.6643 112.249 98.6643H113.64C115.837 98.6643 117.617 97.3624 117.617 95.7565V85.874C117.617 84.268 115.837 82.9661 113.64 82.9661Z" fill="#5F6386"/>
<path d="M152.954 83.2485H151.563C149.366 83.2485 147.586 84.5504 147.586 86.1564V96.0389C147.586 97.6448 149.366 98.9467 151.563 98.9467H152.954C155.151 98.9467 156.931 97.6448 156.931 96.0389V86.1564C156.931 84.5504 155.151 83.2485 152.954 83.2485Z" fill="#5F6386"/>
<path d="M159.48 135.143H137.776V151.01H159.48V135.143Z" fill="#C7C7E3"/>
<path d="M124.414 135.143H102.71V151.01H124.414V135.143Z" fill="#C7C7E3"/>
<path d="M88.1123 135.143H66.4083V151.01H88.1123V135.143Z" fill="#C7C7E3"/>
<path d="M159.79 111.2H138.086V127.068H159.79V111.2Z" fill="#C7C7E3"/>
<path d="M124.724 111.2H103.02V127.068H124.724V111.2Z" fill="#FFAA40"/>
<path d="M88.4216 111.2H66.7177V127.068H88.4216V111.2Z" fill="#FFAA40"/>
<path d="M170.25 113.35L151.453 105.416L140.601 119.158L159.398 127.092L170.25 113.35Z" fill="#FFAA40"/>
<path d="M36.7875 171C54.8956 171 69.5751 160.268 69.5751 147.029C69.5751 133.791 54.8956 123.059 36.7875 123.059C18.6795 123.059 4 133.791 4 147.029C4 160.268 18.6795 171 36.7875 171Z" fill="#FFAA40"/>
<path d="M36.7875 164.774C50.1922 164.774 61.0589 156.829 61.0589 147.029C61.0589 137.229 50.1922 129.285 36.7875 129.285C23.3829 129.285 12.5162 137.229 12.5162 147.029C12.5162 156.829 23.3829 164.774 36.7875 164.774Z" fill="#DADEF2"/>
<path d="M36.7877 149.97C39.0088 149.97 40.8093 148.653 40.8093 147.029C40.8093 145.406 39.0088 144.089 36.7877 144.089C34.5666 144.089 32.7661 145.406 32.7661 147.029C32.7661 148.653 34.5666 149.97 36.7877 149.97Z" fill="#FFAA40"/>
<path d="M45.2221 139.68L44.8933 139.486C44.3741 139.179 43.6134 139.239 43.1944 139.618L36.214 145.942C35.795 146.322 35.8763 146.878 36.3955 147.184L36.7243 147.378C37.2435 147.684 38.0042 147.625 38.4232 147.245L45.4035 140.922C45.8226 140.542 45.7413 139.986 45.2221 139.68Z" fill="#FFAA40"/>
<path d="M19.8181 158.207L20.1416 158.465C20.6524 158.872 21.5185 158.9 22.076 158.527L23.4757 157.589C24.0332 157.216 24.0711 156.583 23.5603 156.175L23.2368 155.917C22.7259 155.509 21.8599 155.481 21.3023 155.855L19.9027 156.792C19.3451 157.166 19.3073 157.799 19.8181 158.207Z" fill="#FFAA40"/>
<path d="M49.4381 138.259L49.7618 138.517C50.273 138.924 51.1392 138.952 51.6964 138.578L53.0955 137.64C53.6528 137.266 53.6902 136.633 53.179 136.225L52.8552 135.967C52.3441 135.56 51.4779 135.533 50.9206 135.906L49.5216 136.845C48.9643 137.218 48.9269 137.851 49.4381 138.259Z" fill="#FFAA40"/>
<path d="M51.8356 159.282L52.1833 159.042C52.7322 158.661 52.7555 158.028 52.2354 157.626L50.9297 156.619C50.4096 156.218 49.543 156.201 48.9941 156.581L48.6465 156.822C48.0976 157.202 48.0743 157.836 48.5944 158.237L49.9001 159.244C50.4202 159.646 51.2868 159.663 51.8356 159.282Z" fill="#FFAA40"/>
<path d="M24.1091 137.891L24.4567 137.65C25.0056 137.27 25.0289 136.636 24.5088 136.235L23.2031 135.227C22.683 134.826 21.8164 134.809 21.2676 135.189L20.9199 135.43C20.371 135.81 20.3477 136.444 20.8678 136.845L22.1735 137.853C22.6936 138.254 23.5602 138.271 24.1091 137.891Z" fill="#FFAA40"/>
<path d="M59.0228 147.48L59.0248 147.13C59.028 146.577 58.4175 146.127 57.6614 146.124L55.7631 146.119C55.0069 146.116 54.3914 146.563 54.3883 147.115L54.3863 147.466C54.3832 148.018 54.9936 148.468 55.7497 148.471L57.648 148.477C58.4042 148.479 59.0197 148.033 59.0228 147.48Z" fill="#FFAA40"/>
<path d="M18.7207 147.382L18.7224 147.031C18.7251 146.479 18.1143 146.028 17.3581 146.026L15.4598 146.02C14.7037 146.017 14.0885 146.463 14.0858 147.016L14.0841 147.366C14.0814 147.919 14.6922 148.369 15.4484 148.372L17.3467 148.378C18.1029 148.38 18.718 147.934 18.7207 147.382Z" fill="#FFAA40"/>
<path d="M36.7903 130.807H36.3114C35.5553 130.807 34.9423 131.255 34.9423 131.808V133.196C34.9423 133.748 35.5553 134.196 36.3114 134.196H36.7903C37.5465 134.196 38.1595 133.748 38.1595 133.196V131.808C38.1595 131.255 37.5465 130.807 36.7903 130.807Z" fill="#FFAA40"/>
<path d="M36.7903 160.277H36.3114C35.5553 160.277 34.9423 160.725 34.9423 161.278V162.666C34.9423 163.219 35.5553 163.667 36.3114 163.667H36.7903C37.5465 163.667 38.1595 163.219 38.1595 162.666V161.278C38.1595 160.725 37.5465 160.277 36.7903 160.277Z" fill="#FFAA40"/>
<path d="M42.0392 116.694H32.4821V126.033H42.0392V116.694Z" fill="#FFAA40"/>
<path d="M50.4381 112.197H23.7043C21.2356 112.197 19.2344 113.66 19.2344 115.465V116.608C19.2344 118.413 21.2356 119.876 23.7043 119.876H50.4381C52.9068 119.876 54.9081 118.413 54.9081 116.608V115.465C54.9081 113.66 52.9068 112.197 50.4381 112.197Z" fill="#FFAA40"/>
<path d="M14.1976 127.716L10.9858 130.064L13.863 132.168L17.0747 129.82L14.1976 127.716Z" fill="#FFAA40"/>
<path d="M9.8193 130.253C12.3539 130.253 14.4086 128.751 14.4086 126.898C14.4086 125.045 12.3539 123.543 9.8193 123.543C7.28469 123.543 5.22998 125.045 5.22998 126.898C5.22998 128.751 7.28469 130.253 9.8193 130.253Z" fill="#FFAA40"/>
<path d="M217.133 134.653C215.165 134.653 213.747 134.006 212.483 133.43C211.207 132.847 210.002 132.298 208.169 132.298H208.164C206.492 132.298 204.788 132.754 203.101 133.652C202.846 133.788 202.528 133.844 202.217 133.808C201.905 133.772 201.626 133.648 201.441 133.461C201.256 133.275 201.179 133.043 201.228 132.815C201.277 132.588 201.447 132.384 201.702 132.248C203.804 131.13 205.977 130.562 208.162 130.56H208.169C210.682 130.56 212.307 131.301 213.741 131.955C215.015 132.537 216.023 132.996 217.506 132.904C218.823 132.822 219.642 132.352 220.59 131.808C221.735 131.152 223.033 130.408 225.23 130.328C227.425 130.247 229.637 130.865 231.803 132.161C232.047 132.307 232.202 132.518 232.233 132.747C232.264 132.976 232.17 133.205 231.97 133.383C231.871 133.472 231.75 133.545 231.612 133.599C231.475 133.653 231.324 133.686 231.169 133.698C230.855 133.72 230.542 133.651 230.298 133.505C228.602 132.49 226.937 132.006 225.348 132.063C223.905 132.115 223.09 132.583 222.057 133.175C220.967 133.8 219.731 134.509 217.707 134.635C217.51 134.647 217.319 134.653 217.133 134.653Z" fill="#FFAA40"/>
<path d="M36.517 98.4949H14.0408V100.867H36.517V98.4949Z" fill="#1C5276"/>
<path d="M124.723 62.0729H117.617V62.7505H124.723V62.0729Z" fill="#1C5276"/>
<path d="M109.739 51.0052H96.3768V52.5863H109.739V51.0052Z" fill="#FFAA40"/>
<path d="M80.5298 145.159C78.7317 146.613 78.3014 147.366 79.3921 149.408C79.6839 149.915 79.8333 150.46 79.8316 151.01C79.7937 152.153 78.8931 153.029 77.6249 154.055C75.8268 155.509 75.775 156.024 76.2361 158.463C76.3376 159.114 76.3223 159.771 76.1905 160.419C76.0067 161.364 75.7171 162.297 75.3248 163.208H71.6807C71.6289 163.135 71.5779 163.061 71.5262 162.986C70.9129 162.089 70.325 161.074 69.8655 160.24C69.4623 159.51 69.1573 158.92 69.0205 158.676C68.4203 157.61 71.2489 156.469 70.6835 155.059C70.2494 153.975 68.8653 152.636 69.5882 151.011C69.8053 150.522 70.213 150.007 70.8951 149.467C71.1746 149.246 71.4314 149.011 71.6636 148.764V148.763C73.5467 146.734 72.3403 144.988 72.9798 142.854C73.6911 140.479 78.0133 138.557 80.4549 140.068C82.8965 141.579 82.3279 143.704 80.5298 145.159Z" fill="#FFAA40"/>
<path d="M79.1399 142.438C77.8697 143.5 76.5879 144.595 75.848 145.915C75.4841 146.544 75.2825 147.216 75.2534 147.899C75.2319 148.697 75.5087 149.485 75.4396 150.284C75.316 151.713 73.9782 152.864 73.1484 154.103C72.3095 155.355 72.2894 156.582 72.7099 157.927C73.26 159.687 73.8289 161.383 73.7148 163.208C73.704 163.381 74.0724 163.381 74.0832 163.208C74.1747 161.743 73.8979 160.28 73.4086 158.862C72.8985 157.384 72.4223 155.952 73.3029 154.495C73.9749 153.383 75.0557 152.415 75.5591 151.247C76.17 149.829 75.3392 148.377 75.7842 146.943C76.3085 145.253 77.8794 143.901 79.4004 142.629C79.5558 142.5 79.2964 142.308 79.1399 142.439V142.438Z" fill="#30354F"/>
<path d="M73.7282 157.035C73.63 157.317 73.4371 157.938 73.1722 158.729C73.0125 159.208 72.8261 159.75 72.6183 160.317C72.2978 161.195 71.9271 162.131 71.5262 162.986C71.4915 163.06 71.4559 163.134 71.4204 163.208H66.5696C65.942 162.204 65.4219 161.166 65.014 160.103C64.9377 159.897 64.8687 159.69 64.8071 159.484C64.6229 158.9 64.5235 158.304 64.5105 157.705C64.5012 154.546 64.3096 153.899 61.6704 152.285C61.1807 151.985 60.7258 151.696 60.3157 151.406C59.0714 150.526 58.2356 149.638 58.0766 148.439C58.0093 147.826 58.0821 147.208 58.2921 146.612C58.3307 146.493 58.3658 146.378 58.3978 146.266C59.113 143.796 58.3364 142.905 55.8112 141.362C55.4868 141.163 55.1825 140.949 54.9005 140.718C53.8469 139.857 53.1689 138.813 53.1294 137.728C53.1121 137.271 53.2103 136.816 53.4191 136.385C53.6791 135.86 54.0719 135.376 54.5769 134.958C54.6055 134.933 54.6349 134.909 54.6649 134.884C54.7406 134.822 54.8194 134.763 54.9005 134.707C57.7267 132.75 63.3985 134.605 64.8419 137.449C65.8313 139.4 65.4752 141.213 66.409 142.972C66.8756 143.851 67.6633 144.716 69.1015 145.578C69.2552 145.67 69.4005 145.762 69.5372 145.854C71.0008 146.837 71.5539 147.821 71.6643 148.762V148.763C71.757 149.551 71.54 150.308 71.2866 151.01C71.0735 151.603 70.834 152.157 70.734 152.656C70.5154 153.748 71.752 154.571 72.7136 155.354C73.3938 155.908 73.936 156.441 73.7282 157.035Z" fill="#5F6386"/>
<path d="M56.6411 137.957C58.6466 139.224 60.6937 140.548 61.9073 142.305C62.5096 143.195 62.8435 144.169 62.8863 145.161C62.9453 146.067 62.9255 146.984 63.332 147.852C64.0061 149.292 65.5087 150.399 66.7078 151.608C67.3104 152.215 67.8615 152.865 68.1691 153.585C68.5976 154.588 68.5526 155.648 68.4214 156.682C68.2795 157.799 68.072 158.904 68.0598 160.028C68.0449 161.105 68.1593 162.181 68.4016 163.243C68.441 163.414 68.796 163.342 68.7567 163.172C68.273 161.079 68.462 159.03 68.7555 156.934C69.0033 155.166 68.8669 153.534 67.5289 152.008C66.3447 150.657 64.6397 149.529 63.8087 148.02C63.3043 147.104 63.3165 146.131 63.2544 145.161C63.2203 144.3 62.9755 143.451 62.5315 142.653C61.3708 140.645 59.1112 139.162 56.9012 137.767C56.7226 137.654 56.461 137.844 56.6407 137.957L56.6411 137.957Z" fill="#30354F"/>
<path d="M187.835 154.164C187.835 154.164 188.198 148.586 190.742 145.664C193.285 142.743 193.631 142.062 192.496 139.432C191.362 136.802 190.928 134.877 193.959 132.733C196.99 130.589 197.043 129.442 195.909 126.812C194.774 124.181 195.749 121.22 200.083 120.333C204.417 119.446 208.404 123.754 207.411 127.097C206.418 130.44 202.883 132.189 204.779 136.446C206.675 140.702 202.421 142.127 200.569 143.689C198.718 145.25 201.42 147.919 199.798 149.027C198.176 150.135 187.117 158.356 187.835 154.164Z" fill="#9FA3BF"/>
<path d="M189.642 154.714C189.518 153.489 190.298 152.344 191.048 151.283C191.759 150.276 192.582 149.314 193.509 148.406C195.095 146.852 197.133 145.416 197.833 143.486C198.587 141.407 197.592 139.277 197.774 137.175C197.872 136.054 198.435 135.105 199.203 134.147C199.933 133.238 200.623 132.351 200.947 131.312C201.718 128.838 200.763 126.325 199.8 123.958C199.733 123.793 199.377 123.863 199.445 124.03C200.349 126.252 201.262 128.593 200.679 130.926C200.395 132.066 199.676 133.025 198.885 134.011C198.202 134.862 197.643 135.717 197.467 136.707C197.092 138.818 198.143 140.939 197.592 143.042C197.055 145.095 194.908 146.598 193.257 148.205C192.238 149.197 191.342 150.254 190.58 151.363C189.863 152.406 189.153 153.519 189.274 154.714C189.292 154.886 189.66 154.887 189.643 154.714L189.642 154.714Z" fill="#30354F"/>
<path d="M194.205 154.677C194.205 154.677 195.898 151.796 198.022 150.625C200.146 149.455 200.511 149.147 200.623 147.6C200.734 146.054 201.024 144.979 203.195 144.287C205.366 143.595 205.703 143 205.815 141.454C205.926 139.907 207.236 138.49 209.754 138.647C212.272 138.804 213.209 141.644 211.787 143.259C210.365 144.874 208.035 145.285 207.886 147.797C207.737 150.308 205.117 150.445 203.722 151C202.328 151.555 203.03 153.347 201.88 153.697C200.73 154.046 192.699 156.778 194.205 154.677Z" fill="#FFAA40"/>
<path d="M195.088 155.236C195.362 154.586 196.061 154.107 196.733 153.663C197.453 153.187 198.232 152.761 199.059 152.389C200.329 151.816 201.751 151.319 202.562 150.358C203.387 149.379 203.446 148.187 204.103 147.158C204.809 146.052 206.425 145.571 207.324 144.574C208.405 143.375 208.578 141.901 208.711 140.507C208.727 140.334 208.359 140.335 208.342 140.507C208.178 142.237 207.894 144.061 205.99 145.265C205.24 145.74 204.44 146.141 203.947 146.789C203.494 147.384 203.288 148.056 203.045 148.707C202.76 149.472 202.412 150.213 201.629 150.787C200.861 151.349 199.872 151.709 198.955 152.119C198.042 152.526 197.184 152.997 196.394 153.525C195.697 153.992 195.017 154.489 194.733 155.165C194.663 155.331 195.018 155.402 195.088 155.236V155.236Z" fill="#30354F"/>
<path d="M190.507 160.14L182.095 161.368C181.831 161.407 181.593 161.511 181.422 161.664C181.251 161.816 181.157 162.007 181.157 162.204C181.157 162.43 181.28 162.647 181.499 162.807C181.717 162.967 182.014 163.056 182.323 163.056H194.283L194.043 160.171L190.507 160.14Z" fill="#5F6386"/>
<path d="M190.38 158.093H193.916V160.638C193.916 160.86 193.795 161.073 193.581 161.23C193.366 161.386 193.075 161.475 192.772 161.475H191.524C191.22 161.475 190.929 161.386 190.715 161.23C190.5 161.073 190.38 160.86 190.38 160.638V158.093L190.38 158.093Z" fill="#FB855F"/>
<path d="M164.642 159.572L156.071 159.316C155.802 159.307 155.537 159.368 155.322 159.487C155.106 159.605 154.954 159.775 154.891 159.966C154.818 160.186 154.867 160.418 155.028 160.611C155.189 160.804 155.448 160.942 155.749 160.995L167.372 163.056L168.068 160.211L164.642 159.572Z" fill="#5F6386"/>
<path d="M165.178 157.56L168.615 158.169L167.794 160.643C167.722 160.858 167.537 161.044 167.278 161.16C167.019 161.275 166.707 161.311 166.412 161.258L165.2 161.043C164.905 160.991 164.65 160.855 164.492 160.666C164.334 160.476 164.286 160.249 164.357 160.033L165.178 157.56L165.178 157.56Z" fill="#FB855F"/>
<path d="M180.69 98.5815C180.69 98.5815 176.878 100.255 172.994 102.191C168.687 104.339 164.33 106.851 165.823 108.643C169.109 112.59 184.338 102.224 184.338 102.224C186.364 100.348 183.476 97.9908 180.69 98.5815Z" fill="#EB8F90"/>
<path d="M173.703 100.533C174.414 102.536 175.774 104.537 177.784 106.537L186.373 101.726L183.073 97.6313L173.703 100.533Z" fill="#80C2C1"/>
<path d="M153.483 105.313C153.483 105.313 171.396 103.909 171.914 107.677C172.499 111.925 152.957 107.602 152.957 107.602C152.957 107.602 151.887 106.71 153.483 105.313Z" fill="#EB8F90"/>
<path d="M154.598 105.239C154.598 105.239 154.104 104.458 153.308 104.068C152.511 103.679 151.917 103.486 151.38 102.76C150.843 102.035 149.906 102.541 150.409 103.156C150.911 103.772 151.89 104.672 150.731 104.824C149.573 104.975 147.116 103.489 146.899 104.879C146.899 104.879 145.601 104.408 145.428 104.842C145.255 105.276 146.428 105.708 146.428 105.708C146.428 105.708 145.04 106.335 148.246 107.047C148.246 107.047 147.896 107.559 148.499 107.757C149.462 108.073 151.755 108.088 153.469 107.712C156.256 107.102 154.598 105.239 154.598 105.239Z" fill="#EB8F90"/>
<path d="M150.526 105.725C147.555 105.36 146.866 104.949 146.838 104.932L146.961 104.826C146.968 104.83 147.661 105.233 150.558 105.589L150.526 105.725Z" fill="#D16B70"/>
<path d="M150.242 106.509C148.662 106.417 146.416 105.779 146.393 105.773L146.462 105.643C146.485 105.65 148.705 106.28 150.257 106.371L150.242 106.509Z" fill="#D16B70"/>
<path d="M150.398 107.265C149.452 107.216 148.248 107.117 148.236 107.116L148.257 106.978C148.269 106.979 149.469 107.078 150.411 107.127L150.398 107.265Z" fill="#D16B70"/>
<path d="M172.495 141.494C171.292 141.249 170.264 140.676 169.621 139.894C168.978 139.111 168.77 138.179 169.038 137.287C171.406 129.454 174.173 121.76 176.638 116.015H187.649C184.797 122.551 181.065 132.062 178.531 138.977C178.364 139.434 178.075 139.862 177.68 140.236C177.285 140.61 176.793 140.923 176.232 141.157C175.67 141.391 175.051 141.541 174.409 141.599C173.768 141.657 173.117 141.621 172.495 141.494Z" fill="#5F6386"/>
<path d="M175.028 134.861C174.389 134.73 173.72 134.696 173.062 134.761C172.405 134.826 171.772 134.989 171.204 135.24C170.635 135.49 170.143 135.823 169.757 136.218C169.371 136.612 169.099 137.06 168.959 137.535C166.959 144.294 164.234 153.028 163.007 157.373L170.975 159.003C172.517 154.081 176.205 145.286 178.421 139.204C178.751 138.299 178.58 137.336 177.944 136.523C177.309 135.71 176.261 135.113 175.028 134.861Z" fill="#5F6386"/>
<path d="M191.027 141.619C189.779 141.62 188.578 141.271 187.67 140.644C186.763 140.017 186.218 139.16 186.148 138.249C185.543 130.239 185.276 122.034 185.533 116.015H196.226C195.888 122.871 195.805 130.848 195.913 138.007C195.921 138.479 195.799 138.948 195.557 139.386C195.315 139.824 194.956 140.223 194.502 140.559C194.047 140.895 193.506 141.161 192.91 141.343C192.313 141.525 191.673 141.619 191.027 141.619Z" fill="#5F6386"/>
<path d="M191.023 134.732C190.359 134.732 189.703 134.831 189.093 135.024C188.484 135.216 187.935 135.497 187.479 135.85C187.024 136.204 186.673 136.621 186.446 137.077C186.22 137.533 186.124 138.019 186.163 138.503C186.728 145.407 187.533 153.935 187.952 158.361H196.226C195.898 153.318 195.997 144.54 195.891 138.247C195.875 137.31 195.355 136.417 194.444 135.759C193.533 135.101 192.304 134.732 191.023 134.732Z" fill="#5F6386"/>
<path d="M176.628 116.015C176.628 116.015 176.877 100.149 182.319 97.89C185.438 96.5952 191.895 96.9468 195.187 98.7358C198.51 100.541 196.163 116.015 196.163 116.015H176.628Z" fill="#80C2C1"/>
<path d="M189.996 101.59C189.996 101.59 188.82 104.725 187.84 108.087C186.753 111.814 185.975 115.831 188.748 116.374C194.853 117.569 196.076 102.384 196.076 102.384C195.769 100.004 191.453 99.7575 189.996 101.59Z" fill="#EB8F90"/>
<path d="M187.51 106.76C190.338 107.847 193.336 108.268 196.428 108.322L196.726 103.211C196.771 102.44 196.429 101.685 195.764 101.087C195.1 100.488 194.159 100.089 193.118 99.9629L189.476 99.523L187.51 106.76Z" fill="#80C2C1"/>
<path d="M177.925 106.249L177.548 106.219C177.553 106.186 178.047 102.918 179.983 100.126L180.321 100.252C178.418 102.997 177.93 106.217 177.925 106.249Z" fill="#50A5A0"/>
<path d="M196.718 103.731L194.967 108.156L195.332 108.233L197.083 103.808L196.718 103.731Z" fill="#50A5A0"/>
<path d="M187.064 100.857C186.739 100.856 186.416 100.832 186.098 100.786C183.324 100.388 182.718 97.8266 182.693 97.7179L183.068 97.673C183.074 97.6977 183.657 100.153 186.171 100.514C188.498 100.848 190.441 99.8785 191.947 97.6344L192.288 97.7567C190.905 99.8171 189.151 100.857 187.064 100.857Z" fill="#50A5A0"/>
<path d="M194.947 106.701C193.434 106.701 190.235 106.626 188.436 106.042L188.59 105.789C190.873 106.53 195.715 106.416 195.763 106.415L195.777 106.692C195.728 106.693 195.42 106.701 194.947 106.701Z" fill="#50A5A0"/>
<path d="M177.954 104.801C176.587 103.495 175.002 100.295 174.935 100.16L175.292 100.066C175.308 100.098 176.925 103.361 178.256 104.633L177.954 104.801Z" fill="#50A5A0"/>
<path d="M180.886 124.592L188.864 124.823L187.919 119.758C187.919 119.758 184.875 119.681 184.14 119.681C183.405 119.681 180.886 124.592 180.886 124.592Z" fill="#5F6386"/>
<path d="M186.399 122.194L183.191 121.547L184.373 116.206L184.747 116.25L183.62 121.346L186.5 121.926L186.399 122.194Z" fill="#30354F"/>
<path d="M193.135 116.099L192.781 116.2L195.72 121.725L196.074 121.625L193.135 116.099Z" fill="#30354F"/>
<path d="M178.94 116.002L173.9 122.141L174.225 122.284L179.265 116.145L178.94 116.002Z" fill="#30354F"/>
<path d="M171.731 156.747L163.781 154.709L163.527 154.644L162.788 157.473L165.054 157.936L168.461 158.633L171.109 159.175L171.984 156.812L171.731 156.747ZM163.817 155.012L171.525 156.988L170.842 158.832L168.55 158.363L165.143 157.666L163.226 157.274L163.817 155.012Z" fill="#30354F"/>
<path d="M191.418 155.84C191.256 155.935 191.094 156.028 190.933 156.119H193.159C193.222 156.03 193.289 155.937 193.361 155.84H191.418ZM196.357 157.186L196.289 155.84H187.393L187.46 156.301L187.647 157.58L187.781 158.5H196.423L196.357 157.186ZM195.924 156.118L195.982 157.284L196.03 158.222H188.123L188.015 157.48L187.846 156.331L187.822 156.165L187.815 156.118H195.924Z" fill="#30354F"/>
<path d="M174.085 121.092C174.085 121.092 187.301 110.48 191.048 113.393C195.272 116.677 175.682 123.304 175.682 123.304C175.682 123.304 174.03 123.113 174.085 121.092Z" fill="#EB8F90"/>
<path d="M174.92 120.442C174.92 120.442 173.831 120.042 172.844 120.131C171.857 120.221 171.207 120.371 170.133 120.04C169.059 119.709 168.749 120.63 169.699 120.886C170.648 121.142 172.233 121.389 171.432 122.125C170.631 122.862 167.336 122.9 168.388 124.189C168.388 124.189 166.924 124.473 167.168 124.931C167.411 125.39 168.74 125.137 168.74 125.137C168.74 125.137 168.173 126.398 171.39 125.313C171.39 125.313 171.56 125.93 172.22 125.78C173.277 125.54 175.141 124.347 176.193 123.127C177.902 121.145 174.92 120.442 174.92 120.442Z" fill="#EB8F90"/>
<path d="M168.388 124.258L168.387 124.119C168.396 124.119 169.312 124.094 171.964 122.871L172.066 122.989C169.345 124.243 168.426 124.258 168.388 124.258Z" fill="#D16B70"/>
<path d="M168.773 125.203L168.707 125.072C168.731 125.066 171.08 124.431 172.413 123.69L172.528 123.8C171.171 124.554 168.797 125.196 168.773 125.203Z" fill="#D16B70"/>
<path d="M171.445 125.37L171.335 125.257C171.346 125.251 172.402 124.703 173.205 124.248L173.321 124.358C172.515 124.815 171.456 125.364 171.445 125.37Z" fill="#D16B70"/>
<path d="M185.897 113.192L185.835 113.323L188.132 113.903L188.194 113.772L185.897 113.192Z" fill="#D16B70"/>
<path d="M187.278 99.837C185.039 99.837 184.018 97.9246 184.62 97.4847C184.8 97.3456 184.943 97.1834 185.042 97.0063H185.044C185.196 96.7405 185.298 96.4612 185.348 96.1756L185.35 96.1744L189.49 93.4745C189.266 95.1935 190.273 96.4004 190.638 97.2599C191.003 98.1194 189.825 99.837 187.278 99.837Z" fill="#EB8F90"/>
<g opacity="0.32">
<path opacity="0.32" d="M188.763 95.5071C187.576 97.1673 185.113 97.0025 185.044 97.0065C185.196 96.7408 185.298 96.4614 185.348 96.1758L185.35 96.1747C185.462 96.1274 189.876 93.9511 188.763 95.5071Z" fill="black"/>
</g>
<path d="M193.585 90.3857C193.585 90.3857 193.407 91.9547 190.286 93.5711C187.015 95.2658 190.739 90.0573 190.739 90.0573L193.585 90.3857Z" fill="#8E3332"/>
<path d="M185.067 89.4432C185.067 89.4432 184.625 90.7953 184.052 92.3129C183.233 94.4821 183.164 96.2364 186.186 96.2364C191.263 96.2364 190.925 90.0774 190.925 90.0774L185.067 89.4432Z" fill="#EB8F90"/>
<path d="M191.407 91.7247C192.207 91.9639 191.652 93.4509 189.91 93.5968C188.566 93.7094 190.176 91.3564 191.407 91.7247Z" fill="#EB8F90"/>
<path d="M187.674 92.4587C187.87 92.4587 188.028 92.3426 188.028 92.1994C188.028 92.0561 187.87 91.94 187.674 91.94C187.478 91.94 187.319 92.0561 187.319 92.1994C187.319 92.3426 187.478 92.4587 187.674 92.4587Z" fill="#8E3332"/>
<path d="M185.167 92.0131C185.363 92.0131 185.522 91.897 185.522 91.7537C185.522 91.6105 185.363 91.4943 185.167 91.4943C184.971 91.4943 184.812 91.6105 184.812 91.7537C184.812 91.897 184.971 92.0131 185.167 92.0131Z" fill="#8E3332"/>
<path d="M185.655 93.9206C185.566 93.9228 185.479 93.9071 185.402 93.8752C185.325 93.8433 185.262 93.7965 185.22 93.7398C185.139 93.6179 185.183 93.4478 185.463 93.3427C185.531 93.3176 185.588 93.2777 185.625 93.2283C185.662 93.179 185.677 93.1225 185.669 93.0666L186.069 93.0258C186.088 93.1423 186.058 93.2603 185.982 93.3639C185.907 93.4675 185.79 93.5516 185.647 93.605C185.634 93.6096 185.622 93.6149 185.61 93.6209C185.655 93.6294 185.702 93.6257 185.743 93.6104L185.909 93.8791C185.829 93.906 185.743 93.9201 185.655 93.9206Z" fill="#8E3332"/>
<path d="M184.766 94.4262L186.479 94.616C186.479 94.616 186.194 95.4321 185.415 95.3372C184.636 95.2423 184.766 94.4262 184.766 94.4262Z" fill="white"/>
<path d="M188.692 91.7726C188.622 91.6528 188.51 91.5487 188.367 91.4706C188.225 91.3925 188.056 91.3433 187.88 91.3279L187.9 91.0336C188.151 91.0517 188.391 91.1185 188.595 91.2272C188.799 91.3359 188.96 91.4825 189.06 91.6518L188.692 91.7726Z" fill="#8E3332"/>
<path d="M185.921 91.0478C185.464 90.8108 184.828 90.918 184.821 90.9191L184.728 90.6324C184.761 90.6264 185.551 90.494 186.155 90.8074L185.921 91.0478Z" fill="#8E3332"/>
<path d="M189.389 92.2411V92.24C189.376 91.9688 189.223 91.7111 188.963 91.5177L188.962 91.5172C188.824 91.4134 188.658 91.3309 188.475 91.2747C188.292 91.2184 188.096 91.1895 187.897 91.1896H187.889C187.561 91.1914 187.244 91.2716 186.985 91.4178C186.725 91.5641 186.539 91.7683 186.454 91.9994V92C186.419 92.0922 186.402 92.1874 186.403 92.2829C186.402 92.5099 186.499 92.7312 186.679 92.9162C186.859 93.1011 187.113 93.2405 187.407 93.3148C187.7 93.3892 188.018 93.3949 188.316 93.331C188.614 93.2672 188.877 93.1371 189.069 92.9588C189.07 92.9582 189.07 92.9577 189.07 92.9572C189.279 92.7654 189.392 92.5277 189.392 92.2829C189.392 92.2689 189.391 92.255 189.389 92.2411ZM187.897 93.2276C187.556 93.2252 187.231 93.1245 186.991 92.9475C186.751 92.7705 186.617 92.5314 186.617 92.2823C186.617 92.0332 186.751 91.7942 186.991 91.6171C187.231 91.4401 187.556 91.3395 187.897 91.3371C187.923 91.3371 187.95 91.3381 187.976 91.3398H187.978C187.98 91.3398 187.982 91.3399 187.984 91.3404C188.319 91.3569 188.631 91.4678 188.856 91.6496C189.081 91.8314 189.2 92.07 189.189 92.3148C189.177 92.5597 189.036 92.7918 188.795 92.9621C188.554 93.1324 188.232 93.2276 187.897 93.2276Z" fill="#8E3332"/>
<path d="M185.712 90.9649L185.711 90.9643C185.446 90.7855 185.102 90.6829 184.742 90.6758C184.728 90.6752 184.714 90.6752 184.7 90.6752C184.682 90.6752 184.665 90.6752 184.647 90.6758C184.327 90.6841 184.019 90.7675 183.768 90.9137C183.518 91.0599 183.338 91.2611 183.256 91.4876C183.174 91.7141 183.193 91.9539 183.312 92.1717C183.43 92.3894 183.642 92.5735 183.914 92.6968H183.915C184.15 92.8045 184.422 92.8614 184.7 92.8611C185.02 92.8607 185.332 92.7852 185.59 92.6456C185.847 92.5061 186.036 92.3099 186.13 92.0858V92.0853C186.15 92.0383 186.165 91.9903 186.175 91.9416V91.9411C186.188 91.8838 186.194 91.8258 186.194 91.7677C186.194 91.6168 186.151 91.4675 186.068 91.3293C185.985 91.1911 185.864 91.067 185.712 90.9649ZM184.7 92.7137C184.366 92.7135 184.045 92.6191 183.805 92.4501C183.564 92.2811 183.422 92.0507 183.409 91.807C183.395 91.5632 183.511 91.3251 183.731 91.1423C183.952 90.9595 184.261 90.8461 184.594 90.826H184.595C184.63 90.8234 184.665 90.8222 184.7 90.8226C184.73 90.8223 184.761 90.8234 184.792 90.826C184.929 90.8326 185.064 90.8555 185.192 90.8938L185.192 90.8943L185.193 90.8948H185.196C185.472 90.9788 185.7 91.1301 185.84 91.323C185.981 91.5159 186.026 91.7385 185.968 91.9529C185.909 92.1673 185.751 92.3603 185.52 92.499C185.289 92.6377 184.999 92.7136 184.7 92.7137Z" fill="#8E3332"/>
<path d="M186.146 91.8486L186.091 91.9904L186.576 92.0917L186.631 91.9499L186.146 91.8486Z" fill="#8E3332"/>
<path d="M184.865 90.2802C184.865 90.2802 187.817 91.3021 190.925 90.0775L193.585 90.3858C193.585 90.3858 192.844 88.7909 190.977 88.1703C189.109 87.5497 184.271 87.7358 184.865 90.2802Z" fill="#8E3332"/>
<path d="M194.457 91.7696C196.426 91.7696 198.022 90.6027 198.022 89.1632C198.022 87.7237 196.426 86.5568 194.457 86.5568C192.488 86.5568 190.892 87.7237 190.892 89.1632C190.892 90.6027 192.488 91.7696 194.457 91.7696Z" fill="#8E3332"/>
</svg>
