<svg width="28" height="30" viewBox="0 0 28 30" fill="none" xmlns="http://www.w3.org/2000/svg">
<path d="M24.5 18.0027V12.276C24.497 9.79177 23.5859 7.39161 21.9332 5.51464C20.2806 3.63767 17.9969 2.40939 15.5 2.0545V0.459229H12.5V2.0545C10.0031 2.40939 7.71943 3.63767 6.06677 5.51464C4.41411 7.39161 3.50296 9.79177 3.5 12.276V18.0027L2.3285 22.6157H0.5V25.5699H8.213C8.54041 26.8367 9.28709 27.9599 10.3351 28.7621C11.3831 29.5643 12.6726 29.9998 14 29.9998C15.3274 29.9998 16.6169 29.5643 17.6649 28.7621C18.7129 27.9599 19.4596 26.8367 19.787 25.5699H27.5V22.6157H25.6715L24.5 18.0027ZM6.455 18.5434L6.5 12.276C6.5 10.3173 7.29018 8.43874 8.6967 7.05369C10.1032 5.66864 12.0109 4.89053 14 4.89053C15.9891 4.89053 17.8968 5.66864 19.3033 7.05369C20.7098 8.43874 21.5 10.3173 21.5 12.276V18.1844L22.592 22.6157H5.4215L6.455 18.5434ZM14 27.047C13.4757 27.0455 12.9611 26.9082 12.5077 26.6489C12.0544 26.3897 11.6782 26.0176 11.417 25.5699H16.583C16.3218 26.0176 15.9456 26.3897 15.4923 26.6489C15.0389 26.9082 14.5243 27.0455 14 27.047Z" fill="#646464"/>
</svg>
